/* XPM */
static char *result[] = {
/* columns rows colors chars-per-pixel */
"64 64 99 2 ",
"   c #4E2E13",
".  c #4F3213",
"X  c #4E3912",
"o  c #543515",
"O  c #553C14",
"+  c #583F15",
"@  c #54361E",
"#  c #523E1C",
"$  c #543C23",
"%  c #583D23",
"&  c #543D29",
"*  c #4B4B0E",
"=  c #56400F",
"-  c #564F0E",
";  c #4D510F",
":  c #53530F",
">  c #4A4E11",
",  c #554213",
"<  c #5A4416",
"1  c #534D13",
"2  c #5B4C15",
"3  c #504519",
"4  c #534C1A",
"5  c #5F4A18",
"6  c #4D5112",
"7  c #525412",
"8  c #5A5313",
"9  c #565912",
"0  c #5A5D13",
"q  c #614D17",
"w  c #644E19",
"e  c #605717",
"r  c #655D14",
"t  c #695E15",
"y  c #65521A",
"u  c #6A551C",
"i  c #6C581E",
"p  c #5E6214",
"a  c #636514",
"s  c #6B6115",
"d  c #666915",
"f  c #6A6B16",
"g  c #646618",
"h  c #6F6519",
"j  c #666919",
"k  c #6C6D19",
"l  c #706417",
"z  c #716A15",
"x  c #736A19",
"c  c #6F701A",
"v  c #74741D",
"b  c #78761E",
"n  c #77781F",
"m  c #79791F",
"M  c #544326",
"N  c #5A4027",
"B  c #5B4C24",
"V  c #56422B",
"C  c #5A422A",
"Z  c #554A2F",
"A  c #584330",
"S  c #574A31",
"D  c #5D4D39",
"F  c #565137",
"G  c #565239",
"H  c #59563E",
"J  c #6E5D20",
"K  c #67562B",
"L  c #767620",
"P  c #787721",
"I  c #7C7B23",
"U  c #7E7C29",
"Y  c #5D5644",
"T  c #5E5B44",
"R  c #5C5748",
"E  c #5E5A4A",
"W  c #605B43",
"Q  c #615D4B",
"!  c #666152",
"~  c #686556",
"^  c #716D61",
"/  c #767265",
"(  c #787466",
")  c #817E26",
"_  c #827E2A",
"`  c #807C6F",
"'  c #817C70",
"]  c #828026",
"[  c #84812C",
"{  c #89862C",
"}  c #858130",
"|  c #8B8633",
" . c #8E8935",
".. c #908A36",
"X. c #848174",
"o. c #878378",
"O. c #888379",
"+. c #8F8B84",
"@. c None",
/* pixels */
"@.@.@.@.@.@.@.@.@.@.@.@.@.@.@.@.@.@.@.@.@.@.@.@.@.@.@.@.@.@.@.@.@.@.@.@.@.@.@.@.@.@.@.@.@.@.@.@.@.@.@.@.@.@.@.@.@.@.@.@.@.@.@.@.",
"@.@.@.@.@.@.@.@.@.@.@.@.@.@.@.@.@.@.@.@.@.@.@.@.@.@.@.@.@.@.@.@.@.@.@.@.@.@.@.@.@.@.@.@.@.@.@.@.@.@.@.@.@.@.@.@.@.@.@.@.@.@.@.@.",
"@.@.@.@.@.@.@.@.@.@.@.@.@.@.@.@.@.@.@.@.@.@.@.@.@.@.@.@.@.@.@.@.@.@.@.@.@.@.@.@.@.@.@.@.@.@.@.@.@.@.@.@.@.@.@.@.@.@.@.@.@.@.@.@.",
"@.@.@.@.@.@.@.@.@.@.@.@.@.@.@.@.@.@.@.@.@.@.@.@.@.@.@.@.@.@.@.@.@.@.@.@.@.@.@.@.@.@.@.@.@.@.@.@.@.@.@.@.@.@.@.@.@.@.@.@.@.@.@.@.",
"@.@.@.@.@.@.@.@.@.@.@.@.@.@.@.@.@.@.@.@.@.@.@.@.@.@.@.@.@.@.@.@.@.@.@.@.@.@.@.@.@.@.@.@.@.@.@.@.@.@.@.@.@.@.@.@.@.@.@.@.@.@.@.@.",
"@.@.@.@.@.@.@.@.@.@.@.@.@.@.@.@.@.@.@.@.@.@.@.@.@.@.@.@.@.@.@.@.@.@.@.@.@.@.@.@.@.@.@.@.@.@.@.@.@.@.@.@.@.@.@.@.@.@.@.@.@.@.@.@.",
"@.@.@.@.@.@.@.@.@.@.@.@.@.@.@.@.@.@.@.@.@.@.@.@.@.@.u [ @.@.@.@.@.@.@.@.@.@.@.@.@.@.@.@.@.@.@.@.@.@.@.@.@.@.@.@.@.@.@.@.@.@.@.@.",
"@.@.@.@.@.@.@.@.@.@.@.@.@.@.@.@.@.@.@.@.@.@.@.@.y u v I w y @.@.@.@.@.@.@.@.@.@.@.@.@.@.@.@.@.@.@.@.@.@.@.@.@.@.@.@.@.@.@.@.@.@.",
"@.@.@.@.@.@.@.@.@.@.@.@.@.@.@.@.@.@.@.@.@.@.@.@.| | [ c |  .@.y I @.@.@.@.@.@.@.@.@.@.@.@.@.@.@.@.@.@.@.@.@.@.@.@.@.@.@.@.@.@.@.",
"@.@.@.@.@.@.@.@.@.@.@.@.@.@.@.@.@.@.@.@.@.@.@.@.J | | _ U y c P I @.@.@.@.@.@.@.@.@.@.@.@.@.@.@.@.@.@.@.@.@.@.@.@.@.@.@.@.@.@.@.",
"@.@.@.@.@.@.@.@.@.@.@.@.@.@.@.@.@.@.@.@.w @.I @.c | |  .] I c c U U @.@.@.@.@.@.@.@.@.@.@.@.@.@.@.@.@.@.@.@.@.@.@.@.@.@.@.@.@.@.",
"@.@.@.@.@.@.@.@.@.@.@.@.@.@.@.@.@.@.@.q [ w m [ c c | v ] | c P I _ @.u J @.@.@.@.@.@.@.@.@.@.@.@.@.@.@.@.@.@.@.@.@.@.@.@.@.@.@.",
"@.@.@.@.@.@.@.@.@.@.@.@.@.@.@.w @.[ v n  .n ] [ c  .I | | g k c P 0 k m | i @.@.@.@.@.@.@.@.@.@.@.@.@.@.@.@.@.@.@.@.@.@.@.@.@.@.",
"@.@.@.@.@.@.@.@.@.@.@.@.@.@.@.[ e ] m  .....{ {  .I [ g p a d j p p f c | | i @.@.@.@.@.@.@.@.@.@.@.@.@.@.@.@.@.@.@.@.@.@.@.@.@.",
"@.@.@.@.@.@.@.@.@.@.@.@.@.@.y I n n ..{ { { ..x x | j ] I d m _ d f 0 P ] | ] | @.@.@.@.@.@.@.@.@.@.@.@.@.@.@.@.@.@.@.@.@.@.@.@.",
"@.@.@.@.@.@.@.@.@.@.@.@.@.@.) ) n n ..{ { {  .v c a ] I [ m [ [ d k [ [ { | I | @.@.@.@.@.@.@.@.@.@.@.@.@.@.@.@.@.@.@.@.@.@.@.@.",
"@.@.@.@.@.@.@.@.@.@.@.@.@.@.@.q k k | | { [ { | | c [ [ a I > k d 8 r v a a d g 5 @.@.@.@.@.@.@.@.@.@.@.@.@.@.@.@.@.@.@.@.@.@.@.",
"@.@.@.@.@.@.@.@.@.@.@.@.@.@.y P k j  .l ....{ ] { ] I [ f e 6 E 9 : k k f f k g k 5 @.@.@.@.@.@.@.@.@.@.@.@.@.@.@.@.@.@.@.@.@.@.",
"@.@.@.@.@.@.@.@.@.@.@.y U L k k I [ v v ..h c { f | } 6 > d M O ; 2 d f _ } k m j @.@.@.@.@.@.@.@.@.@.@.@.@.@.@.@.@.@.@.@.@.@.@.",
"@.@.@.@.@.@.@.@.@.@.@.@.v L I I I v v v v v { { c | k 9 > 7 E 9 : 0 g a } I _ b @.@.@.@.@.@.@.@.@.@.@.@.@.@.@.@.@.@.@.@.@.@.@.@.",
"@.@.@.@.@.@.@.@.@.@.@.P c a I [ } I 0 v ) ] v k k k m 0 0 9 a 9 9 a a p 7 7 b p 5 @.@.@.@.@.@.@.@.@.@.@.@.@.@.@.@.@.@.@.@.@.@.@.",
"@.@.@.@.@.@.@.@.@.@.5 U v k U j g 0 p v k k c c k v 7 : d 0 d a 0 a n 7 0 : d 7 7 0 0 @.@.@.@.@.@.@.@.@.@.@.@.@.@.@.@.@.@.@.@.@.",
"@.@.@.@.@.@.@.@.@.@.@.@.2 U [ I k k p p z I [ k _ P U k d d a a v 4 [ n 0 k k g k k 0 O @.@.@.@.@.@.@.@.@.@.@.@.@.@.@.@.@.@.@.@.",
"@.@.@.@.@.@.@.@.@.@.@.@.U _ I I k P k k c I f k P 9 U d d d v v v S 4 0 : 0 k f f 0 0 O @.@.@.@.@.@.@.@.@.@.@.@.@.@.@.@.@.@.@.@.",
"@.@.@.@.@.@.@.@.@.@.< 9 } j j P [ P [ L 7 7 k _ g g a g n d U r U E 9 M k p f n d m O @.@.@.@.@.@.@.@.@.@.@.@.@.@.@.@.@.@.@.@.@.",
"@.@.@.@.@.@.@.@.@.2 2 9 7 j _ P [ P _ I 8 8 k 1 d d P P P v a v U M S G f d n n m 2 2 a a @.@.@.@.@.@.@.@.@.@.@.@.@.@.@.@.@.@.@.",
"@.@.@.@.@.@.@.2 L p g p p p } 7 7 [ k I I 0 a d d d m P U U p v > > V p v P 7 a P 7 9 9 g @.@.@.@.@.@.@.@.@.@.@.@.@.@.@.@.@.@.@.",
"@.@.@.@.@.@.@.@.c k c 9 p p 4 p 9 [ j 2 , B a 9 r P r P U v v 1 6 M p p v a 9 6 4 7 9 p , g + @.@.@.@.@.@.@.@.@.@.@.@.@.@.@.@.@.",
"@.@.@.@.@.@.@.< ] U c c v p p 0 p 0 k 9 0 < 6 7 _ d a L 3 > 6 : M $ ; ; n 1 9 6 0 x s s ] ) 5 5 @.@.@.@.@.@.@.@.@.@.@.@.@.@.@.@.",
"@.@.@.@.@.@.< k ] j I I 0 g v p 0 k c j v k B a p k _ I 9 7 7 ; R ; 7 9 2 9 9 0 0 0 f I k 1 5 f y @.@.@.@.@.@.@.@.@.@.@.@.@.@.@.",
"@.@.@.@.@.@.@.5 { | I k k 0 c c L c P P d f d a a f p - > > > 4 d > 9 ; 0 6 9 0 c f g d ) z 0 0 f y @.@.@.@.@.@.@.@.@.@.@.@.@.@.",
"@.@.@.@.@.@.2 g j } I I U c c k k U c k P m d d v p p a 1 > d f k j 9 9 0 0 c 0 v v g d I [ 0 c m I @.@.@.@.@.@.@.@.@.@.@.@.@.@.",
"@.@.@.@.@.2 c v 9 0 | | c } c g k c ] n P a a v r p a a : ; 9 : v p k c p - d d v k v I m ] k z y w @.@.@.@.@.@.@.@.@.@.@.@.@.@.",
"@.@.@.@.@.@.2 p p f f I I 9 c c n P [ [ v v a I a v p 7 9 9 9 n n d c c > 0 8 v v 7 n d 8 ] m m m [ @.@.@.@.@.@.@.@.@.@.@.@.@.@.",
"@.@.@.@.@.@.@.< 0 j 9 2 K T 0 I k [ k k I v n 3 v n p a ; c a a p p n 7 R 0 9 0 : 7 ) 8 7 6 9 k _ y @.@.@.@.@.@.@.@.@.@.@.@.@.@.",
"@.@.@.@.@.@.@.@.# c g g 9 C L v C [ v V H c 3 > 3 7 Y M ; k r a p v U ; V d 6 d 9 & 1 : 9 9 m 5 @.@.@.@.@.@.@.@.@.@.@.@.@.@.@.@.",
"@.@.@.@.@.@.@.@.@.k 5 c p 9 9 D 0 0 U I 6 T A 6 : ; 7 a m v b b I L d m v v f f W M 7 9 9 7 [ P @.@.@.@.@.@.@.@.@.@.@.@.@.@.@.@.",
"@.@.@.@.@.@.@.@.@.@.+ 9 p 0 8 N P P f U 0 d A E E 9 9 ; : p b b U 6 8 6 c c p p k d g a 6 v P _ _ @.@.@.@.@.@.@.@.@.@.@.@.@.@.@.",
"@.@.@.@.@.@.@.@.@.< a 0 n p 8 8 f d v c 7 a v 7 f f > 3 d d m m 7 > 6 k k t d g d g U P 0 U , < @.@.@.@.@.@.@.@.@.@.@.@.@.@.@.@.",
"@.@.@.@.@.@.@.@.k I p v v c f v d g t a c v a : f d a g p ) 8 - 9 7 X k 8 v v d L v 9 r p g @.@.@.@.@.@.@.@.@.@.@.@.@.@.@.@.@.@.",
"@.@.@.@.@.@.@.@.f P [ z z v I f d d d d 9 v 9 d d d v a s p a * > T > 9 8 f n k 1 : 0 @.@.@.@.@.@.@.@.@.@.@.@.@.@.@.@.@.@.@.@.@.",
"@.@.@.@.@.@.@.@.m g [ z k [ k f m v 0 d 9 9 v v t b ) d p p a a , Q > 7 d d v f v 9 0 @.@.@.@.@.@.@.@.@.@.@.@.@.@.@.@.@.@.@.@.@.",
"@.@.@.@.@.@.< k _ I f I f I z m t s f d d k 0 b ) _ r a v d p p H 6 9 9 9 0 s v b , @.@.@.@.@.@.@.@.@.@.@.@.@.@.@.@.@.@.@.@.@.@.",
"@.@.@.@.@.@.@.j _ _ I _ P I { m m f f k f f N v ) ) v b t v ) F ; ; 9 0 f f I b P < @.@.@.@.@.@.@.@.@.@.@.@.@.@.@.@.@.@.@.@.@.@.",
"@.@.@.@.@.@.@.@.@.w I k { { m 8 ) - v a f f H ) : ; ) ) v b Z o a a a d z d d s _ q @.@.@.@.@.@.@.@.@.@.@.@.@.@.@.@.@.@.@.@.@.@.",
"@.@.@.@.@.@.@.@.@._ [ w _ _ 0 7 8 8 v s f + - H b v f ) v a F : a a c d d f f < @.@.@.@.@.@.@.@.@.@.@.@.@.@.@.@.@.@.@.@.@.@.@.@.",
"@.@.@.@.@.@.@.@.@.@.@.@.@.5 f , O 8 d f : : * s d a p r F . : : a z c c v b @.@.@.@.@.@.@.@.@.@.@.@.@.@.@.@.@.@.@.@.@.@.@.@.@.@.",
"@.@.@.@.@.@.@.@.@.@.@.@.@.@., @.@.p a d -   - d + F # F F F m x a r v t m ) @.@.@.@.@.@.@.@.@.@.@.@.@.@.@.@.@.@.@.@.@.@.@.@.@.@.",
"@.@.@.@.@.@.@.@.@.@.@.@.@.@.@.@.@.@.O @.@.@.@.@.7 O T G G o O < b P ) I @.q @.@.@.@.@.@.@.@.@.@.@.@.@.@.@.@.@.@.@.@.@.@.@.@.@.@.",
"@.@.@.@.@.@.@.@.@.@.@.@.@.@.@.@.@.@.@.@.@.@.@.@.@.% T R T O @.@.) P q @.@.@.@.@.@.@.@.@.@.@.@.@.@.@.@.@.@.@.@.@.@.@.@.@.@.@.@.@.",
"@.@.@.@.@.@.@.@.@.@.@.@.@.@.@.@.@.@.@.@.@.@.@.@.@.@.! ~ ~ @.@.@.@.@.@.@.@.@.@.@.@.@.@.@.@.@.@.@.@.@.@.@.@.@.@.@.@.@.@.@.@.@.@.@.",
"@.@.@.@.@.@.@.@.@.@.@.@.@.@.@.@.@.@.@.@.@.@.@.@.@.@.~ ~ ~ @.@.@.@.@.@.@.@.@.@.@.@.@.@.@.@.@.@.@.@.@.@.@.@.@.@.@.@.@.@.@.@.@.@.@.",
"@.@.@.@.@.@.@.@.@.@.@.@.@.@.@.@.@.@.@.@.@.@.@.@.@.@./ / R @.@.@.@.@.@.@.@.@.@.@.@.@.@.@.@.@.@.@.@.@.@.@.@.@.@.@.@.@.@.@.@.@.@.@.",
"@.@.@.@.@.@.@.@.@.@.@.@.@.@.@.@.@.@.@.@.@.@.@.@.@.@.X.( / @.@.@.@.@.@.@.@.@.@.@.@.@.@.@.@.@.@.@.@.@.@.@.@.@.@.@.@.@.@.@.@.@.@.@.",
"@.@.@.@.@.@.@.@.@.@.@.@.@.@.@.@.@.@.@.@.@.@.@.@.@.@.O.X.` @.@.@.@.@.@.@.@.@.@.@.@.@.@.@.@.@.@.@.@.@.@.@.@.@.@.@.@.@.@.@.@.@.@.@.",
"@.@.@.@.@.@.@.@.@.@.@.@.@.@.@.@.@.@.@.@.@.@.@.@.@.@.+.+.' @.@.@.@.@.@.@.@.@.@.@.@.@.@.@.@.@.@.@.@.@.@.@.@.@.@.@.@.@.@.@.@.@.@.@.",
"@.@.@.@.@.@.@.@.@.@.@.@.@.@.@.@.@.@.@.@.@.@.@.@.@.@.+.+.' @.@.@.@.@.@.@.@.@.@.@.@.@.@.@.@.@.@.@.@.@.@.@.@.@.@.@.@.@.@.@.@.@.@.@.",
"@.@.@.@.@.@.@.@.@.@.@.@.@.@.@.@.@.@.@.@.@.@.@.@.@.@.+.+.^ @.@.@.@.@.@.@.@.@.@.@.@.@.@.@.@.@.@.@.@.@.@.@.@.@.@.@.@.@.@.@.@.@.@.@.",
"@.@.@.@.@.@.@.@.@.@.@.@.@.@.@.@.@.@.@.@.@.@.@.@.@.N +.+.O.@ @.@.@.@.@.@.@.@.@.@.@.@.@.@.@.@.@.@.@.@.@.@.@.@.@.@.@.@.@.@.@.@.@.@.",
"@.@.@.@.@.@.@.@.@.@.@.@.@.@.@.@.@.@.@.@.@.@.@.@.@.% / +.O.o @.@.@.@.@.@.@.@.@.@.@.@.@.@.@.@.@.@.@.@.@.@.@.@.@.@.@.@.@.@.@.@.@.@.",
"@.@.@.@.@.@.@.@.@.@.@.@.@.@.@.@.@.@.@.@.@.@.@.@.@.@.+.+.O.@.@.@.@.@.@.@.@.@.@.@.@.@.@.@.@.@.@.@.@.@.@.@.@.@.@.@.@.@.@.@.@.@.@.@.",
"@.@.@.@.@.@.@.@.@.@.@.@.@.@.@.@.@.@.@.@.@.@.@.@.@.@.o   @.@.@.@.@.@.@.@.@.@.@.@.@.@.@.@.@.@.@.@.@.@.@.@.@.@.@.@.@.@.@.@.@.@.@.@.",
"@.@.@.@.@.@.@.@.@.@.@.@.@.@.@.@.@.@.@.@.@.@.@.@.@.@.@.@.@.@.@.@.@.@.@.@.@.@.@.@.@.@.@.@.@.@.@.@.@.@.@.@.@.@.@.@.@.@.@.@.@.@.@.@.",
"@.@.@.@.@.@.@.@.@.@.@.@.@.@.@.@.@.@.@.@.@.@.@.@.@.@.@.@.@.@.@.@.@.@.@.@.@.@.@.@.@.@.@.@.@.@.@.@.@.@.@.@.@.@.@.@.@.@.@.@.@.@.@.@."
};
