/* XPM */
static char *result[] = {
/* columns rows colors chars-per-pixel */
"64 64 70 1 ",
"  c #4C2611",
". c #4E2913",
"X c #512A13",
"o c #562F19",
"O c #54321D",
"+ c #5D351F",
"@ c #543522",
"# c #5B3720",
"$ c #553825",
"% c #5C3B26",
"& c #573B2A",
"* c #5D3E29",
"= c #5E422D",
"- c #5D4432",
"; c #5E473A",
": c #5E493C",
"> c #61422E",
", c #634631",
"< c #664A35",
"1 c #644C3B",
"2 c #684D39",
"3 c #67523D",
"4 c #69523E",
"5 c #5C4E41",
"6 c #5E5244",
"7 c #5F5449",
"8 c #634E41",
"9 c #645444",
"0 c #6A5444",
"q c #665845",
"w c #635649",
"e c #695749",
"r c #64594C",
"t c #6C5C4B",
"y c #655E53",
"u c #6B5D51",
"i c #6B604D",
"p c #676055",
"a c #6B6255",
"s c #676158",
"d c #6B655A",
"f c #6E685D",
"g c #726456",
"h c #756C5D",
"j c #746E64",
"k c #786F61",
"l c #777067",
"z c #7B7365",
"x c #7B7669",
"c c #7E7A6D",
"v c #7F7C71",
"b c #807B6F",
"n c #827E72",
"m c #858275",
"M c #888477",
"N c #868478",
"B c #89867A",
"V c #8C897C",
"C c #908C7E",
"Z c #07A5ED",
"A c #09A7EE",
"S c #02A7F3",
"D c #02A9F4",
"F c #8E8C81",
"G c #918E83",
"H c #939186",
"J c #959388",
"K c #989589",
"L c #9A988E",
"P c None",
/* pixels */
"PPPPPPPPPPPPPPPPPPPPPPPPPPPPPPPPPPPPPPPPPPPPPPPPPPPPPPPPPPPPPPPP",
"PPPPPPPPPPPPPPPPPPPPPPPPPPPPPPPPPPPPPPPPPPPPPPPPPPPPPPPPPPPPPPPP",
"PPPPPPPPPPPPPPPPPPPPPPPPPPPPPPPPPPPPPPPPPPPPPPPPPPPPPPPPPPPPPPPP",
"PPPPPPPPPPPPPPPPPPPPPPPPPPPPPPPPPPPPPPPPPPPPPPPPPPPPPPPPPPPPPPPP",
"PPPPPPPPPPPPPPPPPPPPPPP,nbccNBBNNVBcPPPPPPPPPPPPPPPPPPPPPPPPPPPP",
"PPPPPPPPPPPPPPPPPPPPPPP,nBMBNBBNBMMc,PPPPPPPPPPPPPPPPPPPPPPPPPPP",
"PPPPPPPPPPPPPPPPPPPPPPP<NBNBVJJuBMBM,PPPPPPPPPPPPPPPPPPPPPPPPPPP",
"PPPPPPPPPPPPPPPPPPPP%>>,MMBMVtutVVBB<.*%PPPPPPPPPPPPPPPPPPPPPPPP",
"PPPPPPPPPPPPPPPP,,mvvvm,MMMVBVwqVMVM<ivcmv%=PPPPPPPPPPPPPPPPPPPP",
"PPPPPPPPPPPPPPP2vmmv==%,MVVVBVJHMVVV<===mmmm>PPPPPPPPPPPPPPPPPPP",
"PPPPPPPPPPPP,mmem%%mmmM>MMVMBVVVVVMV<NNNNV>N<>=PPPPPPPPPPPPPPPPP",
"PPPPPPPPPPP,BmNJ=zzmmmM>MVVBVVVVMVVV=VNmNMB,Jxx=>PPPPPPPPPPPPPPP",
"PPPPPPPPP*FNNm%mmmzmMmmVCVVCLJJJKMVCmmmvNVNBB.nvbb@PPPPPPPPPPPPP",
"PPPPPPPP$FFB%mmmmMmMMBDSDDDDDDDDDDDDDZmmNNNxNNN.NmmoPPPPPPPPPPPP",
"PPPPPPP>F:BFmnnmmmMMCCZDDDDDDDDDDDDDDDDZnmxcnNNN.N1FOPPPPPPPPPPP",
"PPPPPPFNnn%nmmmBMMCDDDDDDDDDDDDDDDDDDDDZSHmnnnnnn.mmmFPPPPPPPPPP",
"PPPPP>nnmnBmmNNNNFSSDSDDDDDDDDDDDDDDDDDDSDJnnnnnnn.Nnb+PPPPPPPPP",
"PPPP@Bbn&BBBBNBBHDDDDDDDDDDDDDDDDDDDDDDDDDSSBvvvvvn.nnnoPPPPPPPP",
"PPPP%ncb$NFNNFNGSDDDDDDDDDDDDDDDDDDDDDDDDDDDGBBvnNN.bbnoPPPPPPPP",
"P>>=>,*>-::JJHHDDDDDDDDDDDDDDDDDDDDDDDDDDDDDDJFBm::1,,,,<,,,PPPP",
"-FFnnnnvvxnvH99SDDDDDDDDDDDDDDDDDDDDDDDDDDDDDDJBVmmnmmMMMnnKPPPP",
",nnNnnnnnnnvcHSDSDDDDDDDDDDDDDDDDDDDDDDDDDDDDDJFmnnnMmnMMMnKPPPP",
",nnnnnnnnnnnnSSDDDDSDDDDDDDDDDDDDDDDDDDDDDDDDDDnnmnmnMMnnMMKPPPP",
",NBnggnNmmnnnDSDDDDDDDDDDDDDDDDDDDDDDDDDDDDDDDDnnnmBMngtMMMLPPPP",
",NNnNwenNnNnVSDDDDDDDDDDDDDDDDDDDDDDDDDDDDDDDDDnnnMBBBBttVVKPPPP",
",NNBBF8NNNNNVSDDDDDDDDDDDDDDDDDDDADDDDDDDDDDDDDnnNMMBBBG2VBKPPPP",
",BBBHFBBBNNNVSDDDDDDADDDADDDDDDDDDDDDDDDDDDDDDDNVMBMBBGFCVVKPPPP",
",FBBBVBBBBNBNSDSDDDDDDDDDDDDDDDDDDDDDDDDDDDDDDDNMMmmCCFVVVVKPPPP",
">FFBVBBVVBBBNSDDDDDDDDDDDDDDDDDDDDDDDDDDDDDDSSSnnBFBVVFVzVFJPPPP",
"%LLLJJJJ189uFFDSSDDDDDDDDDDDDDDDDDDDDDDDDDDDSSFFF1*eeJJJKJJJPPPP",
".llsdsdsJFFFnnnDDDDDDDDDDDDDDDDDDDDDDDDDDDSSSccbcFFejyysyaslPPPP",
".yyw042,=HNmnnmFDDDDDDDDDDDDDDDDDDDDDDDDSDDSjcccccc134410dajPPPP",
".yyFnnkkOrmNmmmNFDDDDDDDDDDDDDDDDDDDDDDDSDSSknnnvbG.vvBBJ.djPPPP",
"P..wnnxcx@FNNmNNNFDZDDZSDDDDDDDDDDDDDDDDSSdaNnBnnF5lvmNBy...PPPP",
"PPPwnnncc@rFNNNNNGNSSDSDDDDSDDSSDAADSSDDSnNNNnBnn85jvmmBy.PPPPPP",
"PPPXyFnnxc$sHJBBNVMmmDSZDDDDSDSSDDDDSZZFFFnnBBBF6OkkvBF5.PPPPPPP",
"PPPPysmn00:ofeeBBVBNMbbb,,2<22<2<0>bnnFnBFNnBHG66fg8NN55PPPPPPPP",
"PPPP.sF0FF::fkhVBBNNmMbM,VVVCBmmnnn>nnBFNFBFBww6$gxx1G5.PPPPPPPP",
"PPPPPX5jmmNnn#hhfJVNmMBmCmCBMMMMnnnKBnnFBBJHwwOnnbbb5@ PPPPPPPPP",
"PPPPPP5jFmNvvNojfdHJmBM2mMMMMMnMnVnn8nBBJJrrw$xbbbbn5OPPPPPPPPPP",
"PPPPPPP$ffFNNBNF+ddgitJ4MBBMBMMgnVnn3Httqrw&zxzbvBB5@PPPPPPPPPPP",
"PPPPPPPPfffFNFNFt+.atiq<VBBCVhhKCnnC11tqqw=mMzncc555PPPPPPPPPPPP",
"PPPPPPPPP.ffdJHFmmnnXXX2CVVVV00KCCGn2...vvNMMbV775.PPPPPPPPPPPPP",
"PPPPPPPPPP fdd5nmmmnxxx2VCCCVCK4nnCC2ammccNMMGy77.PPPPPPPPPPPPPP",
"PPPPPPPPPPPP.d:ssHHHxxx<VVFVCCVVCCMB<umnHCC6:=y.PPPPPPPPPPPPPPPP",
"PPPPPPPPPPPPPPP.sppyir9.llfdddddebjlO,q9qqq6 PPPPPPPPPPPPPPPPPPP",
"PPPPPPPPPPPPPPPP.ppyp79.lddfdddpuyyl.-993q6 PPPPPPPPPPPPPPPPPPPP",
"PPPPPPPPPPPPPPPPPPPP....ddaryrppuyyy    PPPPPPPPPPPPPPPPPPPPPPPP",
"PPPPPPPPPPPPPPPPPPPPPPP.ss9wyyyyyyyy PPPPPPPPPPPPPPPPPPPPPPPPPPP",
"PPPPPPPPPPPPPPPPPPPPPPPP....        PPPPPPPPPPPPPPPPPPPPPPPPPPPP",
"PPPPPPPPPPPPPPPPPPPPPPPPPPPPPPPPPPPPPPPPPPPPPPPPPPPPPPPPPPPPPPPP",
"PPPPPPPPPPPPPPPPPPPPPPPPPPPPPPPPPPPPPPPPPPPPPPPPPPPPPPPPPPPPPPPP",
"PPPPPPPPPPPPPPPPPPPPPPPPPPPPPPPPPPPPPPPPPPPPPPPPPPPPPPPPPPPPPPPP",
"PPPPPPPPPPPPPPPPPPPPPPPPPPPPPPPPPPPPPPPPPPPPPPPPPPPPPPPPPPPPPPPP",
"PPPPPPPPPPPPPPPPPPPPPPPPPPPPPPPPPPPPPPPPPPPPPPPPPPPPPPPPPPPPPPPP",
"PPPPPPPPPPPPPPPPPPPPPPPPPPPPPPPPPPPPPPPPPPPPPPPPPPPPPPPPPPPPPPPP",
"PPPPPPPPPPPPPPPPPPPPPPPPPPPPPPPPPPPPPPPPPPPPPPPPPPPPPPPPPPPPPPPP",
"PPPPPPPPPPPPPPPPPPPPPPPPPPPPPPPPPPPPPPPPPPPPPPPPPPPPPPPPPPPPPPPP",
"PPPPPPPPPPPPPPPPPPPPPPPPPPPPPPPPPPPPPPPPPPPPPPPPPPPPPPPPPPPPPPPP",
"PPPPPPPPPPPPPPPPPPPPPPPPPPPPPPPPPPPPPPPPPPPPPPPPPPPPPPPPPPPPPPPP",
"PPPPPPPPPPPPPPPPPPPPPPPPPPPPPPPPPPPPPPPPPPPPPPPPPPPPPPPPPPPPPPPP",
"PPPPPPPPPPPPPPPPPPPPPPPPPPPPPPPPPPPPPPPPPPPPPPPPPPPPPPPPPPPPPPPP",
"PPPPPPPPPPPPPPPPPPPPPPPPPPPPPPPPPPPPPPPPPPPPPPPPPPPPPPPPPPPPPPPP",
"PPPPPPPPPPPPPPPPPPPPPPPPPPPPPPPPPPPPPPPPPPPPPPPPPPPPPPPPPPPPPPPP"
};
