/* XPM */
static char *result[] = {
/* columns rows colors chars-per-pixel */
"64 64 13 1 ",
"  c #040404",
". c #661904",
"X c #B20C0C",
"o c #E1302D",
"O c #8C4608",
"+ c #B2860C",
"@ c #C38846",
"# c #FFD658",
"$ c blue",
"% c #7B96FF",
"& c #FFCC9D",
"* c #ECECEC",
"= c None",
/* pixels */
"================================================================",
"================================================================",
"================================================================",
"================================================================",
"================================================================",
"================================================================",
"================================================================",
"================================================================",
"================================================================",
"================================================================",
"================================================================",
"================================================================",
"================================================================",
"================================================================",
"====================           =================================",
"==================  OOO++++OO..  ===============================",
"==================  OOO++++OO..  ===============================",
"================= .*##+.....OOOO.  =============================",
"===============  .##...ooooo         ===========================",
"============== ..+..ooo     OOO+++++O   ========================",
"============== OO.oo   OOO######++++++OO =======================",
"============== OO.oo   OOO######++++++OO =======================",
"============= ...o  OO#*##OOOOOOOOOOOO+++ ======================",
"============= .   O###OOOO...      ...OOOO  ====================",
"=============  OO++OOO....            ..OO  ====================",
"=============  OO++OOO....            ..OO  ====================",
"============= O++OO....      OOO        . ======================",
"============ O+OO...       O@@@@@OO O       ====================",
"============ +O....     OO@&&&&&@    O    ======================",
"==========  OO....         O@&&&&&&@O    =======================",
"==========  OO....         O@&&&&&&@O    =======================",
"==========  OO...     O@@@&&&&&&@   O    =======================",
"==========  O..     OO@@OO  &&&&O**&O == =======================",
"==========  O       OO@O@@**&&&&@  O@ ==========================",
"==========  O       OO@O@@**&&&&@  O@ ==========================",
"============ O...     @@** O&&&&@   @   ========================",
"=============  ..  O  @&**  &&&&&***@O@@ =======================",
"===============   O&  @&&&**&&&&&&&OO &&@ ======================",
"===============   O@&&@@&&&&&&&&&&&@O@OO& ======================",
"===============   O@&&@@&&&&&&&&&&&@O@OO& ======================",
"===============    O@@O@@@@&&&&&&@@O &&&@ ======================",
"============  O@@@O    OOO@@@@@@O   OO@@@ ======================",
"==========  @@&&&&&&@@O          OO  @&& =======================",
"==========  @@&&&&&&@@O          OO  @&& =======================",
"========= @@&&&OO   OO Xoo *X  @&&&@O&OO =======================",
"========= &&&&@  ===  XXoooOoXX  OO&&@  ========================",
"========= OO&&O  ===  Xoooo *oo ===   ==========================",
"==========  OO =====  XoooooOooX ===============================",
"==========  OO =====  XoooooOooX ===============================",
"============  ======  XXXXo *XXX ===============================",
"===================   %%%% XX   ================================",
"================== .  $$$$* %%% ================================",
"================= .O  %$**O@   ==   ============================",
"================= .O  %$**O@   ==   ============================",
"================= O@OO %$$ @&    @@. ===========================",
"================= O&@@    = @&&&OOOO. ==========================",
"================= O@  ======O&&O++++O ==========================",
"================= O@  ======O&&O++++O ==========================",
"==================  ======== OO++OO. ===========================",
"============================ ++O.   ============================",
"=============================    ===============================",
"================================================================",
"================================================================",
"================================================================"
};
