/* XPM */
static char *result[] = {
/* columns rows colors chars-per-pixel */
"64 64 115 2 ",
"   c #4F2913",
".  c #4F311E",
"X  c #53321E",
"o  c #4F3625",
"O  c #543523",
"+  c #543624",
"@  c #553726",
"#  c #553827",
"$  c #5A3B27",
"%  c #5E3B25",
"&  c #563B2A",
"*  c #563D2C",
"=  c #573C2D",
"-  c #573D2D",
";  c #573E2D",
":  c #573E2E",
">  c #593D2A",
",  c #583F30",
"<  c #5B4231",
"1  c #584032",
"2  c #584132",
"3  c #594233",
"4  c #594334",
"5  c #594335",
"6  c #5A4336",
"7  c #5A4436",
"8  c #5A4437",
"9  c #5A4537",
"0  c #574739",
"q  c #56463A",
"w  c #5A4538",
"e  c #5A4638",
"r  c #5B4639",
"t  c #5A4739",
"y  c #5B4739",
"u  c #5B473A",
"i  c #5B473B",
"p  c #56483B",
"a  c #5B483B",
"s  c #5C4939",
"d  c #5D493A",
"f  c #5C4A3B",
"g  c #5D4A3B",
"h  c #5B483C",
"j  c #5B493C",
"k  c #594A3D",
"l  c #5A4A3D",
"z  c #594A3E",
"x  c #5C493D",
"c  c #5C4A3E",
"v  c #5C4B3E",
"b  c #5C4B3F",
"n  c #624937",
"m  c #5C4D41",
"M  c #5D4D41",
"N  c #5D4D42",
"B  c #5D4E42",
"V  c #5D4E43",
"C  c #5D4F43",
"Z  c #5E4E43",
"A  c #5E4F44",
"S  c #5E4F45",
"D  c #5D5044",
"F  c #5E5145",
"G  c #5C5147",
"H  c #5F5046",
"J  c #5E5146",
"K  c #5C5247",
"L  c #5D5247",
"P  c #5D5248",
"I  c #5F5349",
"U  c #5F564B",
"Y  c #5C554C",
"T  c #5F574C",
"R  c #655444",
"E  c #675544",
"W  c #61564D",
"Q  c #60594D",
"!  c #615A4E",
"~  c #615B4F",
"^  c #655D56",
"/  c #665F58",
"(  c #666057",
")  c #6C6254",
"_  c #6C6355",
"`  c #676159",
"'  c #68625A",
"]  c #68635A",
"[  c #69635B",
"{  c #69645B",
"}  c #6D6558",
"|  c #69645C",
" . c #6A645C",
".. c #6A655C",
"X. c #6B655D",
"o. c #6B665D",
"O. c #6B675D",
"+. c #6B675E",
"@. c #6C665E",
"#. c #6C675E",
"$. c #6C675F",
"%. c #6C685E",
"&. c #6C685F",
"*. c #6D685F",
"=. c #6D695F",
"-. c #746F63",
";. c #746F64",
":. c #726E69",
">. c #767469",
",. c #7C7970",
"<. c #85837A",
"1. c #868579",
"2. c #86847B",
"3. c #88877B",
"4. c None",
/* pixels */
"4.4.4.4.4.4.4.4.4.4.4.4.4.4.4.4.4.4.4.4.4.4.4.4.4.4.4.4.4.4.4.4.4.4.4.4.4.4.4.4.4.4.4.4.4.4.4.4.4.4.4.4.4.4.4.4.4.4.4.4.4.4.4.4.",
"4.4.4.4.4.4.4.4.4.4.4.4.4.4.4.4.4.4.4.4.4.4.4.4.4.4.4.4.4.4.4.4.4.4.4.4.4.4.4.4.4.4.4.4.4.4.4.4.4.4.4.4.4.4.4.4.4.4.4.4.4.4.4.4.",
"4.4.4.4.4.4.4.4.4.4.4.4.4.4.4.4.4.4.4.4.4.4.4.4.4.4.4.4.4.4.4.4.4.4.4.4.4.4.4.4.4.4.4.4.4.4.4.4.4.4.4.4.4.4.4.4.4.4.4.4.4.4.4.4.",
"4.4.4.4.4.4.4.4.4.4.4.4.4.4.4.4.4.4.4.4.4.4.4.4.4.4.4.4.4.4.4.4.4.4.4.4.4.4.4.4.4.4.4.4.4.4.4.4.4.4.4.4.4.4.4.4.4.4.4.4.4.4.4.4.",
"4.4.4.4.4.4.4.4.4.4.4.4.4.4.4.4.4.4.4.4.4.4.4.4.4.4.4.4.4.4.4.4.4.4.4.4.4.4.4.4.4.4.4.4.4.4.4.4.4.4.4.4.4.4.4.4.4.4.4.4.4.4.4.4.",
"4.4.4.4.4.4.4.4.4.4.4.4.4.4.4.4.4.4.4.4.4.4.4.4.4.4.4.4.4.4.4.4.4.4.4.4.4.4.4.4.4.4.4.4.4.4.4.4.4.4.4.4.4.4.4.4.4.4.4.4.4.4.4.4.",
"4.4.4.4.4.4.4.4.4.4.4.4.4.4.4.4.4.4.4.4.4.4.4.4.4.4.4.4.4.4.4.4.4.4.4.4.4.4.4.4.4.4.4.4.4.4.4.4.4.4.4.4.4.4.4.4.4.4.4.4.4.4.4.4.",
"4.4.4.4.4.4.4.4.4.4.4.4.4.4.4.4.4.4.4.4.4.4.4.4.4.4.4.4.4.4.4.4.4.4.4.4.4.4.4.4.4.4.4.4.4.4.4.4.4.4.4.4.4.4.4.4.4.4.4.4.4.4.4.4.",
"4.4.4.4.4.4.4.4.4.4.4.4.4.4.4.4.4.4.4.4.4.4.4.4.4.4.4.4.4.4.4.4.4.4.4.4.4.4.4.4.4.4.4.4.4.4.4.4.4.4.4.4.4.4.4.4.4.4.4.4.4.4.4.4.",
"4.4.4.4.4.4.4.4.4.4.4.4.4.4.4.4.4.4.4.4.4.4.4.4.4.4.4.4.4.4.4.4.4.4.4.4.4.4.4.4.4.4.4.4.4.4.4.4.4.4.4.4.4.4.4.4.4.4.4.4.4.4.4.4.",
"4.4.4.4.4.4.4.4.4.4.4.4.4.4.4.4.4.4.4.4.4.4.4.4.4.4.4.4.4.4.4.4.4.4.4.4.4.4.4.4.4.4.4.4.4.4.4.4.4.4.4.4.4.4.4.4.4.4.4.4.4.4.4.4.",
"4.4.4.4.4.4.4.4.4.4.4.4.4.4.4.4.4.4.4.4.4.4.4.4.4.4.4.4.4.4.4.4.4.4.4.4.4.4.4.4.4.4.4.4.4.4.4.4.4.4.4.4.4.4.4.4.4.4.4.4.4.4.4.4.",
"$ $ $ $ $ $ $ $ $ $ $ $ $ $ $ $ $ $ 4.$ $ $ $ $ $ $ $ $ $ $ $ $ $ $ $ $ $ $ 4.$ $ $ $ $ $ $ $ $ $ $ $ $ $ $ $ $ $ $ $ 4.$ $ $ $ ",
"1.1.1.1.1.1.1.1.1.1.1.1.1.1.1.1.1.3.n 1.1.1.1.1.1.1.1.1.1.1.1.1.1.1.1.1.1.1.n 1.1.1.1.1.1.1.1.1.1.1.1.1.1.1.1.1.1.1.3.n 1.1.1.1.",
"1.1.1.1.1.1.1.1.1.1.1.1.1.1.1.1.1.1.E 1.1.1.1.1.1.1.1.1.1.1.1.1.1.1.1.1.1.1.E 1.1.1.1.1.1.1.1.1.1.1.1.1.1.1.1.1.1.} _ E 1.1.1.1.",
"%.*.*.*.%.%.%.%.=.=.*.*.*.*.=.=.=.*.< *.%.*.*.*.#.%.%.%.=.=.*.*.*.*.*.=.=.=.< *.*.%.*.*.*.%.%.%.%.=.=.*.*.*.*.=.<.) ;.< *.%.*.*.",
"%.*.*.%.#.#.#.#.*.*.*.*.*.*.*.*.=.*.< *.%.%.*.*.#.#.#.#.*.*.*.*.*.*.*.*.=.*.< *.%.%.*.*.%.#.#.#.#.*.*.*.*.*.*.*.*.,.-.< *.%.%.*.",
"#.O.O.#.#.#.o.o.%.%.%.%.%.%.%.#.#.#.< #.#.#.O.#.#.#.@.o.*.%.%.%.%.%.%.#.#.#.< #.#.#.O.O.#.#.#.o.o.%.%.%.%.%.%.%.#.#.,.< #.#.#.O.",
"o.o.o.o.o.o.o.o.#.#.#.#.#.#.#.O.O.O.< o.o.o.o.o.o.o.o.o.#.#.#.#.#.#.#.O.O.O.< o.o.o.o.o.o.o.o.o.o.#.#.#.#.#.#.#.O.O.O.< o.o.o.o.",
" . . . . .....................X.X.X.> X. . . . . . .....................X.X.> X... . . . . .....................X.X.X.> X. . . .",
"[ [ { { { { { { {  .{ { { { { { { { X [ [ [ { { { { { { {  .{ { { +.*...{ { X [ [ [ [ { { { { { { {  .{ { { { { { { { X [ [ [ { ",
"] ] ] ] ] ] [ [ [ [ [ [ [ [ [ [ [ ] X ] ] ] ] ] ] ] ] [ [ [ [ [ [ ] ] T [ ] X ] ] ] ] ] ] ] ] [ [ [ [ [ [ [ [ [ [ [ ] X ] ] ] ] ",
"` ` ` ` ` ` ` ` ` ` ` ` ` ` ` ` ]     ` ` ` ` ` ` ` ` ` ` ` ` ` ` ` ' U p q X ` ` ` ` ` ` ` ` ` ` ` ` ` ` ` ` ` ` ` ` X ` ` ` ` ",
"` ` ` ` ` ` ` ` ` ` ` ` ` ` ` ] ] k z ` ` ` ` ` ` ` ` ` ` ` ` ` ` Y K       K   ` ` ` ` ` ` ` ` ` ` ` ` ` ` ` ` ` ` `   ` ` ` ` ",
"K K . G L L L P K K K K K K K K K K K K K K . G K L L L K K K K K K K K K K K K K K K . G L L L P K K K K K K K K K K K K K K . ",
"K K . K L L L P K K K K K K K K K K K K K K . K L L L L K K K K K K K K K K K K K K K . K L L L P K K K K K K K K K K K K K K . ",
"K K o K L L L P K K K K K K K K K K K K K K o K K L L L K K K K K K K K K K K K K K K o K L L L P K K K K K K K K K K K K K K o ",
"K K o K L L L P K K K K K K K K K K K K K K o K K L L L K K K K K K K K K K K K K K K o K L L L P K K K K K K K K K K K K K K o ",
"` ` 2 ` ` ` ` ` ` ` ` ` ` ` ` ` ` ` ` ` ` ` 2 ` ` ` ` ` ` ` ` ` ` ` ` ` ` ` ` ` ` ` ` 2 ` ` ` ` ` ` ` ` ` ` ` ` ` ` ` ` ` ` ` 2 ",
"2 & @ , I I I I J J J M M J J I I I I I 2 * @ # I I I I J J J M M J J I I I I I 2 2 & @ , I I I I J J J M M J J I I I I I 2 * @ ",
"$.$.$.$.$.$.$.$.*.*.*.*.:.:.:.:.:.:.:.:.:.:.:.:.:.:.:.:.:.:.:.:.M $.$.$.$.$.$.$.$.$.$.$.$.$.$.$.$.*.*.*.M $.$.$.$.$.$.$.$.$.$.$.",
"` ` ` ` ` ` ` ` ` ` ` ` ` ` ` ` ` ` ` ` ` ` ` ` ` ` ` ` ` ` ` ` M ` ` ` ` ` ` ` ` ` ` ` ` ` ` ` ` ` ` ` M ` ` ` ` ` ` ` ` ` ` ` ",
"` ` ` ` ` ` ` ` ` ` ` ` ` ` ` ` ` ` ` ` ` ` ` ` ` ` ` ` ` ` ` ` M ` ` ` ` ` ` ` ` ` ` ` ` ` ` ` ` ` ` ` M ` ` ` ` ` ` ` ` ` ` ` ",
"` ` ` ` ` ` ` ` ` ` ` ` ` ` ` ` ` ` ` ` ` ` ` ` ` ` ` ` ` ` ` ` M ` ` ` ` ` ` ` ` ` ` ` ` ` ` ` ` ` ` ` M ` ` ` ` ` ` ` ` ` ` ` ",
"` ` ` ` ` ` ` ` ` ` ` ` ` ` ` ` ` ` ` ` ` ` ` ` ` ` ` ` ` ` ` ` 2 ` ` ` ` ` ` ` ` ` ` ` ` ` ` ` ` ` ` ` 2 ` ` ` ` ` ` ` ` ` ` ` ",
"; ; ; ; a a a a a a = + @ I I I I I I I t a N j u I I I a a = + O = I I I I I I I t j N j I I I I a a = O @ h r w 8 7 6 5 1 a N ",
"&.Z Z / / / / / / / / / / / / / / / / / / / b / / / / / / / / / / / / / / / / / / / / b / / / / / / / / / / / / Z Z W H / / / b ",
"/ t Z / / / / / / / / / / / / / / / / / / / x / / / / / / / / / / / / / / / / / / / / x / / / / / / / / / / / / i Z W c / / / x ",
"/ &.t / / / / / / / / / / / / / / / / / / / S ^ / / / / / / / / / / / / / / / / / / / S / / / / / / / / / / / / / | | / / / / S ",
"/ / t / / / / / / / / / / / / / / / / / / / A / / / / / / / / / / / / / / / / / / / / A / / / / / / / / / / / / / / / / / / / A ",
"/ / O / / / / / / / / / / / / / / / / / / / O / / / / / / / ^ / / / / / / / / / / / / O / / / / / / / / / / / / / / / / / / / O ",
"O O O O m m m m I I v j v D D C V B B B O O O O m m m m I I v j v D D D V B B B N O O O O m m m m I I 4 4 3 e D C V B B B O O O ",
"/ / / / / / / / / / / / / / / / / / / / / / / / / / / / / / / / v / / / / / / / / / / / / / / / / / / / 4 v / / / / / / / / / / ",
"/ / / / / / / / / / / / / / / / / / / / / / / / / / / / / / / / 9 / / / / / / / / / / / / / / / / / / / v $./ / / / / / / / / / ",
"/ / / / / / / / / / / / / / / / / / / / / / / / / / / / / / / / y - / / - $./ / / / / / / / / / / / / / I / / / / / / / / / / / ",
"/ / / / / / / / / / / / / / / / / / / / / / / / / / / / / / / / 2 I D - / / / / / / / / / / / / / / / / - / / / / / / / / / / / ",
"/ / / / / / / / / / / / / / / / / / / / / / / / / / / / / / / / 2 I F l / / / / / / / / / / / / / / / / : / / / / / / / / / / / ",
">.>.>.>.>.>.>.>.>.>.>.>.>.>.>.>.>.>.  >.>.>.>.>.>.>.>.>.>.>.>.>.>.>.>.>.>.>.% >.>.>.>.>.>.>.>.>.>.>.>.>.>.>.>.>.>.>.>.% >.>.>.>.",
">.>.>.>.>.>.>.>.>.>.>.>.>.>.>.>.>.s   >.>.>.>.>.>.>.>.>.>.>.>.>.>.>.>.>.>.>.R >.>.>.>.>.>.>.>.>.>.>.>.>.>.>.>.>.>.>.>.R >.>.>.>.",
">.>.>.>.>.>.>.>.>.>.>.>.>.>.>.! d g   >.>.>.>.>.>.>.>.>.>.>.>.>.>.>.>.>.>.>.R >.>.>.>.>.>.>.>.>.>.>.>.>.>.>.>.>.>.>.>.R >.>.>.>.",
"2.2.2.2.2.2.2.2.2.2.2.2.2.2.Q ~ Q f   2.2.2.2.2.2.2.2.2.2.2.2.2.2.2.2.2.2.2.R 2.2.2.2.2.2.2.2.2.2.2.2.2.2.2.2.2.2.2.2.R 2.2.2.2.",
"( ( ( ( ( ( ( ( ( ( ( ( ( ( ( Q 0     ( ( ( ( ( ( ( ( ( ( ( ( ( ( ( ( ( ( ( R ( ( ( ( ( ( ( ( ( ( ( ( ( ( ( ( ( ( ( ( R ( ( ( ( ",
"                                4.4.4.                                                                                          ",
"4.4.4.4.4.4.4.4.4.4.4.4.4.4.4.4.4.4.4.4.4.4.4.4.4.4.4.4.4.4.4.4.4.4.4.4.4.4.4.4.4.4.4.4.4.4.4.4.4.4.4.4.4.4.4.4.4.4.4.4.4.4.4.4.",
"4.4.4.4.4.4.4.4.4.4.4.4.4.4.4.4.4.4.4.4.4.4.4.4.4.4.4.4.4.4.4.4.4.4.4.4.4.4.4.4.4.4.4.4.4.4.4.4.4.4.4.4.4.4.4.4.4.4.4.4.4.4.4.4.",
"4.4.4.4.4.4.4.4.4.4.4.4.4.4.4.4.4.4.4.4.4.4.4.4.4.4.4.4.4.4.4.4.4.4.4.4.4.4.4.4.4.4.4.4.4.4.4.4.4.4.4.4.4.4.4.4.4.4.4.4.4.4.4.4.",
"4.4.4.4.4.4.4.4.4.4.4.4.4.4.4.4.4.4.4.4.4.4.4.4.4.4.4.4.4.4.4.4.4.4.4.4.4.4.4.4.4.4.4.4.4.4.4.4.4.4.4.4.4.4.4.4.4.4.4.4.4.4.4.4.",
"4.4.4.4.4.4.4.4.4.4.4.4.4.4.4.4.4.4.4.4.4.4.4.4.4.4.4.4.4.4.4.4.4.4.4.4.4.4.4.4.4.4.4.4.4.4.4.4.4.4.4.4.4.4.4.4.4.4.4.4.4.4.4.4.",
"4.4.4.4.4.4.4.4.4.4.4.4.4.4.4.4.4.4.4.4.4.4.4.4.4.4.4.4.4.4.4.4.4.4.4.4.4.4.4.4.4.4.4.4.4.4.4.4.4.4.4.4.4.4.4.4.4.4.4.4.4.4.4.4.",
"4.4.4.4.4.4.4.4.4.4.4.4.4.4.4.4.4.4.4.4.4.4.4.4.4.4.4.4.4.4.4.4.4.4.4.4.4.4.4.4.4.4.4.4.4.4.4.4.4.4.4.4.4.4.4.4.4.4.4.4.4.4.4.4.",
"4.4.4.4.4.4.4.4.4.4.4.4.4.4.4.4.4.4.4.4.4.4.4.4.4.4.4.4.4.4.4.4.4.4.4.4.4.4.4.4.4.4.4.4.4.4.4.4.4.4.4.4.4.4.4.4.4.4.4.4.4.4.4.4.",
"4.4.4.4.4.4.4.4.4.4.4.4.4.4.4.4.4.4.4.4.4.4.4.4.4.4.4.4.4.4.4.4.4.4.4.4.4.4.4.4.4.4.4.4.4.4.4.4.4.4.4.4.4.4.4.4.4.4.4.4.4.4.4.4.",
"4.4.4.4.4.4.4.4.4.4.4.4.4.4.4.4.4.4.4.4.4.4.4.4.4.4.4.4.4.4.4.4.4.4.4.4.4.4.4.4.4.4.4.4.4.4.4.4.4.4.4.4.4.4.4.4.4.4.4.4.4.4.4.4.",
"4.4.4.4.4.4.4.4.4.4.4.4.4.4.4.4.4.4.4.4.4.4.4.4.4.4.4.4.4.4.4.4.4.4.4.4.4.4.4.4.4.4.4.4.4.4.4.4.4.4.4.4.4.4.4.4.4.4.4.4.4.4.4.4."
};
