/* XPM */
static char *result[] = {
/* columns rows colors chars-per-pixel */
"64 64 13 1 ",
"  c #040404",
". c #661904",
"X c #B20C0C",
"o c #E1302D",
"O c #8C4608",
"+ c #B2860C",
"@ c #C38846",
"# c #FFD658",
"$ c blue",
"% c #7B96FF",
"& c #FFCC9D",
"* c #ECECEC",
"= c None",
/* pixels */
"================================================================",
"================================================================",
"================================================================",
"================================================================",
"================================================================",
"================================================================",
"===========================          ===========================",
"===========================          ===========================",
"========================   O+##*#++OO   ========================",
"======================= ..O+O......++O.. =======================",
"====================         oooooo..+OO. ======================",
"====================         oooooo..+OO. ======================",
"==================  OO+++++OO      oo...O.  ====================",
"================= O###****##++++OOO  ooo.O  ====================",
"===============  +#+OOOOOOOOOOOO++++O   o... ===================",
"============== OO#+....     ....OOOO++OO  .. ===================",
"============== OO#+....     ....OOOO++OO  .. ===================",
"============== OO+..       O    ....OO+++O   ===================",
"===============  .     O  O@        ..OOO+OO ===================",
"=================     O   @@O   O     ...O++O ==================",
"===============   O   O OO&&@OO  OO     ..OO+ ==================",
"===============   O   O OO&&@OO  OO     ..OO+ ==================",
"===============  =      @@&&&@@  OO      ...OO =================",
"==================  @@ *OO&&&  O   O     ...OO =================",
"==================  **O @@&&&***O  O      ...O =================",
"==================  **O @@&&&***O  O      ...O =================",
"=================== **  @@&&&OO *  @     .  .O =================",
"=================== @@**&&&&&   *@@@ O   ...O ==================",
"=================== @@&&&&&&&***@@@@ &OO .   ===================",
"=================== OO@&&&&&&&&OOOO@&@OO  ======================",
"=================== OO@&&&&&&&&OOOO@&@OO  ======================",
"====================  O@&&&&&&&@@@@O@O  ========================",
"======================  OO@@@@@@OOO   ==========================",
"========================            ============================",
"========================            ============================",
"========================== X*  XX  O ===========================",
"========================  XoOooXX  & ===========================",
"=======================   o* oooX  @@ ==========================",
"======================  XXoXooooXXX & ==========================",
"======================  XXoXooooXXX & ==========================",
"====================  @ XXX* ooooXX &   ========================",
"====================  &@   XXXXXX  O&&OO =======================",
"======================  $$%%       @*&@@ =======================",
"======================  $$%%       @*&@@ =======================",
"======================= **$%$%%%$  O&@  ========================",
"========================  O%   %%$$   ==========================",
"======================    & === $*** ===========================",
"====================  @&&&@ ==== @@O ===========================",
"====================  @&&&@ ==== @@O ===========================",
"=================== ..++OO. === O&&@ ===========================",
"====================       ==== .&&&@ ==========================",
"=============================== OOO+. ==========================",
"================================     ===========================",
"================================     ===========================",
"================================================================",
"================================================================",
"================================================================",
"================================================================",
"================================================================",
"================================================================",
"================================================================",
"================================================================",
"================================================================",
"================================================================"
};
