/* XPM */
static char *result[] = {
/* columns rows colors chars-per-pixel */
"64 64 40 1 ",
"  c #636917",
". c #656C17",
"X c #686F16",
"o c #71741B",
"O c #72751B",
"+ c #787B21",
"@ c #5F5B46",
"# c #605C48",
"$ c #64604B",
"% c #66624D",
"& c #68644F",
"* c #6C6852",
"= c #7C7B6E",
"- c #A2783C",
"; c #807F72",
": c #7F8124",
"> c #7F8226",
", c #A2814F",
"< c #838275",
"1 c #828077",
"2 c #838178",
"3 c #838279",
"4 c #848279",
"5 c #878679",
"6 c #87857C",
"7 c #87867D",
"8 c #88867D",
"9 c #88867E",
"0 c #89877F",
"q c #8A887F",
"w c #C6A740",
"e c #8C8A81",
"r c #8D8B82",
"t c #8D8B83",
"y c #8D8C83",
"u c #8E8C83",
"i c #8E8C84",
"p c #8F8D85",
"a c #939189",
"s c #B3B0A9",
/* pixels */
"OOOOOOOOOOOOOOOOOOOOOOOOOOOOOOOOOOOOOOOOOOOOOOOOOOOOOOOOOOOOOOOO",
"OOOOOOOOOOOOOOOOOOOOOO+OOOOOOOOOOOOOOOOOOOOOOOOOOOOOOO+OOOOOOOOO",
"OOOOOOOOO+OOOOOOOOOOOOOOOOOOOOOOOOOOOOOOO+OOOOOOOOOOOOOOOOOOOOOO",
"OOOOOOOOOO.OOOOOO>>OOOOOOOOOOOOOOOOOOOOOOO.OOOOOO. OOOOOOOOOOOOO",
"OOOOOOOOOOOOOOOOOOOOOOOOO>+OOOOOOOOOOOOOOOOOOO>OOOOOOOOOO>+OOOOO",
"OOOOOOOOOOOOOOOOOOOOOOOOOOOOOOOOOOOOOOOOOOOO.,OOOOOOO OOOOOOO>>O",
"OOOOOOOOOOOOOOOOOOOOOOOOOOOOO+>OOOOOOOOOOOOOO+OOOOOOOOOOOOOOO sO",
"OOOOOOOOOOOOOOOOOOOOOOOOOOOOOOOOOOOOOOOOOOOOOOOOOOOOOOOOOOOOOOOO",
"OOOOOOOOOOOOOOOOOOOOOOOOOOOOOOOOOOOOOOOOOOOOOOOOOOOOOOOOOOOOOOOO",
"OOOOOOOOOOOOOOOOOOOOO>OOOOOOOOOOOOOOOOOOOOOOOOOOOOOOO>OOOOOOOOOO",
"OOOOOOOOOOOOO++OOOOOO++OOOOOOOOOOOOOOOOOOOOOO++OOOOOO++OOOOOOOOO",
"OOOOOOOOOOOOO+OOOOOOOOOOOOOOOOOOOOOOOOOOOOOOO,sOOOOOOwOOOOOOOOOO",
"OO.OOOOOOOOOOOOOOOOOOOOOO+OOOOOOOO. OOOOOOOOOOOOOOOOOOOOO+OOOOOO",
"OOOOOOOOOOOOOOOOOOOOOOOOOOOOOO>OOOO OOOOOOOOOOOOOO>OOOOOOOOOOO>O",
"OOOOOOOOO>OOOOOOOOOOOOOOOOOOOOOOOOOOOOOOO>OOOOOOO+OOOOOOOOOOOOOO",
"OOOOOOOOOO.OOOOOOOOOOOOOOOOOOOOOOOOOOOOOOO.OOOOOOOOOOOOOOOOOOOOO",
"OOOOOOOOOOOOOOOOOOOOOOOOOOOOOOOOOOOOOOOOOOOOOOOOOOOOOOOOOOOOOOOO",
"OOOOOOOOOOO.+OOOOOOOOOOOOOOOOO>OOOOOOOOOOOO.+OOOOOOOOOOOOOOOOO>O",
"OOOOOOOOOOOOOOOOOOOOOOOOOOOOOOOOOOOOOOOOOOO OOOOOOOOOOOOOOOOO-OO",
"OOOOOOOOOOOOOO>OOOOOOOOOOOOOOOOOOOOOOOOOOOOOOO>OOOOOOOOOOOOOOOOO",
"OOOOOOOOOOOOOOOOOOOOXOOOOOOOOOOOOOOOOOOOOOOOOOOOOOOO,OOOOOOOOOOO",
"OOOOOOOOOOOOOOOOOOOOOOOOOOOOOOOOOO OOOOOOOOOOOOOOOOOOOOOOOOOOOOO",
"OOOOOOOOO.OOOOOOO:OOOOOOOOOOOOOOOOOOOOOOO. OOOOOO:OOOOOOOOOOOOOO",
"OOOOOOOOOOOOOOOOOOOOOOOOOOOOOOOOOOOOOOOOOOOOOOOOOOOOOOOOOOOOOOOO",
"OOOOOOOOOOOOOOOOOOOOOOOOOOOOOOOOOOOOOOOOOOOOOOOOOOOOOOOOOOOOOOOO",
"OXOOOOOOO++OOOOOOOOOOO:OOOOOOOOOOXOOOOOOO++OOOOOOOOOOOXOOOOOOOOO",
"OOOOOOOOOOOO+X:OOOOOOOOOOOOOOOOOOOOOOOOOOO O+X:OOOOOOOOOOOOOOOOO",
"OOOOOOOOOOOOOOXOOOOOOOOOOOOOXXXOOOOOOO+OOOOOOwXOOOOOOOOOOOOOXXXO",
"OOO:OOOOOOOOOOOOO:OOOOOOOOO:OOOOOOOOOOOOOOOOOO OO:XOOOOOOOO:O OO",
"OXOOOOOOOOOOOOOOO++OOOOOOOOOOOOOO,O:OOOOOOOOOOOOOOOOOOOOOOOO OOO",
"OOOO+OOOO+OOOOXOOOOOOOOOOOOOOOOOOOO OOOOO+OOOOXOOOOOOOOOOOOOOOOO",
"OOOOOOOOOOOOOOOOOOOOOOOOOOOOOOOOOOOOOOOOOOOOOOOOOOOOOOOOOOOOOOOO",
";;;8===4;;;8===4OOOO555u;;;8OOOOOOOOOOOOOOOOOOOOOOOOOOOOOOOOOOOO",
";;;8===47;;8===4OOOO555u;;;8OOOOOOOOOOOOOOOOOOOOOOOOOOOOOOOOO>+O",
";;;8===4;;;8===4OOOO555u;;;8OOOOOOOOOOOOOOOO+OOO+OOOO+OOOOOOOOOO",
"$%%O###O$$$..$#OOOOO$$*O$$#OOOOOOOOOOOOOOOOOOOOOOOOO.+OOOOOOOOOO",
"555u;;;6;;;8555iOOOO;;;8===2OOOO555u===4O;;8;;;8<<<qO;;8;$;8;;;8",
"555u;;;7;;;8555uOOOO;;;8===3OOOO555u===4;;;8;;;8p<<q;;;8;;;8;;;O",
"555u;;;6;;;8555uOOOO;;;8===2OOOO555u===4;;;8;;;8<<p4;;;8;;t$;;;O",
"%**O$$$O$$$O$**OOOOO$$$O###OOOOO***O$#$O$#$OOO$O*&++$$$O$$OOO$$O",
";;;8;;;8555e;;;8OOOO;;OO;;;>+OOO;;;8;;;6===4555r;;;8;;;6===4555r",
";;;8;;;O555u;;;8OOOO;;;8;;;8OOOO;;;8;;;7===4555y;;;8;;;7==00Oa5y",
";;;8;;;8*55u;;;$OOOO;;;8;;;8OOOO;;;8;;;6==0#555r;;;8$$;6=0+O55*r",
"$$$O$$$$+**O$$$OOOO>$$$O$$$OOOOO$$$O$$$O$#+OO**O$$OO.+$OOOOO**OO",
";;;OO==3;;;8;;;9OOOO===8555rOOOOOOOOOOOOOOOOOOOOOOOOOOOOOOOOOOOO",
";;;4===3;;;8XO;8OOOO===4555yOOOOOOOOOOOOOOOOOOOOOOOOOOOOO+OOOOOO",
";;;8===3;;;8;;;8OOOO===455aOOOOOOOOOOOOOOOOOOO:OOOOOOOOOOX:OOOOO",
"$$$O$##O$$O+$$$OOOOO###O**OOOOOOOOOOOOOOOOOOOOOOOOOOOOOOOOOOOOOO",
";;;8555r;;;8O==1OOOO;;;8;;OOOOOO;;;8OOOOOOOO;;;8OOOOOOOOOOOOOOOO",
";;;8555r$$;83==4OOOO;;;8;;;8OOOO;;;8OOOOOOOO;;;8OOOOOOOOOOOOOOOO",
"8;;8555r;O87===4OOO>;;;O;;;8OOOOt;;8OOOOOOOO;;;tOOOOOOOO+>OOOOOO",
"O$$$*+*O$$O$O@#OOOO+$$$.>$$OOOOOOO$OOOOOOOOO$$O>OO.OOOOOOOOOOOOO",
"===4;;;8O;;9;;;8OOOO;;;8===2OOOOOOOOOOOOOOOOOOO.;;;8OOOOOOOO;;;6",
"==OO;;;8;;;8;;;8OOOO;;;8===3OOOOOOOOOOOOOOOOOOOO;;;8OOOOOOOO;;;7",
"===4;;;8;;;8;;$OOOOO;O;8===2OOOOOOO.+OOOOOOOOOOO;;;8OOOOOOOO;;;6",
"###$O$$$$$$O$$OOOOOO$$OOO##OOOOOOOOOOOOOOOOOOOOo$$OOOOOOOOOOO$Oo",
"O;;8;;;8555u;;;8OOOO===4555uOOOOOOOO;;;8O*5uOOOOOOOOOOOOOOOOOOoO",
";;;8t;;8555u;;;8OOOO===4555uOOOOOOOO;;;855O*O.+OoOOOOOOOOOOOOOOO",
";;;$O$t8555*$;;8OOOO=00O555uOOOOOOOO>;;8555uOOOOOOOOOOOOOOOOOOOO",
"$$OOOOOO**OOOO$OOOOO#O0O$$$OOOOOOOOO.$$O***OOOOOOOOOOOOOOOOOOOOO",
"555OOOOOOOOO40O4OOOO++:O;;;6OOOOOO=46;;6;;;8OO;6OOOOOOOOOOOOOOOO",
"55>++OOOOOOO.O=4OOOOOOOO;;;7O+OO===4;;;7;;;8;;;7OOOOOOOOOOOOOOOO",
"5*O>OOOOOOOOO==4O++OOOOOOOt6OOOO===0;;;6t;;8;;;6OOOOOOOOOOOOOOOO",
"OOOOOOXOOOOOOO#OOOOOOOOOOOOOOOOO###OO$$O+O$O$$$OOOOOOOOOOOOOOOOO"
};
