/* XPM */
static char *result[] = {
/* columns rows colors chars-per-pixel */
"64 64 67 1 ",
"  c #4F2913",
". c #512C15",
"X c #532F19",
"o c #55321C",
"O c #59351E",
"+ c #573720",
"@ c #5A3721",
"# c #5C3B24",
"$ c #5B3D29",
"% c #603E27",
"& c #603F29",
"* c #5F402A",
"= c #554434",
"- c #5E4633",
"; c #5E4836",
": c #574A3C",
"> c #594B3D",
", c #63422C",
"< c #634632",
"1 c #664C36",
"2 c #684D37",
"3 c #624F3C",
"4 c #694E3A",
"5 c #63533F",
"6 c #69513C",
"7 c #5B4F42",
"8 c #5C5042",
"9 c #5F564A",
"0 c #615344",
"q c #6C5440",
"w c #625749",
"e c #655A4C",
"r c #695D4E",
"t c #705D45",
"y c #725D4A",
"u c #655D52",
"i c #6A5F51",
"p c #6B6255",
"a c #6C655A",
"s c #6F695E",
"d c #726555",
"f c #716B5E",
"g c #7A6E5E",
"h c #6D6760",
"j c #746E62",
"k c #7B6F61",
"l c #767164",
"z c #7A7364",
"x c #767168",
"c c #7A766B",
"v c #7E796C",
"b c #807562",
"n c #837D6E",
"m c #827E71",
"M c #858274",
"N c #898476",
"B c #878478",
"V c #898679",
"C c #8C897C",
"Z c #908D7E",
"A c #8F8C80",
"S c #918E83",
"D c #949185",
"F c #969489",
"G c #99968B",
"H c #9B998D",
"J c None",
/* pixels */
"JJJJJJJJJJJJJJJJJJJJJJJJJJJJJJJJJJJJJJJJJJJJJJJJJJJJJJJJJJJJJJJJ",
"JJJJJJJJJJJJJJJJJJJJJJJJJJJJJJJJJJJJJJJJJJJJJJJJJJJJJJJJJJJJJJJJ",
"JJJJJJJJJJJJJJJJJJJJJJJJJJJJJJJJJJJJJJJJJJJJJJJJJJJJJJJJJJJJJJJJ",
"JJJJJJJJJJJJJJJJJJJJJJJJJJJJJJJJJJJJJJJJJJJJJJJJJJJJJJJJJJJJJJJJ",
"JJJJJJJJJJJJJJJJJJJJJJJJJJJJJJJJJJJJJJJJJJJJJJJJJJJJJJJJJJJJJJJJ",
"JJJJJJJJJJJJJJJJJJJJJJJJJJJJJJJJJJJJJJJJJJJJJJJJJJJJJJJJJJJJJJJJ",
"JJJJJJJJJJJJJJJJJJ$O@*JJJJJJJJJJJJJJJJJJJJJJJJJJJJJJJJJJJJJJJJJJ",
"JJJJJJJJJJJJJJJ,,,zzzz*JJJJJJJJJJJJJJJJJJJJJJJJJJJJJJJJJJJJJJJJJ",
"JJJJJJJJJJJJJ,,nvzvvzzzOJJJJJJJJJJJJJJJJJJJJJJJJJJJJJJJJJJJJJJJJ",
"JJJJJJJJJJJJ<nbcvvvvMMnOJJJ%%#,,JJJJJJJJJJJJJJJJ,,,JJJJJJJJJJJJJ",
"JJJJJJJJJJJ,MnMvzvMMMZS#%%#NCCCZ%JJJJJJJJJJJJ$**mvm,JJJJJJJJJJJJ",
"JJJJJJJJJJ<MnMnMMMnZZdf#ddCCNVZZG%JJJJJJJJJJ$MMvvmvm<JJJJJJJJJJJ",
"JJJJJJJJJ,kMMMnMMVDfffgOddVCVVZZD#JJJJJJJJJJ$CMMMvvBM,JJJJJJJJJJ",
"JJJJJJJJ,zzMMnMNVGpfdfgOdNNNVCZZG#JJJJJJJJJJ#zCMMvmBMB,JJJJJJJJJ",
"JJJJJJJOzbMMMVVVDppppgfOpCVZVDHGGOJJJJJJJJJJ#xxDBmBmMMM,JJJJJJJJ",
"JJJJJJJ,zVBBBVVDeeppiffONDZZZllllOJJJJJJJJJJ#czxABmBMVNN,JJJJJJJ",
"JJJJJJ#VBVBBVBFeeeeai@@DZiuppppljOJJJJJJJJJJOcxlxDBMBVMVM,JJJJJJ",
"JJJJJJ#VVBBVBVFueuuuO&weuuidpdpdjOJJJJJJJJJ##cxlhhFBBBSDSD,JJJJJ",
"JJJJJ#VVVVVVVF0eee%@w;wwuuuuupppj+JJJJJJJJ$vm#llsjhFAAuppp*JJJJJ",
"JJJJJOSCAASDFF00u@q0w;wwruupppppjoJJJJJJJJ+ssl#lsspBppappi*JJJJJ",
"JJJJJO2yb4&2#000@q0eu<eewrrer#%%joJJJJJJJJ@sssc#sppB@@$#@$*JJJJJ",
"JJJJ#DnMnmmm&00%quuuu&wwwwupOnnn$#$JJJJJJJ#hssc$pip$mmcccCoJJJJJ",
"JJJJOSMMmmnnm#0@7uuuu$wwwwrOnnnMNNN#%JJJJJOshspt#a#MmvvccCoJJJJJ",
"JJJJ#sDMBmmmn#0@0iuuuOOOooXnMnnnNNVCC$JJJJ+shuppt##vvvvvVeoJJJJJ",
"JJJJ@jSMMMmMBm%77uueoJJJJXMMMNNNNNCCCF%JJJJ*sppprt#vccvcBeoJJJJJ",
"JJJJ#hSBMMMMmCO000eoJJJJXSCnMNMNMCCCAF&JJJJJXppper#vvmmmVeoJJJJJ",
"JJJJ#jjSmmMVmmmO00oJJJJJXipACANCCCCCFe&JJJJJJXpir#zbmmmvCeoJJJJJ",
"JJJJ@jaSAVCVmmm%7@JJJJJJXipppaFFFCCADeXJJJJJJJoee*zzmmmV0eoJJJJJ",
"JJJJ#lapFVVCCnmm&JJJJJJJXppppadssFGGee.JJJJJJJJor#MbnvMV8woJJJJJ",
"JJJJ#jaaDCCCVnnF$JJJJJJJJooppapfsfzwe JJJJJJJJJoXX.MMnvC00oJJJJJ",
"JJJJJOafhSCCCGFi%$JJJJJJJJJOOoafffcweXJJJJJJJJ*NNNM.XNF>70oJJJJJ",
"JJJJJOffhkGGFdd2mm,JJJJJJJJJJJooXjneoJJJJJJJ16nnnNNMNOO>7.JJJJJJ",
"JJJJJJ#fffmddi,Nmmm,&JJJJJJJJJJJJ@#@JJJJJJJ1nnnnMMMMZ8+5:.JJJJJJ",
"JJJJJ@#hffmdd$BVVVmmV,,JJJJJJJJJJJJJJJJJJ1tMMMMMMMVZ98+>:.JJJJJJ",
"JJJJ@am@sfni%ZVVVVNVVVV<J,,$JJJJJJJJ%,%J5CCCMMMVMMZ995o::XJJJJJJ",
"JJJJ$panOjnd%kDZVZVVVVVV6NNN##@@%%$%ggk,CCVCVVMMCC5885X:oJJJJJJJ",
"JJJJ$iaan#ce#lfgGGNCCCCC4VNNMMMMMngbggN<CCVCVMCC595955XX>.JJJJJJ",
"JJJJ$aaajm#e#lgkgjGCCCC4CVNMMnnmnnMMNNNN2CCVZZrr595988+8>XJJJJJJ",
"JJJJ$aajjjm&$fggkklGDCCqVVNMmMnMMNCNNNNMM2HZrprr995rpo>8>.JJJJJJ",
"JJJJ#aphjjjM@glllljkkG<HGGDZnMmMNNNNNDZDG2ziiitr95rr.>88>.JJJJJJ",
"JJJJ$pafhjjCC#jlllklln,vsjssSSAAZSSCZlssl5liitpw09p.7788:.JJJJJJ",
"JJJJJ-aasjjjAC#jllllln*cssfjffjfgfffsssfl5diieww09 >777::.JJJJJJ",
"JJJJJ$pdsjjxlVA@#llllv$xsdshjsjhffffssaaf1prt999e =::77:XJJJJJJJ",
"JJJJJJ+sajjjjv#w0<lgjz@xssajsfsshsfsaauuf<prww9  =:::77XJJJJJJJJ",
"JJJJJJJ#aajjlc#w00$jjloxahaaasshffssappas+pe   :==>>:88XJJJJJJJJ",
"JJJJJJJJ+ajjlc#00s0oo+ xassaasaasfrupppps  .>5> =>>:8>.JJJJJJJJJ",
"JJJJJJJJJXjjjc#0afs0000  XXaasahsueeuoo. 99958> =>:>8.JJJJJJJJJJ",
"JJJJJJJJJJ jxc@0assspa80000@Xoooooooo3333999>58 =>::XJJJJJJJJJJJ",
"JJJJJJJJJJJ.jc+0hhsaaaapup807X0079797uu9uw998>> =:  JJJJJJJJJJJJ",
"JJJJJJJJJJJJ   0uhaapauuuuuee;huhuuuu9uuu999888   JJJJJJJJJJJJJJ",
"JJJJJJJJJJJJJJJ.. uaauppuppee>huuuuuu9uu9999888 JJJJJJJJJJJJJJJJ",
"JJJJJJJJJJJJJJJJJJXX uuuuueee7hahhuuuu9uu999>. JJJJJJJJJJJJJJJJJ",
"JJJJJJJJJJJJJJJJJJJJJXXo eeeeohhuhuupuuu9   .JJJJJJJJJJJJJJJJJJJ",
"JJJJJJJJJJJJJJJJJJJJJJJJJ ooX xahuuu     JJJJJJJJJJJJJJJJJJJJJJJ",
"JJJJJJJJJJJJJJJJJJJJJJJJJJJJJJ. oo XJJJJJJJJJJJJJJJJJJJJJJJJJJJJ",
"JJJJJJJJJJJJJJJJJJJJJJJJJJJJJJJJJJJJJJJJJJJJJJJJJJJJJJJJJJJJJJJJ",
"JJJJJJJJJJJJJJJJJJJJJJJJJJJJJJJJJJJJJJJJJJJJJJJJJJJJJJJJJJJJJJJJ",
"JJJJJJJJJJJJJJJJJJJJJJJJJJJJJJJJJJJJJJJJJJJJJJJJJJJJJJJJJJJJJJJJ",
"JJJJJJJJJJJJJJJJJJJJJJJJJJJJJJJJJJJJJJJJJJJJJJJJJJJJJJJJJJJJJJJJ",
"JJJJJJJJJJJJJJJJJJJJJJJJJJJJJJJJJJJJJJJJJJJJJJJJJJJJJJJJJJJJJJJJ",
"JJJJJJJJJJJJJJJJJJJJJJJJJJJJJJJJJJJJJJJJJJJJJJJJJJJJJJJJJJJJJJJJ",
"JJJJJJJJJJJJJJJJJJJJJJJJJJJJJJJJJJJJJJJJJJJJJJJJJJJJJJJJJJJJJJJJ",
"JJJJJJJJJJJJJJJJJJJJJJJJJJJJJJJJJJJJJJJJJJJJJJJJJJJJJJJJJJJJJJJJ",
"JJJJJJJJJJJJJJJJJJJJJJJJJJJJJJJJJJJJJJJJJJJJJJJJJJJJJJJJJJJJJJJJ"
};
