/* XPM */
static char *result[] = {
/* columns rows colors chars-per-pixel */
"64 64 12 1 ",
"  c #040404",
". c #661904",
"X c #E1302D",
"o c #8C4608",
"O c #B2860C",
"+ c #C38846",
"@ c #FFD658",
"# c blue",
"$ c #7B96FF",
"% c #FFCC9D",
"& c #ECECEC",
"* c None",
/* pixels */
"****************************************************************",
"****************************************************************",
"****************************************************************",
"****************************************************************",
"****************************************************************",
"****************************************************************",
"****************************************************************",
"****************************************************************",
"****************************************************************",
"****************************************************************",
"****************************************************************",
"****************************************************************",
"****************************************************************",
"**************************          ****************************",
"***********************   ooOOOOooo.  **************************",
"********************** .&&@O.....oooo.  ************************",
"********************** .&&@O.....oooo.  ************************",
"********************  .@@@..XXXXX         **********************",
"******************* ..O...XX     oooOOOOOo   *******************",
"******************* oo.XXX  oOO@@@@@@OOOOOOOo ******************",
"****************** ...X   o@&@@OOoooooooooooOO *****************",
"****************** ...X   o@&@@OOoooooooooooOO *****************",
"****************** .   o@@@oooo....     ....ooo  ***************",
"******************  ooOOooo....             .oo  ***************",
"****************** oOOoo....       oo        . *****************",
"****************** oOOoo....       oo        . *****************",
"***************** oOoo....      o+++++oo o       ***************",
"***************** Oo....     oo+%%%%%+    oo   *****************",
"***************  oo....         o++%%%%%+o    ******************",
"***************  oo...     o+++%%%%%%+   o    ******************",
"***************  oo...     o+++%%%%%%+   o    ******************",
"***************  o..      o++oo  %%%%o&&%o  * ******************",
"***************  o        o+o++&&%%%%+  o+  ********************",
"***************** o...     ++&& o%%%%+   +  ********************",
"***************** o...     ++&& o%%%%+   +  ********************",
"******************  ..  oo +%&&  %%%%%&&&+  ********************",
"********************   o%% +%%%&&%%%%%%%oo  ********************",
"********************   o++%++%%    %%%%%+o  ********************",
"**********************  oo+o+  o+%% %%++o **********************",
"**********************  oo+o+  o+%% %%++o **********************",
"************************    ooo%%%%+ o   ***********************",
"************************** o ++%%%%+  **************************",
"************************  o% oo%%++ ****************************",
"************************  o% oo%%++ ****************************",
"************************  o+%  %+    ***************************",
"************************   o+%%+ &&o ***************************",
"************************  oo ++ XooXo **************************",
"************************  ooo  X &&o  **************************",
"************************  ooo  X &&o  **************************",
"*****************  *****   oooooo   $#  ************************",
"***************  Oo *** $$$$     $$##&## ***   *****************",
"************** OO..+   &$$##$$$# $$$& ++ *  .o.  ***************",
"************* O..++%%%+ &&#$$   *    +%%% %%oOO.. **************",
"************* O..++%%%+ &&#$$   *    +%%% %%oOO.. **************",
"************* o++%% ++%+  #  ********   +%..ooo  ***************",
"************** ++o *    ** ************* +ooOO *****************",
"***************   ********************** oooo ******************",
"***************   ********************** oooo ******************",
"*****************************************    *******************",
"****************************************************************",
"****************************************************************",
"****************************************************************",
"****************************************************************",
"****************************************************************"
};
