/* XPM */
static char *result[] = {
/* columns rows colors chars-per-pixel */
"64 64 13 1 ",
"  c #040404",
". c #661904",
"X c #B20C0C",
"o c #E1302D",
"O c #8C4608",
"+ c #B2860C",
"@ c #C38846",
"# c #FFD658",
"$ c blue",
"% c #7B96FF",
"& c #FFCC9D",
"* c #ECECEC",
"= c None",
/* pixels */
"================================================================",
"================================================================",
"================================================================",
"========================           =============================",
"======================  OO+#++++O..  ===========================",
"====================  O+##**#++O+OO.. ==========================",
"=================== OO+#***##+++O..O..  ========================",
"=================== OO+#***##+++O..O..  ========================",
"=================== ++##**##+++++OO. .  ========================",
"================== O+++####+#+++O++O. .. =======================",
"=================   OO++##+#+++++OO. .    ======================",
"=================   OO++##+#+++++OO. .    ======================",
"==============   O o  O++++++OO+O..O. XX .   ===================",
"============= O+++ oXX  OO++O++OOOO  XXX .... ==================",
"============ O++++O oooX           XXX  ....O. =================",
"============ O#++++ XXooooooooooXooXXX  ..OOO. =================",
"============ O#++++ XXooooooooooXooXXX  ..OOO. =================",
"============ O###++O   XoooooooXoXXX  ...OOOO. =================",
"============= O**#++++O             ..OOO+OO. ==================",
"============== OO*##++++OOOOOOOOOOOOOO+++O.. ===================",
"===============   O+###+++++++++++++++OOO   ====================",
"===============   O+###+++++++++++++++OOO   ====================",
"==================  OO+######++#++++OO   =======================",
"================== &    ..OOOOOOO..   && =======================",
"================== @                  @@ =======================",
"================== @                  @@ =======================",
"================== O@@               @OO =======================",
"===================   O             O   ========================",
"======================    O  @@ O    ===========================",
"=======================             ============================",
"=======================             ============================",
"====================== @  XooXXXX  @ ===========================",
"====================  O&  oooooXX  &O ==========================",
"====================  @ XXooooooXXX @ ==========================",
"====================  @ XXooooooXXX @ ==========================",
"===================   & XXooooooXXX &   ========================",
"================== @&&@   XooXXXX   @&@@ =======================",
"================== &**@ %%       %% @*&& =======================",
"================== @&& %%%$$$%%$$%%% &@@ =======================",
"================== @&& %%%$$$%%$$%%% &@@ =======================",
"===================    *$$%$%%%%%$$*    ========================",
"=================== OO@ ***$   $*** @O  ========================",
"=================== @@& @@  ===  @@ &@  ========================",
"=================== @@& @@  ===  @@ &@  ========================",
"=================== OO@O&& ===== &&O@O  ========================",
"====================  O@OO ===== OO@O ==========================",
"======================    =======    ===========================",
"================================================================",
"================================================================",
"================================================================",
"================================================================",
"================================================================",
"================================================================",
"================================================================",
"================================================================",
"================================================================",
"================================================================",
"================================================================",
"================================================================",
"================================================================",
"================================================================",
"================================================================",
"================================================================",
"================================================================"
};
