/* XPM */
static char *result[] = {
/* columns rows colors chars-per-pixel */
"64 64 13 1 ",
"  c #040404",
". c #661904",
"X c #B20C0C",
"o c #E1302D",
"O c #8C4608",
"+ c #B2860C",
"@ c #C38846",
"# c #FFD658",
"$ c blue",
"% c #7B96FF",
"& c #FFCC9D",
"* c #ECECEC",
"= c None",
/* pixels */
"================================================================",
"================================================================",
"================================================================",
"================================================================",
"================================================================",
"================================================================",
"================================================================",
"================================================================",
"================================================================",
"===========================          ===========================",
"========================   O#**#+++O.   ========================",
"========================   O#**#+++O.   ========================",
"======================= OO+####++OOOOO.. =======================",
"====================== O++            ... ======================",
"======================    O+########+O    ======================",
"===================   +#***#++++++++#+##+O   ===================",
"===================   +#***#++++++++#+##+O   ===================",
"================== O##*#OO............OOO+++O ==================",
"================= O#++O.....         .......+O =================",
"===============  O#+OO.         O        ....+O  ===============",
"===============  +O          OO@@@@O  ..     .+  ===============",
"===============  +O          OO@@@@O  ..     .+  ===============",
"==============         .    O@@&&&&@O          ++ ==============",
"============== ++O.   .   O@@&&&&&&&@O      ...++ ==============",
"============== OOO..    OO   @@&&@@   OO      .++ ==============",
"============== OOO..    OO   @@&&@@   OO      .++ ==============",
"===============        OOO@&&&&&&&&&&@OO     .+  ===============",
"================= .     @@O  &&&&&&  O@@       =================",
"==================     OOO@**&&&&&&**@OO     ===================",
"===================     @@*O &&&&&&O *@@      ==================",
"===================     @@*O &&&&&&O *@@      ==================",
"====================  & @@*  &&&&&&  &   @@@ ===================",
"====================  @ @@&**&&&&&&** &&O&&&@ ==================",
"====================  O@OO@&&&&&&&&@O @@O&&&& ==================",
"====================  O@OO@&&&&&&&&@O @@O&&&& ==================",
"======================    O@&&&&&&&&@O  @@&&& ==================",
"========================   OO@@@@@@OO    O&&@ ==================",
"======================= OO@          @&&@O&&@ ==================",
"======================= OO& Xoo**XXX O@@&&@@ ===================",
"======================= OO& Xoo**XXX O@@&&@@ ===================",
"========================  O XooXXooXX       ====================",
"========================== XXoo**ooXX ==========================",
"========================== %%  XoooXX ==========================",
"========================== %%  XoooXX ==========================",
"========================  %**%% *XXX  ==========================",
"====================       O **%    %%  ========================",
"=================== ..++OO &@%%$%%%$$%  ========================",
"=================== ++.....O     %%%$ @@ =======================",
"=================== ++.....O     %%%$ @@ =======================",
"=================== ..O+++O =====    @&& =======================",
"====================  +..... ========   ========================",
"====================== .+++ ====================================",
"=======================    =====================================",
"=======================    =====================================",
"================================================================",
"================================================================",
"================================================================",
"================================================================",
"================================================================",
"================================================================",
"================================================================",
"================================================================",
"================================================================",
"================================================================"
};
