/* XPM */
static char *result[] = {
/* columns rows colors chars-per-pixel */
"64 64 199 2 ",
"   c #573B17",
".  c #573C17",
"X  c #583A17",
"o  c #583B17",
"O  c #583C17",
"+  c #593C17",
"@  c #5A3D17",
"#  c #593E17",
"$  c #5A3E17",
"%  c #5B3F17",
"&  c #593E18",
"*  c #5A3F18",
"=  c #5B4218",
"-  c #5B4318",
";  c #5C4118",
":  c #5B4518",
">  c #5C4418",
",  c #5D4618",
"<  c #5D4719",
"1  c #5E4618",
"2  c #5F4818",
"3  c #5F4918",
"4  c #5E4819",
"5  c #5F4919",
"6  c #4C5113",
"7  c #4D5213",
"8  c #4E5213",
"9  c #4E5313",
"0  c #4F5313",
"q  c #4F5413",
"w  c #4F5414",
"e  c #505414",
"r  c #505514",
"t  c #515514",
"y  c #545714",
"u  c #5D5614",
"i  c #5E5714",
"p  c #535815",
"a  c #545814",
"s  c #555814",
"d  c #555915",
"f  c #565A15",
"g  c #5F5814",
"h  c #595D18",
"j  c #5A5D18",
"k  c #5A5E18",
"l  c #5B5E18",
"z  c #5B5F18",
"x  c #5C5F18",
"c  c #604818",
"v  c #604918",
"b  c #604A19",
"n  c #614A19",
"m  c #614B19",
"M  c #614A1A",
"N  c #614B1A",
"B  c #624A1A",
"V  c #624B1A",
"C  c #624C1A",
"Z  c #605814",
"A  c #605915",
"S  c #625B15",
"D  c #605618",
"F  c #635919",
"G  c #5B6017",
"H  c #5D6016",
"J  c #5E6017",
"K  c #5E6117",
"L  c #5C6018",
"P  c #5F6118",
"I  c #5F6218",
"U  c #626418",
"Y  c #626518",
"T  c #636518",
"R  c #626618",
"E  c #636618",
"W  c #636718",
"Q  c #626619",
"!  c #636619",
"~  c #636719",
"^  c #646718",
"/  c #646619",
"(  c #646719",
")  c #6C611A",
"_  c #6D621A",
"`  c #6D631A",
"'  c #6E631A",
"]  c #6D6619",
"[  c #646819",
"{  c #656819",
"}  c #656919",
"|  c #666919",
" . c #65691A",
".. c #66681A",
"X. c #66691A",
"o. c #67691A",
"O. c #666A1A",
"+. c #676A1A",
"@. c #676B1A",
"#. c #686A19",
"$. c #686B19",
"%. c #696B19",
"&. c #686A1A",
"*. c #696B1A",
"=. c #696C19",
"-. c #686C1A",
";. c #696C1A",
":. c #6A6C1A",
">. c #6A6D1A",
",. c #6A6D1B",
"<. c #6B6D1B",
"1. c #6B6E1B",
"2. c #6C6E1B",
"3. c #6C6F1B",
"4. c #6D6F1B",
"5. c #75691A",
"6. c #76691A",
"7. c #756A1A",
"8. c #6D701B",
"9. c #6E701B",
"0. c #6E711B",
"q. c #6F711B",
"w. c #6E711C",
"e. c #6F711C",
"r. c #6F721C",
"t. c #70721C",
"y. c #71731C",
"u. c #71721D",
"i. c #71731D",
"p. c #71721E",
"a. c #71731E",
"s. c #73731E",
"d. c #72741E",
"f. c #73741E",
"g. c #73751E",
"h. c #73741F",
"j. c #74741E",
"k. c #74751E",
"l. c #74751F",
"z. c #75751F",
"x. c #74761E",
"c. c #74761F",
"v. c #77771F",
"b. c #7B701C",
"n. c #7B701D",
"m. c #7D711D",
"M. c #78781F",
"N. c #78791F",
"B. c #787820",
"V. c #787920",
"C. c #797920",
"Z. c #7A7921",
"A. c #7A7A20",
"S. c #7A7A21",
"D. c #7B7A21",
"F. c #7B7B21",
"G. c #7B7B22",
"H. c #7C7B22",
"J. c #7C7C22",
"K. c #7D7C22",
"L. c #7D7D22",
"P. c #7E7D22",
"I. c #7E7E22",
"U. c #7F7E22",
"Y. c #7F7E23",
"T. c #7F7F23",
"R. c #7F7D27",
"E. c #807F23",
"W. c #807D27",
"Q. c #807E27",
"!. c #807E28",
"~. c #818023",
"^. c #84812C",
"/. c #85812D",
"(. c #84822C",
"). c #85822C",
"_. c #85822D",
"`. c #86822C",
"'. c #86822D",
"]. c #85812F",
"[. c #86812F",
"{. c #86822F",
"}. c #87822F",
"|. c #87832F",
" X c #88832F",
".X c #88842F",
"XX c #89842F",
"oX c #878231",
"OX c #878331",
"+X c #888331",
"@X c #888431",
"#X c #898431",
"$X c #898531",
"%X c #898532",
"&X c #8A8532",
"*X c #8A8632",
"=X c #8B8632",
"-X c #8B8732",
";X c None",
/* pixels */
";X;X;X;X;X;X;X;X;X;X;X;X;X;X;X;X;X;X;X;X;X;X;X;X;X;X;X;X;X;X;X;X;X;X;X;X;X;X;X;X;X;X;X;X;X;X;X;X;X;X;X;X;X;X;X;X;X;X;X;X;X;X;X;X",
";X;X;X;X;X;X;X;X;X;X;X;X;X;X;X;X;X;X;X;X;X;X;X;X;X;X;X;X;X;X;X;X;X;X;X;X;X;X;X;X;X;X;X;X;X;X;X;X;X;X;X;X;X;X;X;X;X;X;X;X;X;X;X;X",
";X;X;X;X;X;X;X;X;X;X;X;X;X;X;X;X;X;X;X;X;X;X;X;X;X;X;X;X;X;X;X;X;X;X;X;X;X;X;X;X;X;X;X;X;X;X;X;X;X;X;X;X;X;X;X;X;X;X;X;X;X;X;X;X",
";X;X;X;X;X;X;X;X;X;X;X;X;X;X;X;X;X;X;X;X;X;X;X;X;X;X;X;X;X;X;X;X;X;X;X;X;X;X;X;X;X;X;X;X;X;X;X;X;X;X;X;X;X;X;X;X;X;X;X;X;X;X;X;X",
";X;X;X;X;X;X;X;X;X;X;X;X;X;X;X;X;X;X;X;X;X;X;X;X;X;X;X;X;X;X;X;X;X;X;X;X;X;X;X;X;X;X;X;X;X;X;X;X;X;X;X;X;X;X;X;X;X;X;X;X;X;X;X;X",
";X;X;X;X;X;X;X;X;X;X;X;X;X;X;X;X;X;X;X;X;X;X;X;X;X;X;X;X;X;X;X;X;X;X;X;X;X;X;X;X;X;X;X;X;X;X;X;X;X;X;X;X;X;X;X;X;X;X;X;X;X;X;X;X",
";X;X;X;X;X;X;X;X;X;X;X;X;X;X;X;X;X;X;X;X;X;X;X;X;X;X;X;X;X;X;X;X;X;X;X;X;X;X;X;X;X;X;X;X;X;X;X;X;X;X;X;X;X;X;X;X;X;X;X;X;X;X;X;X",
";X;X;X;X;X;X;X;X;X;X;X;X;X;X;X;X;X;X;X;X;X;X;X;X;X;X;X;X;X;X;X;X;X;X;X;X;X;X;X;X;X;X;X;X;X;X;X;X;X;X;X;X;X;X;X;X;X;X;X;X;X;X;X;X",
";X;X;X;X;X;X;X;X;X;X;X;X;X;X;X;X;X;X;X;X;X;X;X;X;X;X;X;X;X;X;X;X;X;X;X;X;X;X;X;X;X;X;X;X;X;X;X;X;X;X;X;X;X;X;X;X;X;X;X;X;X;X;X;X",
";X;X;X;X;X;X;X;X;X;X;X;X;X;X;X;X;X;X;X;X;X;X;X;X;X;X;X;X;X;X;X;X;X;X;X;X;X;X;X;X;X;X;X;X;X;X;X;X;X;X;X;X;X;X;X;X;X;X;X;X;X;X;X;X",
";X;X;X;X;X;X;X;X;X;X;X;X;X;X;X;X;X;X;X;X;X;X;X;X;X;X;X;X;X;X;X;X;X;X;X;X;X;X;X;X;X;X;X;X;X;X;X;X;X;X;X;X;X;X;X;X;X;X;X;X;X;X;X;X",
";X;X;X;X;X;X;X;X;X;X;X;X;X;X;X;X;X;X;X;X;X;X;X;X;X;X;X;X;X;X;X;X;X;X;X;X;X;X;X;X;X;X;X;X;X;X;X;X;X;X;X;X;X;X;X;X;X;X;X;X;X;X;X;X",
";X;X;X;X;X;X;X;X;X;X;X;X;X;X;X;X;X;X;X;X;X;X;X;X;X;X;X;X;X;X;X;X;X;X;X;X;X;X;X;X;X;X;X;X;X;X;X;X;X;X;X;X;X;X;X;X;X;X;X;X;X;X;X;X",
";X;X;X;X;X;X;X;X;X;X;X;X;X;X;X;X;X;X;X;X;X;X;X;X;X;X;X;X;X;X;X;X;X;X;X;X;X;X;X;X;X;X;X;X;X;X;X;X;X;X;X;X;X;X;X;X;X;X;X;X;X;X;X;X",
";X;X;X;X;X;X;X;X;X;X;X;X;X;X;X;X;X;X;X;X;X;X;X;X;X;X;X;X;X;X;X;X;X;X;X;X;X;X;X;X;X;X;X;X;X;X;X;X;X;X;X;X;X;X;X;X;X;X;X;X;X;X;X;X",
";X;X;X;X;X;X;X;X;X;X;X;X;X;X;X;X;X;X;X;X;X;X;X;X;X;X;X;X;X;X;X;X;X;X;X;X;X;X;X;X;X;X;X;X;X;X;X;X;X;X;X;X;X;X;X;X;X;X;X;X;X;X;X;X",
";X;X;X;X;X;X;X;X;X;X;X;X;X;X;X;X;X;X;X;X;X;X;X;X;X;X;X;X;XM M ;X;X;X;X;X;X;X;X;X;X;X;X;X;X;X;X;X;X;X;X;X;X;X;X;X;X;X;X;X;X;X;X;X",
";X;X;X;X;X;X;X;X;X;X;X;X;X;X;X;X;X;X;X;X;X;X;X;X;X;X;XB V OXOXOXV ;X;X;X;X;X;X;X;X;X;X;X;X;X;X;X;X;X;X;X;X;X;X;X;X;X;X;X;X;X;X;X",
";X;X;X;X;X;X;X;X;X;X;X;X;X;X;X;X;X;X;X;X;X;X;X;X;X;XV OX+X+X+XOXC N M ;X;X;X;X;X;X;X;X;X;X;X;X;X;X;X;X;X;X;X;X;X;X;X;X;X;X;X;X;X",
";X;X;X;X;X;X;X;X;X;X;X;X;X;X;X;X;X;X;X;X;X;X;XV ^.(.@X@X@Xv.v.P.P.+X+Xm ;X;X;X;X;X;X;X;X;X;X;X;X;X;X;X;X;X;X;X;X;X;X;X;X;X;X;X;X",
";X;X;X;X;X;X;X;X;X;X;X;X;X;X;X;X;X;X;X;X;X;X;XC (.).9.#X$XM.P.I.I.@X@X%.OXOXoXb ;X;X;X;X;X;X;X;X;X;X;X;X;X;X;X;X;X;X;X;X;X;X;X;X",
";X;X;X;X;X;X;X;X;X;X;X;X;X;X;X;X;X;X;X;X;X;X;X;X`.#X9.0.%X%X%XU.U.I.=.#.+XOXOXOX;X;X;X;X;X;X;X;X;X;X;X;X;X;X;X;X;X;X;X;X;X;X;X;X",
";X;X;X;X;X;X;X;X;X;X;X;X;X;X;X;X;X;X;X;X;XN v.B.C.n.&X&Xt.*X*XT.&X$X#X$.%.L.K.J.N m b ;X;X;X;X;X;X;X;X;X;X;X;X;X;X;X;X;X;X;X;X;X",
";X;X;X;X;X;X;X;X;X;X;X;X;X;X;X;X;X;X;X;X;XN v.V.b.%X&X*XE.*X*XE._ %X) =.@X@XK.J.Q.W.R.b ;X;X;X;X;X;X;X;X;X;X;X;X;X;X;X;X;X;X;X;X",
";X;X;X;X;X;X;X;X;X;X;X;X;X;X;X;X;X;X;X;Xm 4.V.C.&X*X*X*Xm.~.~.t.r.V._ #X@X@XL.K.Q.!.R.5 ;X;X;X;X;X;X;X;X;X;X;X;X;X;X;X;X;X;X;X;X",
";X;X;X;X;X;X;X;X;X;X;X;X;X;X;X;X;X;X;Xn 9.9.9.%X&X*X=X=Xm.t.y.t.t.C.B.$X@XL.L.K.1.Q.5 ;X;X;X;X;X;X;X;X;X;X;X;X;X;X;X;X;X;X;X;X;X",
";X;X;X;X;X;X;X;X;X;X;X;X;X;X;X;X;X3 H.K.L.0.$X%XE.E.~.=X-Xt.y.A.C.E.T.q.@X@XOX8.1.1.,.5 ;X;X;X;X;X;X;X;X;X;X;X;X;X;X;X;X;X;X;X;X",
";X;X;X;X;X;X;X;X;X;X;X;X;X;X;X;X;Xv H.K.+.@.-.T.E.E.~.~.~.t.C.A.E.E.T.9.@X@XOXK.1.1.c.x.5 ;X;X;X;X;X;X;X;X;X;X;X;X;X;X;X;X;X;X;X",
";X;X;X;X;X;X;X;X;X;X;X;X;X;X;X;X;X;Xb X.+. XXXT.E.t.t.M.N.X.X.t.t.&X%X#XP.L.K.J.G K c.x.4 ;X;X;X;X;X;X;X;X;X;X;X;X;X;X;X;X;X;X;X",
";X;X;X;X;X;X;X;X;X;X;X;X;X;X;X;X;X;Xb j.|.|.U.Y.E.E.X.X.N.&.&.&.E.Y.U.#X@X+X2.1.H g k.s.4 ;X;X;X;X;X;X;X;X;X;X;X;X;X;X;X;X;X;X;X",
";X;X;X;X;X;X;X;X;X;X;X;X;X;X;X;X;X2 s.j.}.|.5.7.E.E.t.+.&.+.t.r.E.%X$X@X+XOX2.1.<.k g g S.< ;X;X;X;X;X;X;X;X;X;X;X;X;X;X;X;X;X;X",
";X;X;X;X;X;X;X;X;X;X;X;X;X;X;X;X;X;Xc f.O.). X.X5.6.e.r.&.r.E.T.Y.$X#X4.K.K.J.<.,.z :.;.S.S., ;X;X;X;X;X;X;X;X;X;X;X;X;X;X;X;X;X",
";X;X;X;X;X;X;X;X;X;X;X;X;X;X;X;X;X;X;X .O./. X Xw.e.e.o.o.*X&X%XU.' ` 3.F J.H.<.z z ;.;.S.Z.: ;X;X;X;X;X;X;X;X;X;X;X;X;X;X;X;X;X",
";X;X;X;X;X;X;X;X;X;X;X;X;X;X;X;X;X1 ].[.{.}._.'.I.| X.X.t.$X$Xq.0.4.t r 1.1.p p z x ;.;.*.;X;X;X;X;X;X;X;X;X;X;X;X;X;X;X;X;X;X;X",
";X;X;X;X;X;X;X;X;X;X;X;X;X;X;X;X;XD.F.].[.( L.L.P.} ....q.q.q.8.P.L.t e 1.<.p p D.S.;.;.> ;X;X;X;X;X;X;X;X;X;X;X;X;X;X;X;X;X;X;X",
";X;X;X;X;X;X;X;X;X;X;X;X;X;X;X;X;X- D.G.Q Q ! / [ { S P P S S 4.L.K.J.A x z z p S.S.;.g.d.;X;X;X;X;X;X;X;X;X;X;X;X;X;X;X;X;X;X;X",
";X;X;X;X;X;X;X;X;X;X;X;X;X;X;X;X;X;X= >.,.<.w ~ ( ( f I I f z.2.2.] ] a.L x l 7 D D i u d.;X;X;X;X;X;X;X;X;X;X;X;X;X;X;X;X;X;X;X",
";X;X;X;X;X;X;X;X;X;X;X;X;X;X;X;X;X;X;X>.>.0 q w ~ A f P J d.l.d.l.<.a.i.z ;.z 7 i i 6 6 & ;X;X;X;X;X;X;X;X;X;X;X;X;X;X;X;X;X;X;X",
";X;X;X;X;X;X;X;X;X;X;X;X;X;X;X;X;X;X;X* 9 9 g g Z s d d d d p.h.0 i.i.u.7 ;.;.;.j h 6 # ;X;X;X;X;X;X;X;X;X;X;X;X;X;X;X;X;X;X;X;X",
";X;X;X;X;X;X;X;X;X;X;X;X;X;X;X;X;X;X;X;X7 8 ; g a a T ^ s s a 9 9 9 u.7 7 ;.;.;.h h k + ;X;X;X;X;X;X;X;X;X;X;X;X;X;X;X;X;X;X;X;X",
";X;X;X;X;X;X;X;X;X;X;X;X;X;X;X;X;X;X;X;X;X;X;X;X% R Y E 9 9 a l a k k k ;X;Xk k . ;X;X;X;X;X;X;X;X;X;X;X;X;X;X;X;X;X;X;X;X;X;X;X",
";X;X;X;X;X;X;X;X;X;X;X;X;X;X;X;X;X;X;X;X;X;X;X;X$ U W 8 @ 7 y + k k k k ;X;X    ;X;X;X;X;X;X;X;X;X;X;X;X;X;X;X;X;X;X;X;X;X;X;X;X",
";X;X;X;X;X;X;X;X;X;X;X;X;X;X;X;X;X;X;X;X;X;X;X;X;X;XO O ;X;X;X;X;XX o ;X;X;X;X;X;X;X;X;X;X;X;X;X;X;X;X;X;X;X;X;X;X;X;X;X;X;X;X;X",
";X;X;X;X;X;X;X;X;X;X;X;X;X;X;X;X;X;X;X;X;X;X;X;X;X;X;X;X;X;X;X;X;X;X;X;X;X;X;X;X;X;X;X;X;X;X;X;X;X;X;X;X;X;X;X;X;X;X;X;X;X;X;X;X",
";X;X;X;X;X;X;X;X;X;X;X;X;X;X;X;X;X;X;X;X;X;X;X;X;X;X;X;X;X;X;X;X;X;X;X;X;X;X;X;X;X;X;X;X;X;X;X;X;X;X;X;X;X;X;X;X;X;X;X;X;X;X;X;X",
";X;X;X;X;X;X;X;X;X;X;X;X;X;X;X;X;X;X;X;X;X;X;X;X;X;X;X;X;X;X;X;X;X;X;X;X;X;X;X;X;X;X;X;X;X;X;X;X;X;X;X;X;X;X;X;X;X;X;X;X;X;X;X;X",
";X;X;X;X;X;X;X;X;X;X;X;X;X;X;X;X;X;X;X;X;X;X;X;X;X;X;X;X;X;X;X;X;X;X;X;X;X;X;X;X;X;X;X;X;X;X;X;X;X;X;X;X;X;X;X;X;X;X;X;X;X;X;X;X",
";X;X;X;X;X;X;X;X;X;X;X;X;X;X;X;X;X;X;X;X;X;X;X;X;X;X;X;X;X;X;X;X;X;X;X;X;X;X;X;X;X;X;X;X;X;X;X;X;X;X;X;X;X;X;X;X;X;X;X;X;X;X;X;X",
";X;X;X;X;X;X;X;X;X;X;X;X;X;X;X;X;X;X;X;X;X;X;X;X;X;X;X;X;X;X;X;X;X;X;X;X;X;X;X;X;X;X;X;X;X;X;X;X;X;X;X;X;X;X;X;X;X;X;X;X;X;X;X;X",
";X;X;X;X;X;X;X;X;X;X;X;X;X;X;X;X;X;X;X;X;X;X;X;X;X;X;X;X;X;X;X;X;X;X;X;X;X;X;X;X;X;X;X;X;X;X;X;X;X;X;X;X;X;X;X;X;X;X;X;X;X;X;X;X",
";X;X;X;X;X;X;X;X;X;X;X;X;X;X;X;X;X;X;X;X;X;X;X;X;X;X;X;X;X;X;X;X;X;X;X;X;X;X;X;X;X;X;X;X;X;X;X;X;X;X;X;X;X;X;X;X;X;X;X;X;X;X;X;X",
";X;X;X;X;X;X;X;X;X;X;X;X;X;X;X;X;X;X;X;X;X;X;X;X;X;X;X;X;X;X;X;X;X;X;X;X;X;X;X;X;X;X;X;X;X;X;X;X;X;X;X;X;X;X;X;X;X;X;X;X;X;X;X;X",
";X;X;X;X;X;X;X;X;X;X;X;X;X;X;X;X;X;X;X;X;X;X;X;X;X;X;X;X;X;X;X;X;X;X;X;X;X;X;X;X;X;X;X;X;X;X;X;X;X;X;X;X;X;X;X;X;X;X;X;X;X;X;X;X",
";X;X;X;X;X;X;X;X;X;X;X;X;X;X;X;X;X;X;X;X;X;X;X;X;X;X;X;X;X;X;X;X;X;X;X;X;X;X;X;X;X;X;X;X;X;X;X;X;X;X;X;X;X;X;X;X;X;X;X;X;X;X;X;X",
";X;X;X;X;X;X;X;X;X;X;X;X;X;X;X;X;X;X;X;X;X;X;X;X;X;X;X;X;X;X;X;X;X;X;X;X;X;X;X;X;X;X;X;X;X;X;X;X;X;X;X;X;X;X;X;X;X;X;X;X;X;X;X;X",
";X;X;X;X;X;X;X;X;X;X;X;X;X;X;X;X;X;X;X;X;X;X;X;X;X;X;X;X;X;X;X;X;X;X;X;X;X;X;X;X;X;X;X;X;X;X;X;X;X;X;X;X;X;X;X;X;X;X;X;X;X;X;X;X",
";X;X;X;X;X;X;X;X;X;X;X;X;X;X;X;X;X;X;X;X;X;X;X;X;X;X;X;X;X;X;X;X;X;X;X;X;X;X;X;X;X;X;X;X;X;X;X;X;X;X;X;X;X;X;X;X;X;X;X;X;X;X;X;X",
";X;X;X;X;X;X;X;X;X;X;X;X;X;X;X;X;X;X;X;X;X;X;X;X;X;X;X;X;X;X;X;X;X;X;X;X;X;X;X;X;X;X;X;X;X;X;X;X;X;X;X;X;X;X;X;X;X;X;X;X;X;X;X;X",
";X;X;X;X;X;X;X;X;X;X;X;X;X;X;X;X;X;X;X;X;X;X;X;X;X;X;X;X;X;X;X;X;X;X;X;X;X;X;X;X;X;X;X;X;X;X;X;X;X;X;X;X;X;X;X;X;X;X;X;X;X;X;X;X",
";X;X;X;X;X;X;X;X;X;X;X;X;X;X;X;X;X;X;X;X;X;X;X;X;X;X;X;X;X;X;X;X;X;X;X;X;X;X;X;X;X;X;X;X;X;X;X;X;X;X;X;X;X;X;X;X;X;X;X;X;X;X;X;X",
";X;X;X;X;X;X;X;X;X;X;X;X;X;X;X;X;X;X;X;X;X;X;X;X;X;X;X;X;X;X;X;X;X;X;X;X;X;X;X;X;X;X;X;X;X;X;X;X;X;X;X;X;X;X;X;X;X;X;X;X;X;X;X;X",
";X;X;X;X;X;X;X;X;X;X;X;X;X;X;X;X;X;X;X;X;X;X;X;X;X;X;X;X;X;X;X;X;X;X;X;X;X;X;X;X;X;X;X;X;X;X;X;X;X;X;X;X;X;X;X;X;X;X;X;X;X;X;X;X",
";X;X;X;X;X;X;X;X;X;X;X;X;X;X;X;X;X;X;X;X;X;X;X;X;X;X;X;X;X;X;X;X;X;X;X;X;X;X;X;X;X;X;X;X;X;X;X;X;X;X;X;X;X;X;X;X;X;X;X;X;X;X;X;X",
";X;X;X;X;X;X;X;X;X;X;X;X;X;X;X;X;X;X;X;X;X;X;X;X;X;X;X;X;X;X;X;X;X;X;X;X;X;X;X;X;X;X;X;X;X;X;X;X;X;X;X;X;X;X;X;X;X;X;X;X;X;X;X;X"
};
