/* XPM */
static char *result[] = {
/* columns rows colors chars-per-pixel */
"64 64 124 2 ",
"   c #4F2913",
".  c #502B15",
"X  c #55321E",
"o  c #563420",
"O  c #563521",
"+  c #573521",
"@  c #573622",
"#  c #573623",
"$  c #583724",
"%  c #593926",
"&  c #5A3B28",
"*  c #5C3E2B",
"=  c #57483E",
"-  c #5A4A3D",
";  c #5C5045",
":  c #5D5046",
">  c #61584E",
",  c #62584F",
"<  c #615951",
"1  c #625A52",
"2  c #655D52",
"3  c #665C52",
"4  c #665D53",
"5  c #645C54",
"6  c #665F54",
"7  c #6B6257",
"8  c #686158",
"9  c #696359",
"0  c #6A6359",
"q  c #6A645A",
"w  c #6B645A",
"e  c #6C665E",
"r  c #6D665E",
"t  c #70695F",
"y  c #716B61",
"u  c #716B63",
"i  c #726B63",
"p  c #736E65",
"a  c #746F66",
"s  c #746F67",
"d  c #756F67",
"f  c #757168",
"g  c #767168",
"h  c #767269",
"j  c #777269",
"k  c #7B7569",
"l  c #78746B",
"z  c #78756B",
"x  c #7B756A",
"c  c #7B766A",
"v  c #7B766B",
"b  c #7C756A",
"n  c #7C766B",
"m  c #79756C",
"M  c #7B776C",
"N  c #7A766D",
"B  c #7C776C",
"V  c #7B786E",
"C  c #7C786C",
"Z  c #7D786C",
"A  c #7D786D",
"S  c #7D796D",
"D  c #7E786D",
"F  c #7D7A6E",
"G  c #7D7A70",
"H  c #7F7B70",
"J  c #7F7C71",
"K  c #7F7D71",
"L  c #807C70",
"P  c #807C71",
"I  c #807D71",
"U  c #817D71",
"Y  c #807D72",
"T  c #817D72",
"R  c #817E72",
"E  c #817E73",
"W  c #827F74",
"Q  c #828074",
"!  c #838074",
"~  c #828075",
"^  c #838075",
"/  c #838176",
"(  c #838077",
")  c #848076",
"_  c #848176",
"`  c #848177",
"'  c #848276",
"]  c #848277",
"[  c #858277",
"{  c #848078",
"}  c #848178",
"|  c #858378",
" . c #858279",
".. c #868379",
"X. c #878479",
"o. c #87847A",
"O. c #87857A",
"+. c #88857A",
"@. c #88857B",
"#. c #88867C",
"$. c #89867C",
"%. c #89877D",
"&. c #8A877D",
"*. c #8A887E",
"=. c #8C8A81",
"-. c #8D8B82",
";. c #8E8C83",
":. c #8F8D84",
">. c #908E85",
",. c #908E86",
"<. c #918F86",
"1. c #918F87",
"2. c #929087",
"3. c #929088",
"4. c #939188",
"5. c #939189",
"6. c #94928A",
"7. c #94928B",
"8. c #95928B",
"9. c #95938B",
"0. c #95938D",
"q. c #96948D",
"w. c #96948E",
"e. c None",
/* pixels */
"e.e.e.e.e.e.e.e.e.e.e.e.e.e.e.e.e.e.e.e.e.e.e.e.e.e.e.e.e.e.e.e.e.e.e.e.e.e.e.e.e.e.e.e.e.e.e.e.e.e.e.e.e.e.e.e.e.e.e.e.e.e.e.e.",
"e.e.e.e.e.e.e.e.e.e.e.e.e.e.e.e.e.e.e.e.e.e.e.e.e.e.e.e.e.e.e.e.e.e.e.e.e.e.e.e.e.e.e.e.e.e.e.e.e.e.e.e.e.e.e.e.e.e.e.e.e.e.e.e.",
"e.e.e.e.e.e.e.e.e.e.e.e.e.e.e.e.e.e.e.e.e.e.e.e.e.e.e.e.e.e.e.e.e.e.e.e.e.e.e.e.e.e.e.e.e.e.e.e.e.e.e.e.e.e.e.e.e.e.e.e.e.e.e.e.",
"e.e.e.e.e.e.e.e.e.e.e.e.e.e.e.e.e.e.e.e.e.e.e.e.e.e.e.e.e.e.e.e.e.e.e.e.e.e.e.e.e.e.e.e.e.e.e.e.e.e.e.e.e.e.e.e.e.e.e.e.e.e.e.e.",
"e.e.e.e.e.e.e.e.e.e.e.e.e.e.e.e.e.e.e.e.e.e.e.e.e.e.e.e.e.e.e.e.e.e.e.e.e.e.e.e.e.e.e.e.e.e.e.e.e.e.e.e.e.e.e.e.e.e.e.e.e.e.e.e.",
"e.e.e.e.e.e.e.e.e.e.e.e.e.e.e.e.e.e.e.e.e.e.e.e.e.e.e.e.e.e.e.e.e.e.e.e.e.e.e.e.e.e.e.e.e.e.e.e.e.e.e.e.e.e.e.e.e.e.e.e.e.e.e.e.",
"e.e.e.e.e.e.e.e.e.e.e.e.e.e.e.e.e.e.e.e.e.e.e.e.e.e.e.e.e.e.e.e.e.e.e.e.e.e.e.e.e.e.e.e.e.e.e.e.e.e.e.e.e.e.e.e.e.e.e.e.e.e.e.e.",
"e.e.e.e.e.e.e.e.e.e.e.e.e.e.e.e.e.e.e.e.e.e.e.e.e.e.e.e.e.e.e.e.e.e.e.e.e.e.e.e.e.e.e.e.e.e.e.e.e.e.e.e.e.e.e.e.e.e.e.e.e.e.e.e.",
"e.e.e.e.e.e.e.e.e.e.e.e.e.e.e.e.e.e.e.e.e.e.e.e.e.e.e.e.e.e.e.e.e.e.e.e.e.e.e.e.e.e.e.e.e.e.e.e.e.e.e.e.e.e.e.e.e.e.e.e.e.e.e.e.",
"e.e.e.e.e.e.e.e.e.e.e.e.e.e.e.e.e.e.e.e.e.e.e.e.e.e.e.e.e.e.e.e.e.e.e.e.e.e.e.e.e.e.e.e.e.e.e.e.e.e.e.e.e.e.e.e.e.e.e.e.e.e.e.e.",
"e.e.e.e.e.e.e.e.e.e.e.e.e.e.e.e.e.e.e.e.e.e.e.e.e.e.e.e.e.e.e.e.e.e.e.e.e.e.e.e.e.e.e.e.e.e.e.e.e.e.e.e.e.e.e.e.e.e.e.e.e.e.e.e.",
"e.e.e.e.e.e.e.e.e.e.e.e.e.e.e.e.e.e.e.e.e.e.e.e.e.e.e.e.e.e.e.e.e.e.e.e.e.e.e.e.e.e.e.e.e.e.e.e.e.e.e.e.e.e.e.e.e.e.e.e.e.e.e.e.",
"e.e.e.e.e.e.e.e.e.e.e.e.e.e.e.e.e.e.e.e.e.e.e.e.e.e.e.e.e.e.e.e.e.e.e.e.e.e.e.e.e.e.e.e.e.e.e.e.e.e.e.e.e.e.e.e.e.e.e.e.e.e.e.e.",
"e.e.e.e.e.e.e.e.e.e.e.e.e.e.e.e.e.e.e.e.e.e.e.e.e.e.e.e.e.e.e.e.e.e.e.e.e.e.e.e.e.e.e.e.e.e.e.e.e.e.e.e.e.e.e.e.e.e.e.e.e.e.e.e.",
"e.e.e.e.e.e.e.e.e.e.e.e.e.e.e.e.e.e.e.e.e.e.e.e.e.e.e.e.e.e.e.e.e.e.e.e.e.e.e.e.e.e.e.e.e.e.e.e.e.e.e.e.e.e.e.e.e.e.e.e.e.e.e.e.",
"e.e.e.e.e.e.e.e.e.e.e.e.e.e.e.e.e.e.e.e.e.e.e.e.e.e.e.e.e.e.e.e.e.e.e.e.e.e.e.e.e.e.e.e.e.e.e.e.e.e.e.e.e.e.e.e.e.e.e.e.e.e.e.e.",
"e.e.e.e.e.e.e.e.e.e.e.e.e.e.e.e.e.e.e.e.e.e.e.e.e.e.e.e.e.e.e.e.e.e.e.e.e.e.e.e.e.e.e.e.e.e.e.e.e.e.e.e.e.e.e.e.e.e.e.e.e.e.e.e.",
"e.e.e.e.e.e.e.e.e.e.e.e.e.e.e.e.e.e.e.e.e.e.e.e.e.e.e.e.e.e.e.e.e.e.e.e.e.e.e.e.e.e.e.e.e.e.e.e.e.e.e.e.e.e.e.e.e.e.e.e.e.e.e.e.",
"e.e.e.e.e.e.e.e.e.e.e.e.e.e.e.e.e.e.e.e.e.e.e.e.e.e.e.e.e.e.e.e.e.e.e.e.e.e.e.e.e.e.e.e.e.e.e.e.e.e.e.e.e.e.e.e.e.e.e.e.e.e.e.e.",
"e.e.e.e.e.e.e.e.e.e.e.e.e.e.e.e.e.e.e.e.e.e.e.e.e.e.e.e.e.e.e.e.e.e.e.e.e.e.e.e.e.e.e.e.e.e.e.e.e.e.e.e.e.e.e.e.e.e.e.e.e.e.e.e.",
"e.e.e.e.e.e.e.e.e.e.e.e.e.e.e.e.e.e.e.e.e.e.e.e.e.e.e.e.e.e.e.e.e.e.e.e.e.e.e.e.e.e.e.e.e.e.e.e.e.e.e.e.e.e.e.e.e.e.e.e.e.e.e.e.",
"e.e.e.e.e.e.e.e.e.e.e.e.e.e.e.e.e.e.e.e.e.e.e.e.e.e.e.e.e.e.e.e.e.e.e.e.e.e.e.e.e.e.e.e.e.e.e.e.e.e.e.e.e.e.e.e.e.e.e.e.e.e.e.e.",
"e.e.e.e.e.e.e.e.e.e.e.e.e.e.e.e.e.e.e.e.e.e.e.e.e.e.e.e.e.e.e.e.e.e.e.e.e.e.e.e.e.e.e.e.e.e.e.e.e.e.e.e.e.e.e.e.e.e.e.e.e.e.e.e.",
"e.e.e.e.e.e.e.e.e.e.e.e.e.e.e.e.e.e.e.e.e.e.e.e.e.e.e.e.e.e.e.* * * * e.e.e.e.e.e.e.e.e.e.e.e.e.e.e.e.e.e.e.e.e.e.e.e.e.e.e.e.e.",
"e.e.e.e.e.e.e.e.e.e.e.e.e.e.e.e.e.e.e.e.e.e.e.e.e.e.e.e.e.e.* G 6.] ] e.e.e.e.e.e.e.e.e.e.e.e.e.e.e.e.e.e.e.e.e.e.e.e.e.e.e.e.e.",
"e.e.e.e.e.e.e.e.e.e.e.e.e.e.e.e.e.e.e.e.e.e.e.e.e.e.e.e.e.e.* G 6.] >.$ e.e.e.e.e.e.e.e.e.e.e.e.e.e.e.e.e.e.e.e.e.e.e.e.e.e.e.e.",
"e.e.e.e.e.e.e.e.e.e.e.e.e.e.e.e.e.e.e.e.e.e.e.e.e.e.e.e.e.* l l 5.] ] * e.e.e.e.e.e.e.e.e.e.e.e.e.e.e.e.e.e.e.e.e.e.e.e.e.e.e.e.",
"e.e.e.e.e.e.e.e.e.e.e.e.e.e.e.e.e.e.e.e.e.e.e.e.e.e.e.e.e.h h l 5.] ] * e.e.e.e.e.e.e.e.e.e.e.e.e.e.e.e.e.e.e.e.e.e.e.e.e.e.e.e.",
"e.e.e.e.e.e.e.e.e.e.e.e.e.e.e.e.e.e.e.e.e.e.e.e.e.e.e.e.e.h h N <.] ] * e.e.e.e.e.e.e.e.e.e.e.e.e.e.e.e.e.e.e.e.e.e.e.e.e.e.e.e.",
"e.e.e.e.e.e.e.e.e.e.e.e.e.e.e.e.e.e.e.e.e.e.e.e.e.e.e.e.e.f h N >.] ] * e.e.e.e.e.e.e.e.e.e.e.e.e.e.e.e.e.e.e.e.e.e.e.e.e.e.e.e.",
"e.e.e.e.e.e.e.e.e.e.e.e.e.e.e.e.e.e.e.e.* * * * * * * * e.g h N >.] ] * e.e.e.e.e.e.e.e.e.e.e.e.e.e.e.e.e.e.e.e.e.e.e.e.e.e.e.e.",
"e.e.e.e.e.e.e.e.e.e.e.e.e.e.e.e.e.e.e.8.+.O.^ ~ R R R -.=.a h N :.] ] * e.e.e.e.e.e.e.e.e.e.e.e.e.e.e.e.e.e.e.e.e.e.e.e.e.e.e.e.",
"e.e.e.e.e.e.e.e.e.e.e.e.e.e.e.e.e.e.e.9.O.O.~ ~ R R J R =.p j N :.] ] * e.e.e.e.e.e.e.e.e.e.e.e.e.e.e.e.e.e.e.e.e.e.e.e.e.e.e.e.",
"e.e.e.e.e.e.e.e.e.e.e.e.e.e.e.e.e.e.e.3.] _ ~ ~ R J J J J u s N :.] ] % e.e.e.e.e.e.e.e.e.e.e.e.e.e.e.e.e.e.e.e.e.e.e.e.e.e.e.e.",
"e.e.e.e.e.e.e.e.e.e.e.e.e.e.e.e.e.e.e.2.' _ J ~ R J J J J i m N :.] ] $ e.e.e.e.e.e.e.e.e.e.e.e.e.e.e.e.e.e.e.e.e.e.e.e.e.e.e.e.",
"e.e.e.e.e.e.e.e.e.e.e.e.e.e.e.e.e.e.e.-._ _ ~ J J J Z C c m m m ,.] ] + e.e.e.e.e.e.e.e.e.e.e.e.e.e.e.e.e.e.e.e.e.e.e.e.e.e.e.e.",
"e.e.e.e.e.e.e.e.e.e.e.e.e.e.e.e.e.e.e.-._ _ ~ J J J S C x m m m 2.] ] + e.e.e.e.e.e.e.e.e.e.e.e.e.e.e.e.e.e.e.e.e.e.e.e.e.e.e.e.",
"e.e.e.e.e.e.e.e.e.e.e.e.e.e.e.e.e.e.e.-._ _ ~ &.T K S C x m m m 6.] ] o e.e.e.e.e.e.e.e.e.e.e.e.e.e.e.e.e.e.e.e.e.e.e.e.e.e.e.e.",
"e.e.e.e.e.e.e.e.e.e.e.e.e.e.e.e.e.e.e.-._ y ~ W J J J C x m m m r ] ] o e.e.e.e.e.e.e.e.e.e.e.e.e.e.e.e.e.e.e.e.e.e.e.e.e.e.e.e.",
"e.e.e.e.e.e.e.e.e.e.e.e.e.e.e.e.e.e.e.-.t X.~ W U J J J x p m r r ] ] X e.e.e.e.e.e.e.e.e.e.e.e.e.e.e.e.e.e.e.e.e.e.e.e.e.e.e.e.",
"e.e.e.e.e.e.e.e.e.e.e.e.e.e.e.e.e.e.e.7 _ _ ~ Q U J x x b p m m 6.] ] # e.e.e.e.e.e.e.e.e.e.e.e.e.e.e.e.e.e.e.e.e.e.e.e.e.e.e.e.",
"e.e.e.e.e.e.e.e.e.e.e.e.e.e.e.e.e.e.e.3 | _ Q W U J x x x p p m q.] ] + e.e.e.e.e.e.e.e.e.e.e.e.e.e.e.e.e.e.e.e.e.e.e.e.e.e.e.e.",
"e.e.e.e.e.e.e.e.e.e.e.e.e.e.e.e.e.e.e.3._ W W W I K S S x f p V w.q.6.. e.e.e.e.e.e.e.e.e.e.e.e.e.e.e.e.e.e.e.e.e.e.e.e.e.e.e.e.",
"e.e.e.e.e.e.e.e.e.e.e.e.e.e.e.e.e.e.e.3.*.W W W I K S S x f p V %.z z   e.e.e.e.e.e.e.e.e.e.e.e.e.e.e.e.e.e.e.e.e.e.e.e.e.e.e.e.",
"e.e.e.e.e.e.e.e.e.e.e.e.e.e.e.e.e.e.e.3._ _ W W W I L Z b p f } 2 4 & e.e.e.e.e.e.e.e.e.e.e.e.e.e.e.e.e.e.e.e.e.e.e.e.e.e.e.e.e.",
"e.e.e.e.e.e.e.e.e.e.e.e.e.e.e.e.e.e.e.3._ _ ! U U L S Z k p m q.] ] O e.e.e.e.e.e.e.e.e.e.e.e.e.e.e.e.e.e.e.e.e.e.e.e.e.e.e.e.e.",
"e.e.e.e.e.e.e.e.e.e.e.e.e.e.e.e.e.e.e.1._ _ ! U U I Z Z b p m q.0.-.@ e.e.e.e.e.e.e.e.e.e.e.e.e.e.e.e.e.e.e.e.e.e.e.e.e.e.e.e.e.",
"e.e.e.e.e.e.e.e.e.e.e.e.e.e.e.e.e.e.e.,._ _ U U U U S Z c m m q w q   e.e.e.e.e.e.e.e.e.e.e.e.e.e.e.e.e.e.e.e.e.e.e.e.e.e.e.e.e.",
"e.e.e.e.e.e.e.e.e.e.e.e.e.e.e.e.e.e.e.>._ _ U U U U F D c m m q q   =   e.e.e.e.e.e.e.e.e.e.e.e.e.e.e.e.e.e.e.e.e.e.e.e.e.e.e.e.",
"e.e.e.e.e.e.e.e.e.e.e.e.e.e.e.e.e.e.e.;._ _ U U U U Y Y n m ( 9 0   =   e.e.e.e.e.e.e.e.e.e.e.e.e.e.e.e.e.e.e.e.e.e.e.e.e.e.e.e.",
"e.e.e.e.e.e.e.e.e.e.e.e.e.e.e.e.e.e.e.-._ _ U U U U P H n m { 8 8 > ,   e.e.e.e.e.e.e.e.e.e.e.e.e.e.e.e.e.e.e.e.e.e.e.e.e.e.e.e.",
"e.e.e.e.e.e.e.e.e.e.e.e.e.e.e.e.e.e.e.:._ / ^ ^ E U Y Y n  .5 5 5 > > e.e.e.e.e.e.e.e.e.e.e.e.e.e.e.e.e.e.e.e.e.e.e.e.e.e.e.e.e.",
"e.e.e.e.e.e.e.e.e.e.e.e.e.e.e.e.e.e.e.3.#.^ B M P Y J A n < < 1   >   e.e.e.e.e.e.e.e.e.e.e.e.e.e.e.e.e.e.e.e.e.e.e.e.e.e.e.e.e.",
"e.e.e.e.e.e.e.e.e.e.e.e.e.e.e.e.e.e.e.7.&.o.M v P P A A A < < <     e.e.e.e.e.e.e.e.e.e.e.e.e.e.e.e.e.e.e.e.e.e.e.e.e.e.e.e.e.e.",
"e.e.e.e.e.e.e.e.e.e.e.e.e.e.e.e.e.e.e.9.$.@.@.[ T P A A A A G : : e.e.e.e.e.e.e.e.e.e.e.e.e.e.e.e.e.e.e.e.e.e.e.e.e.e.e.e.e.e.e.",
"e.e.e.e.e.e.e.e.e.e.e.e.e.e.e.e.e.e.e.9.9.6.4.4.,.:.o.o.) ` ..: ; e.e.e.e.e.e.e.e.e.e.e.e.e.e.e.e.e.e.e.e.e.e.e.e.e.e.e.e.e.e.e.",
"e.e.e.e.e.e.e.e.e.e.e.e.e.e.e.e.e.e.e.d < < < < < < < < < < e e.e.e.e.e.e.e.e.e.e.e.e.e.e.e.e.e.e.e.e.e.e.e.e.e.e.e.e.e.e.e.e.e.",
"e.e.e.e.e.e.e.e.e.e.e.e.e.e.e.e.e.e.e.u < < < < < < < < < < e e.e.e.e.e.e.e.e.e.e.e.e.e.e.e.e.e.e.e.e.e.e.e.e.e.e.e.e.e.e.e.e.e.",
"e.e.e.e.e.e.e.e.e.e.e.e.e.e.e.e.e.e.e.e.  - - - - - - - - -   e.e.e.e.e.e.e.e.e.e.e.e.e.e.e.e.e.e.e.e.e.e.e.e.e.e.e.e.e.e.e.e.e.",
"e.e.e.e.e.e.e.e.e.e.e.e.e.e.e.e.e.e.e.e.  - - - - - - - - -   e.e.e.e.e.e.e.e.e.e.e.e.e.e.e.e.e.e.e.e.e.e.e.e.e.e.e.e.e.e.e.e.e.",
"e.e.e.e.e.e.e.e.e.e.e.e.e.e.e.e.e.e.e.e.  6 6 6 6 6 6 6 6 6   e.e.e.e.e.e.e.e.e.e.e.e.e.e.e.e.e.e.e.e.e.e.e.e.e.e.e.e.e.e.e.e.e.",
"e.e.e.e.e.e.e.e.e.e.e.e.e.e.e.e.e.e.e.e.e.                  e.e.e.e.e.e.e.e.e.e.e.e.e.e.e.e.e.e.e.e.e.e.e.e.e.e.e.e.e.e.e.e.e.e.",
"e.e.e.e.e.e.e.e.e.e.e.e.e.e.e.e.e.e.e.e.e.e.e.e.e.e.e.e.e.e.e.e.e.e.e.e.e.e.e.e.e.e.e.e.e.e.e.e.e.e.e.e.e.e.e.e.e.e.e.e.e.e.e.e.",
"e.e.e.e.e.e.e.e.e.e.e.e.e.e.e.e.e.e.e.e.e.e.e.e.e.e.e.e.e.e.e.e.e.e.e.e.e.e.e.e.e.e.e.e.e.e.e.e.e.e.e.e.e.e.e.e.e.e.e.e.e.e.e.e."
};
