/* XPM */
static char *result[] = {
/* columns rows colors chars-per-pixel */
"64 64 13 1 ",
"  c #040404",
". c #661904",
"X c #B20C0C",
"o c #E1302D",
"O c #8C4608",
"+ c #B2860C",
"@ c #C38846",
"# c #FFD658",
"$ c blue",
"% c #7B96FF",
"& c #FFCC9D",
"* c #ECECEC",
"= c None",
/* pixels */
"================================================================",
"================================================================",
"================================================================",
"=================          =====================================",
"==============   O#*##++OO.  ===================================",
"============= O++###+++OOOOO.  =================================",
"============ O+             ... ================================",
"============ O+             ... ================================",
"============   OO+########+O    ================================",
"=========   +#***#++++++++#+#++O   =============================",
"======== O##*#O.............OOO++OO ============================",
"======== O##*#O.............OOO++OO ============================",
"======  O#++O.....        .......++O ===========================",
"===== OO#+....      OO       ......+O ==========================",
"===== ++O...     O O@@@   O     ....+ ==========================",
"==== +OO.        O @&&&@   O     ...O+  ========================",
"==== +OO.        O @&&&@   O     ...O+  ========================",
"==== +..       OO  &&&&&@@ OO      ..+  ========================",
"==== O   .   O @@ @&&&&&@@  @   .   .+  ========================",
"===== OO.    O OO  @&&&@    @    .. + ==========================",
"======       O @@**&&&&&*** O    ..  ===========================",
"======       O @@**&&&&&*** O    ..  ===========================",
"=========    O@**O &&&&&OO *@      =============================",
"=========   &O@**  &&&&&   *@  & ===============================",
"==========  @O@&&**&&&&&***&@  @ ===============================",
"==========  @O@&&**&&&&&***&@  @ ===============================",
"==========  O@O@@&&&&&&&@@OOO@@O ===============================",
"============  OOO@&&&&&&&&@OO   ================================",
"==============   OO@@@@@OOO  ===================================",
"===============             ====================================",
"===============             ====================================",
"============== @@ Xo***XXX @ ===================================",
"============= O&& ooXXXoXX &O  =================================",
"============= @  Xoo***oXXX @  =================================",
"============= @  Xoo***oXXX @  =================================",
"============  &  XooXXXoXXX &   ================================",
"==========  @&@   Xo***XXX  @&&@ ===============================",
"==========  &*@  %        % @**& ===============================",
"==========  @& %%%$%$$%%$$%% &&@ ===============================",
"==========  @& %%%$%$$%%$$%% &&@ ===============================",
"============   **$% %%% %%$*    ================================",
"===============  **$   $*** ====================================",
"==============   @  ===   @  ===================================",
"==============   @  ===   @  ===================================",
"============  OOO& =====  &OO   ================================",
"==========  O@&@@O =====  O@&@@O ===============================",
"==========  +#+OO ======== O+##+ ===============================",
"============     ==========     ================================",
"============     ==========     ================================",
"================================================================",
"================================================================",
"================================================================",
"================================================================",
"================================================================",
"================================================================",
"================================================================",
"================================================================",
"================================================================",
"================================================================",
"================================================================",
"================================================================",
"================================================================",
"================================================================",
"================================================================"
};
