/* XPM */
static char *result[] = {
/* columns rows colors chars-per-pixel */
"64 64 13 1 ",
"  c #040404",
". c #661904",
"X c #B20C0C",
"o c #E1302D",
"O c #8C4608",
"+ c #B2860C",
"@ c #C38846",
"# c #FFD658",
"$ c blue",
"% c #7B96FF",
"& c #FFCC9D",
"* c #ECECEC",
"= c None",
/* pixels */
"================================================================",
"================================================================",
"================================================================",
"================================================================",
"================================================================",
"================================================================",
"================================================================",
"================================================================",
"================================================================",
"================================================================",
"================================================================",
"================================================================",
"================================================================",
"================================================================",
"===========================          ===========================",
"========================   O+##++++O.   ========================",
"========================   O+##++++O.   ========================",
"======================= OO+#***#+OO+O... =======================",
"====================== O++#**###+++O.O... ======================",
"====================== +###*###+++++O.  . ======================",
"====================  O+++###++#+++O+O.. .  ====================",
"====================  O+++###++#+++O+O.. .  ====================",
"===================    O+++#+##+++++O.  .    ===================",
"=================  O  o OO++++++O++O.O.. X  .  =================",
"===============  O++  oX   O+++O+OOOO   XX  ...  ===============",
"===============  O++  oX   O+++O+OOOO   XX  ...  ===============",
"============== OO+++OO oooX          XXXX ....O.. ==============",
"============== OO#++++ XoooooooooooXoXXXX ...OO.. ==============",
"============== OO##+++O   XooooooXXoXX   ...OOO.. ==============",
"===============  O*#++++OO            ...OOO+O.  ===============",
"===============  O*#++++OO            ...OOO+O.  ===============",
"================= O*###++++OOOOOOOOOOOOOO+++O. =================",
"==================  OO+###+++++++++++++++OOO  ==================",
"====================   O++######+##+++OOO   ====================",
"====================   O++######+##+++OOO   ====================",
"======================     .OOOOOOOO.     ======================",
"====================  &                  &  ====================",
"====================  @                  @  ====================",
"====================  O@                @O  ====================",
"====================  O@                @O  ====================",
"======================  OO            OO    ====================",
"====================== @OO  O  @   O    O@OO ===================",
"====================== @&&@O        O@OO@&@@O ==================",
"====================== @&&@O        O@OO@&@@O ==================",
"======================= @@& XXXoXXXX O  @&&&@ ==================",
"========================  O XooooXXX  @@ *&&@ ==================",
"========================== XoooooooXX &&O&@@O ==================",
"========================== XoooooooXX   @    ===================",
"========================== XoooooooXX   @    ===================",
"==========================  XoooXXXX  == =======================",
"========================== %        % ==========================",
"========================== %$$$%$$$$% ==========================",
"========================== O   %%$$  ===========================",
"========================== O   %%$$  ===========================",
"========================  O..OO    =============================",
"========================  OO+++ ================================",
"========================  ++.OO ================================",
"========================  ++.OO ================================",
"========================  OO+++ ================================",
"==========================     =================================",
"================================================================",
"================================================================",
"================================================================",
"================================================================"
};
