/* XPM */
static char *result[] = {
/* columns rows colors chars-per-pixel */
"64 64 13 1 ",
"  c #040404",
". c #661904",
"X c #B20C0C",
"o c #E1302D",
"O c #8C4608",
"+ c #B2860C",
"@ c #C38846",
"# c #FFD658",
"$ c blue",
"% c #7B96FF",
"& c #FFCC9D",
"* c #ECECEC",
"= c None",
/* pixels */
"================================================================",
"================================================================",
"================================================================",
"================================================================",
"================================================================",
"================================================================",
"================================================================",
"================================================================",
"================================================================",
"=======================          ===============================",
"====================   O##*#+++O.   ============================",
"====================   O##*#+++O.   ============================",
"=================== OO+####++OOOOOO. ===========================",
"================== O++             .. ==========================",
"==================    O+########+OO   ==========================",
"===============   +#***#++++++++#++#+O   =======================",
"===============   +#***#++++++++#++#+O   =======================",
"============== OO#*#OO.............OO+++O ======================",
"============= O##+O.....         .......+O  ====================",
"============ O#++O.         O        ....+OO ===================",
"============ +O           O@@@@O   .     .++ ===================",
"============ +O           O@@@@O   .     .++ ===================",
"==========         .    OO@&&&&@O           + ==================",
"==========  +O.   .   O@@@&&&&&&@OO     ....+ ==================",
"==========  OO...   OO    @&&@@    O      ..+ ==================",
"==========  OO...   OO    @&&@@    O      ..+ ==================",
"============       OOO@&&&&&&&&&&@@O     .++ ===================",
"============= .     @@O   &&&&&  OO@        ====================",
"==============     OOO@***&&&&&**@@O     =======================",
"=================   @@*O  &&&&&O **@  ==  ======================",
"=================   @@*O  &&&&&O **@  ==  ======================",
"===============  @@   &   &&&&&  **@ &  ========================",
"============== @@&&O&& ***&&&&&**&&@ @  ========================",
"============== &&&&O@@ &&&&&&&&@OOOO@O  ========================",
"============== &&&&O@@ &&&&&&&&@OOOO@O  ========================",
"============== &&&@@  O@&&&&&&&&@OO   ==========================",
"============== @@&O    OOO@@@@@OO   ============================",
"============== @@&O@&&@          @@O ===========================",
"===============  @&&@@O XXo**XXX &&O ===========================",
"===============  @&&@@O XXo**XXX &&O ===========================",
"=================      XoooXXooX OO ============================",
"====================== Xooo**ooXX  =============================",
"====================== XooooX  %%  =============================",
"====================== XooooX  %%  =============================",
"======================  XXo* %%**%% ============================",
"====================  %%    %** O       ========================",
"====================  %$$$%%$%%@&  O++.. =======================",
"=================== @@ $%%%     O.....++ =======================",
"=================== @@ $%%%     O.....++ =======================",
"=================== &&@    ===== OO++O.. =======================",
"====================   ======== .....+  ========================",
"================================ +++. ==========================",
"=================================    ===========================",
"=================================    ===========================",
"================================================================",
"================================================================",
"================================================================",
"================================================================",
"================================================================",
"================================================================",
"================================================================",
"================================================================",
"================================================================",
"================================================================"
};
