/* XPM */
static char *result[] = {
/* columns rows colors chars-per-pixel */
"64 64 13 1 ",
"  c #040404",
". c #661904",
"X c #B20C0C",
"o c #E1302D",
"O c #8C4608",
"+ c #B2860C",
"@ c #C38846",
"# c #FFD658",
"$ c blue",
"% c #7B96FF",
"& c #FFCC9D",
"* c #ECECEC",
"= c None",
/* pixels */
"================================================================",
"================================================================",
"================================================================",
"================================================================",
"================================================================",
"================================================================",
"================================================================",
"================================================================",
"================================================================",
"================================================================",
"==================          ====================================",
"==================          ====================================",
"===============   O+##*#++OO   =================================",
"============== ..O+O......++O.. ================================",
"============        oooooo..+OO. ===============================",
"=========   O+++++OO      oo...O.  =============================",
"=========   O+++++OO      oo...O.  =============================",
"======== O###****##++++OOO  ooo.O  =============================",
"======  +#++OOOOOOOOOOO++++O   o... ============================",
"===== OO#+....     ....OOOO++OO  .. ============================",
"===== OO+.             ....OO+++O   ============================",
"===== OO+.             ....OO+++O   ============================",
"======  .        OO       ...OOO+OO ============================",
"=====       O O@@@@@OO      ....O++O ===========================",
"======    OO   @@&&&&&@O     ....OO+ ===========================",
"======    OO   @@&&&&&@O     ....OO+ ===========================",
"========    O@&&&&&@OO         ....OO ==========================",
"========    O  @@&&&&&&@@@O     ...OO ==========================",
"======== =  O&*OO&&&   O@@@O     ...O ==========================",
"==========  @O @@&&&***@OO@O        O ==========================",
"==========  @O @@&&&***@OO@O        O ==========================",
"=========   @  @@&&&OO *@@@     ...O ===========================",
"======== @OO@**&&&&&   *@@@ O   .   ============================",
"======  @&  @&&&&&&&***@@@@ &OO  ===============================",
"======  @&  @&&&&&&&***@@@@ &OO  ===============================",
"======  &O@@O@&&&&&&&&OOOO@&@OO  ===============================",
"======  @&&& O@&&&&&&&@@@@O@O    ===============================",
"======  @@OOO  OO@@@@@@OOO   OO@@OO  ===========================",
"======== &@@  O           O@&&&&&&&@@ ==========================",
"======== &@@  O           O@&&&&&&&@@ ==========================",
"======== O&&O@&&&@ X** oXX O    O&&&&@  ========================",
"========= @@&&O   XoOOooXXX ==== @@&&&  ========================",
"==========    === o*  ooooX ==== OO&&O  ========================",
"==========    === o*  ooooX ==== OO&&O  ========================",
"===============  XoOooooooX =====  OO ==========================",
"===============  XX*  oXXXX =======  ===========================",
"=================  XXX %%%%  ===================================",
"================= %%  *$$$$ .  =================================",
"================= %%  *$$$$ .  =================================",
"=============  ===  @@O*$$% O.. ================================",
"============ .@    &@@ $%% O@OO ================================",
"==========  .OOOO&&@  =    @&OO ================================",
"==========  O++++O&O======= @OO ================================",
"==========  O++++O&O======= @OO ================================",
"============ .O+++O ========   =================================",
"=============  ..O+ ============================================",
"===============    =============================================",
"===============    =============================================",
"================================================================",
"================================================================",
"================================================================",
"================================================================",
"================================================================",
"================================================================"
};
