/* XPM */
static char *result[] = {
/* columns rows colors chars-per-pixel */
"64 64 149 2 ",
"   c #2E5300",
".  c #325503",
"X  c #355B04",
"o  c #3A5C07",
"O  c #36540C",
"+  c #375B09",
"@  c #3B5D0C",
"#  c #3C5C13",
"$  c #366004",
"%  c #3D6404",
"&  c #3C6905",
"*  c #37600D",
"=  c #3C620D",
"-  c #3F690D",
";  c #3E6212",
":  c #3F6B16",
">  c #425F14",
",  c #425E19",
"<  c #436C05",
"1  c #41640D",
"2  c #436B0D",
"3  c #486D0D",
"4  c #447206",
"5  c #4A7906",
"6  c #46720C",
"7  c #4B740D",
"8  c #4D7B0D",
"9  c #53750D",
"0  c #517B0E",
"q  c #436414",
"w  c #4B6617",
"e  c #456B14",
"r  c #4A6D15",
"t  c #45651A",
"y  c #49671A",
"u  c #466B1A",
"i  c #4A6C1C",
"p  c #526E1D",
"a  c #477312",
"s  c #4B7314",
"d  c #4D7A14",
"f  c #47711B",
"g  c #4C731B",
"h  c #4E791C",
"j  c #527516",
"k  c #537C15",
"l  c #597E15",
"z  c #52751C",
"x  c #547B1C",
"c  c #597D1D",
"v  c #476620",
"b  c #496520",
"n  c #4C6C21",
"m  c #506C22",
"M  c #4E7321",
"N  c #4E7A22",
"B  c #4F7928",
"V  c #527423",
"C  c #597524",
"Z  c #547B23",
"A  c #5A7D23",
"S  c #55752A",
"D  c #5B7729",
"F  c #557B29",
"G  c #5B7D2B",
"H  c #577630",
"J  c #5C7E31",
"K  c #617E24",
"L  c #53820E",
"P  c #4E8310",
"I  c #548214",
"U  c #5A8415",
"Y  c #578917",
"T  c #5C8B16",
"R  c #56821B",
"E  c #5B841C",
"W  c #57881A",
"Q  c #5C8B1C",
"!  c #5E911C",
"~  c #618C17",
"^  c #61861E",
"/  c #628C1C",
"(  c #688E1F",
")  c #619916",
"_  c #63921D",
"`  c #68941E",
"'  c #659A1E",
"]  c #6A9A1E",
"[  c #719D1D",
"{  c #67A01D",
"}  c #568122",
"|  c #5C8323",
" . c #5E8B22",
".. c #5C832B",
"X. c #5E8B29",
"o. c #5E9122",
"O. c #5E8231",
"+. c #628623",
"@. c #628C23",
"#. c #698D24",
"$. c #62852A",
"%. c #638C2B",
"&. c #698E2B",
"*. c #649324",
"=. c #6A9424",
"-. c #669924",
";. c #6C9C25",
":. c #65932A",
">. c #6A942B",
",. c #679A2A",
"<. c #6C9B2A",
"1. c #729D23",
"2. c #70942C",
"3. c #729D2B",
"4. c #638632",
"5. c #648B32",
"6. c #698C34",
"7. c #628739",
"8. c #678D39",
"9. c #688C39",
"0. c #679231",
"q. c #6C9433",
"w. c #6D9A32",
"e. c #669139",
"r. c #6D933A",
"t. c #6E9F3E",
"y. c #719533",
"u. c #729D34",
"i. c #73953D",
"p. c #739C3A",
"a. c #6EA126",
"s. c #6FA12B",
"d. c #73A027",
"f. c #72A22C",
"g. c #78A42C",
"h. c #73A82A",
"j. c #73A233",
"k. c #7BA633",
"l. c #7AAA36",
"z. c #74A23A",
"x. c #7CA43C",
"c. c #7CAA3B",
"v. c #779D40",
"b. c #799B43",
"n. c #77A041",
"m. c #79A243",
"M. c #7FA94C",
"N. c #80AA3B",
"B. c #80A443",
/* pixels */
"# i r 3 z C 9.b.i z V F Z n t v V V V r j p.} A c } $.q.&.+. .E %.Q  ./ *.*.*.*.-.*./ *.*.*.Q ,.,.*.o.I f g q g F u N h t.W d _ ",
"i | j 2 E >.u.:.5.r.: : 1 Z   i + ; t g g C u u ..X.p.c | u.l Q =.*./  .>.*.*.+.*.*.z.>.W -.<.-.@.>. .- ; ; t u ..7.g s t. .Q W ",
"p | c 6 l *.c.x w.B } : s z = r g V g u M = g h i $.X.} E >.+.<.@.Q ^ =.3.@./ >.+.E q.:.k @.=./ ,.w.| f v n i M N Z | } y.:.*.Q ",
"A ^ @.E 7 Q *.<.R X.: ..} g g g Z q u g u G i g F g } Z s 6 | >.p.+.| >.k u.u.M.R E } } a d W a 6 X.X.f u M F F V z p.p.R >.<.o.",
"+./ ` ( U ~ T *.w.X.X.} A R a z 2 V a q e ; M M g g 2 F x c } %.} k A %.x } %.$.a R g x g a V } g e f F F B V N s e &.&.d E #.*.",
"+./ ( ` _ _ U k.o.w.W w.%.x } x x Z a g q h q u Z e g F s Z q.Z s g x } x g d A V c g Z Z g Z ..u ; M B V M f g s i  .| l U %._ ",
"T 1.] 1.] =.T *.! Q ,. .d  .>.%.:.t.z.a h $ q f F g X g = s h g u u s z Z g V z ..Z z N V } O.F ..n n G e 7.2 e ..r.E | E | W T ",
"@.[ [ [ [ ` T *.Q Q -.Q W  .*. .:.w.w.a d - V g F V = u g V g g 2 z Z F g F V ..g g F V g F G 7.O.B v u e 5.u s %.q.| |  .E  .@.",
"] [ [ d.;.=.Q  .Y ! ! ! <.*.W o.Q W } 0.P & ....V Z Z Z V s s F g g g V c h V f g } ..C q e i n y # @ . g $.....%...| E | | +.<.",
"` [ [ d.1.=.Q Q Q o.! ! <.o.o.*.I W W o.:.h z x c | d z a g x x g g g s g g g e ....| c e q y # ; t n 9.x | :.+.%.| +.| +. .+.%.",
"] [ [ d.<.>.:. .,.,.*.,.;.,.,.*.-.o.*.z.,.W :.i.d c } d k A Z h u h x g - V d Z g s z j z n y # # y V 6.+.z +.A X.x | |  .X.+.%.",
"d.[ 1.d.3.=.<.*.<.w.-.s.-.s.;._ s.,.*.j. .:.z. .X.z.- | | g h ..c h h s g s $.Z g r r z C n i n t M C | %.x +.c E k +. .+.+...%.",
"a.a.;.a.s.;.s.! *.l.<.,.-.a.a.s.f.-.-.-.*.Q  .k :.8 :.%.s e.e.f h %.X.z.a x C G G J G D > t y # t } %.&.+.+.^ ^ =.2.@.@.| R } $.",
"_ a.a.<.;.,.j.j.P c.j.j.h.g.s.-.-.<.<.j.,.,.*.=. .%.:.Z h e.$ N } X.} 6 $.p.5.$.u t q w y y i i i g z } ^ ^ ~ ~ =.=.1.;.-.%.%.8 ",
"Q a.a.;.;.;.s.c.8 j.l.j.,.3.s.-.*.s.s.u.,.>.%.-.R  .| d | N X ..} :.s d q.&...Z y q u w > y n J O.....X.E l l ~ ` ` 1.3.<.<.,.0 ",
"a.;.;.;.;.;.P Q j.j.I 0 T ;.<.-._ %.-.-.@.Q U R l R | } | } | A h } 6 %.< j z C V m > q w t q q q h x k ^ ^ ~ / ] ] ;.;.<.<.;.h.",
"f.;.;.;.;.,.-.L *.I 8 *.;.3.<.T I / @.@.Q E E E @.+.w.U ..%.&.} >.x +.9 l +.K C p w i y # > t q u F } d =.*.@.=.1.d.] ] a.a.a.! ",
"f.' ;.s.;.-.=.-.-.>.,.<.=.Q T @.*.E Q Q E Q E  .^ +.+.Q | E ^ | %.| E +.^ c c c p w > q i n y t q a z E | +.=.<.` ` ' d.;.! ) { ",
"3.;.;.;.-._ *.-.,.<.<.,.=./ / / @.Q @.@.R l #.#.%.^ +.^ E ^ | E %.%.^ c 2.c c p w w w w i i y V M h g k R R  . ._ Q ' a.a.! ' { ",
"=.d.;.' _ Q *.-.f.u.,.>.;.=.@./ T +.#.%.k 7 &.%.>.#.^ ^ ^ ^ ^ ^ E E ^ ^ c #.^ K c m m m i y i u M Z z | } | |  ._ ! ! ;.-.! -.-.",
"~ ] ' ! _ _ <.,.,.,.3.j.3.<.>.Q U ^  .+.E ^ j c #.#.c ^ ^ ^ ^ ^ c #.^ 9 2.#.K K C p K C i y b S u s ..%.| ..}  .*.-.Y -.-.o.s.o.",
"~ _ _ ~ ! ' s.<.*.-.<.j.3.3.=.W l E E E +.%.3 l ^ #.^ ^ ^ ^ ^ ^ ^ #.#.%.K ^ K K p p D m y y i i M g g k } } h W  .*.Y *.-.o.,.,.",
"=._ l.L T Y _ _ ;.3.*.d.<.T P ! :.| | %.| | ^ k c +.#.+.^ ( ^ +.+.A A c l < &.y.c j > > b S m i i A | x R W o.W ! j.,.*.! -.-.Q ",
"~ _ _ U ,._ *.T _ _ ,.u.-.o.W }  .R | $.| A ^ c c ^ +.+.+.+.^ ^ +.+.^ l l 3.c j c z w w t y t q i } ..l  . .o. .o.w.-.,.a.o.*. .",
"#.8 R k <.d 2 d w.X.X.k e.W X.X.| h | k ..+.+.+.A +.%.+.+.+.^ +.+.%.^ 0 U #.2.( 7 k w i p u n Z Z } X.:.o.} W *.j.,.,.,.z.I _  .",
"E | ..n.$ h 2 x %.} } h O.} X.} h z } q | $.$.$.+.A &.+.+.^ ^ ^ c #.%.l ( 3.0 7 +.&.| C p V g z Z %.>. .R  .}  .z.t.:.:.l.d @. .",
"% g q e.G ; M 8.u e g F B M @ : V ..G . ..4.4.6.K +.4.$.+.+.+.^ l <.>./ k.k.U L @.Q c A j r g V Z z R R %.X.h X.q.R :.| u.4 *.k ",
"d g F u M M i M M i u u v M : f q g V 1 D z D u q C j $.+.c %.k U E / =.2.1.N.N.Q +.+.} r r Z r h c %.a X.e e.i.a a %.:.d x R X.",
"2 M C ; i M C V e e Z G v u ; n u O O i G S v V V e %.C %.#.+.&.|  .+.-.;.U L 0 j.>...| a f n f h N } a 2 u } X.z g a r e k r j ",
"e z z 1 z Z e q r i z z q : @ e ; + O n , > b n t 4.o q 3 %.+.E }  . .*.*.l j.k d x c z N M : B M M : } = g V u g e 1 e g } g A ",
"M i z r Z D e e g z z i q i ; u ; q t b , O b b y V q 1 $.y.+.c E } W | W 4 :.R d h h g h M : B B N : } : M V u V u e g x ..z ..",
"g e x A $.+.&.$.z z A ..d :...Z i n S , b O H b m # J D w 3 c c z k x x x d 0.q.g h 2 e M M B } B f * } u g h Z V Z g $.z G Z z ",
"*.2 U d d 3 c & } & n.R o.R R z } V V t n H # ; t v v v e A C 1 z ..s A a Z x V h f : O.M e g g g s h d } M.a 2 g h g g z | A K ",
"<.7  . . .:.4 :.X.X.0.d ,.o.o. . .z g G M ; v v , v t v S i e $.| z i 9.z g g h N : f B Z q } } %.k k p.%.6 X.3 }  .k z z z j z ",
",.Y @.=.*.*.k j.#.u.W R s.,. .W :.h G 4.n t y y v v b n i q z 1 i w e A g u f f : N N } v.h X.w.q.E @.3.d R E 6 q.%.x x z z i j ",
"T T _ ;.U I =.1.#.<.R ,.o.Q o.%.d r.m.x e Z M g v v t # M 4.g e 1 z Z # ..f u g f N h : X.h X.0.P ,.c.E Y w.k w.%.6.V z M i w x ",
"' L T 1.~ U U U / U *.l @.>._ j.k x 6 w.0.Z u u f n M . B u   G F u F : M f M N } } : a 0.W :.*.,.,.Q Y s.Q %.W >.a z g i n n C ",
"] _ ` ` _ ~ ~ ~ Q T U U T -.=.>.,.x  .n.a h k g ; ; : : G u h g q g M g e h 5.f } X.o.o.,.o. .w.,. .Q W -.*.>.u.x & z g i i i c ",
"1.1.[ 1.` ( ( ( / ( / / U ~ T U R >.*.d z.j.X.h V N ; O.e h a ..Z N g f f } t.o.h X. .o.o.o. .*.%. . .*.Q  .E W +.6.z i q y u a ",
"<.3.3.1.` ( ` =.=.=.#.=.^ / / U I ,.*.W t.o.c d } } u N : Z Z h ..F B X.e.P z.t. .,. . . . .Q ,.*.W W W E W R R %.q.| x i e u g ",
"=.=.=.=.( ( =.2.#.#.#.#.#.1.;._ / ,.,.! I o.w.z.X.x ..N f : Z h g a g d P o.P o.,.h.o.X.E | | E E x R | | x } :.} a r w 3 p z ..",
"*.( ( #.=.=.#.( @.@./ / ( 2.2.=.*.=.-.Y P W 8 6 h N - N h - f } h R } W R :.R ! Y o.%. .E U | +.+.} E +. .Z  .X.j 2 x j d z Z Z ",
"R &.=.2.^ l ^ ^ / *.>.-./ =.-.;.;.-.Q -.*.j.%. .R k h z f u f N } ,.0.w. .W W ! -.o.f.Q Q x >.%.+.+.%.+.+.+.l z 2 2 z $.r e e u ",
"W &.+.k k ^ / ^ @.@.*.*.*.,.,.<.s.-.*.-._ ,.*.E c R s x g M M V g h R  .,.-.o.-.a.a.*.! @.%.%.+.%.%.+.+.+.+.c j j 3 A z C z Z z ",
"%.j c &.>.#.:.>.@.*.Q Q Y E Q -.,.-.<.Q Q P | :.} z F Z M M M Z R :.w.w.,.<.,.a.o.a.l.s.*.8 d X.+.+.+.+.+.+.^ +.+.| | C z C e s ",
" .+.c l c +.%.#.%.*.*.@.*.*.,.:.>.:.*.W Q Q d k w.q.a z g g M M $.%.%. . .*.o.*.! ! Y 5 j.7 E %.%.+.+./ ^ | +.E | | g 2 g e q C ",
"x c c A E } #.%.*.:.*.-.,.:.,.:.*.*.W W o.q.Z s q.q.q g i u g h s s k } :. .Q ! o.a.! 5 j.#.:.+.+.+.+./ E / | | c A c } 5.z g s ",
"z x c +.| l  . .>.>.%.%.*.E <.k c  .d 6 h &.%.V z h ..h + g F V V %.&.q.w.:.@.! ! o.a.-.*.*.+.w.+.@.@.l / ^ E U k k x h g Z F Z ",
"z k x $.c x U E *.>.:.:.@.E / 8 a c } } d V 5.r.u g Z g u M M s ..| c | w.u. .W / ,.a.;.*./ / &.%.#./ E E Q +.+.:.%.%.X.A g q g ",
"A r C &.x x z x R E  . .R @.#.q.+. .A k z 5.u = ....: ..g e u s A r s %.| E E Q *.*.;.d.;.@.E d #.@.l / U Q T W E E R x h h Z u ",
"A w A &.s Z E +.x d | d E >. .p.%.A | } g F F g q V u ..q a g g $.A c c E k R U W Q ;.;.<.@./ < E ^ l ^ E U Y I k R X.} h a e g ",
"C r $.+.% | } &.d d  .R @.l 7 k 3 x g i u F i u F i ..M u C Z g 1 w r x p.x x Y @.>.~ _ 3.;.*.9 0 2.2.` =.-.*.*.o. .x  .:.h g e ",
"q r.c z r +.A 6.3 z c i.z e e C G s w o g i n n u M G q V C g q r v i i f f } | W  .I Y ,.3.,.>.T I ] ;.d.;.! T Q Q >.u.%.>.&.i ",
"t 5.c z s A $.6.r c j 6.i V V m i 1 1 e C C i t M V S V V V C i i n n n v u g h E <.@. ._ *.;.f.3.` ;.f.a.a.! T ! Q =.u.8 d k i ",
"y C g j j r | +.j | r j i u w e w z z i z e y n t t V i i u y q v n v n f ; ..X.d 4 I I =.s.d.;.d.d.;.;.a.a.! _ T T j.j.@.E x S ",
"i z r C w r z z p G z i i q w u i z i z $.z i M y t i t n M u > n n v n v F Z g 6 6 =._ _ =.<._ _ ] 1.d.a.;.-._ T T >.y.U j s V ",
"y Z o A 1 p g i s e p z q u w A G z i $.j z n i S V t i n n n t i u i v u g e - h X.<.;.=.=.( ( 1.d.1.1.;.;.<.=.Q U u.N.j r s q ",
"t C X C 1 z z C p 1 e i i o q 4.y.1 1 i.z $.C D n i i i y > t t i i v u v u e e x :.=.*.~ =.3.~ ;.g.` ~ ;.;.<.,. .E &.>.c c j i ",
"m w i i i i n g i u e e q e 4.A 9.C w A $.z z 6.i C G i u b n # y q i V q : M f } %.U 0 3.*.=.=.( ~ ~ ~ / <.=.E E %.E A %.C w n ",
"m i i i i i q q q w y w 1 3 ..C y.A s j K c $.6.j C z C q n n i n q @ F u ; N f h } 7 j x.U 2./ ^ U U U U @.*.E | &.c j A $.K u ",
"m n y n v i q q i v V V z G z r G c A c j j 2.c k j 3 z z G i i C G q F J v u f h a %.B.j j 9 c U ^ ^ ^ +.R E >.6.y.j j 3 w C i ",
"m y b y i v y b v n m V w z i.c c z $.c c #.@./ >./ j +.+.r r z g i g u ; u : N f s } x j s p 9 j c ^ c E 9 E +.%.y.c r q p p m ",
"m y i n u v v u n n i i C $.6.z j j +.j c y.>.E #.c.^ &.%.o 2 Z | r } F + ; f } q g p e $.j K l c #.#.+.+.6 j +.+.+.C A z z C V ",
"C C C y , , n y q ; G g c +.K c c c ^ +.+.+. .W  .Q o.=.Y z.w.P X.q.:.h h f i M u z p 9 c K ^ K c #.9 #.c z Z +.x w 3 j z w 2 s "
};
