/* XPM */
static char *result[] = {
/* columns rows colors chars-per-pixel */
"64 64 13 1 ",
"  c #040404",
". c #661904",
"X c #B20C0C",
"o c #E1302D",
"O c #8C4608",
"+ c #B2860C",
"@ c #C38846",
"# c #FFD658",
"$ c blue",
"% c #7B96FF",
"& c #FFCC9D",
"* c #ECECEC",
"= c None",
/* pixels */
"================================================================",
"================================================================",
"================================================================",
"================================================================",
"================================================================",
"================================================================",
"================================================================",
"================================================================",
"================================================================",
"================================================================",
"================================================================",
"================================================================",
"================================================================",
"==========================          ============================",
"=======================   O+#++++OO.  ==========================",
"====================== O++#**##+O++O..  ========================",
"====================== O++#**##+O++O..  ========================",
"====================  O+##**###++OO.O... =======================",
"====================  +###*##++++++O. .. =======================",
"=================== OO++####+##++OO+O.  . ======================",
"==================    O+++#+#++++++O. ..    ====================",
"==================    O+++#+#++++++O. ..    ====================",
"===============   O oo O+++++++O+OO.O.  X ..  ==================",
"============== OO++ ooX   O++OO+OOOO  XXX .... =================",
"============= O++++O  ooXX          XXXX ....O.  ===============",
"============= O++++O  ooXX          XXXX ....O.  ===============",
"============= O##+++  XooooooooooXXoXXXX ...OO.  ===============",
"============= O###++OO  XXooooooXooXX   ..OOOO.  ===============",
"============== OO*#++++O             ...OO++O. =================",
"===============  O*###++++OOOOOOOOOOOOOO++OO. ==================",
"===============  O*###++++OOOOOOOOOOOOOO++OO. ==================",
"=================  O++##++++++++++++++++OO   ===================",
"===================   O+#######+#++++OOO  ======================",
"====================      .OOOOOOOO.     =======================",
"====================      .OOOOOOOO.     =======================",
"=================== &&                  & ======================",
"=================== @@                  @ ======================",
"=================== OO@               @@O ======================",
"===================    O             O   =======================",
"===================    O             O   =======================",
"================== OOOO    O   @ OO  O@@ =======================",
"================= O@&&@O@@O        O@&@@ =======================",
"================= @&&&@ OO XoooXXXX &@  ========================",
"================= @&&&@ OO XoooXXXX &@  ========================",
"================= @&** @   oooooXXX O ==========================",
"================= O@&&O&  XooooooXXX ===========================",
"==================    @   XooooooXXX ===========================",
"====================== =   XoooXXXX  ===========================",
"====================== =   XoooXXXX  ===========================",
"========================  %        % ===========================",
"========================  %$$$$%$$$% ===========================",
"==========================  $%%% OOO ===========================",
"============================    O...O ==========================",
"============================    O...O ==========================",
"=============================== +++OO ==========================",
"=============================== O..++ ==========================",
"=============================== +++OO ==========================",
"=============================== +++OO ==========================",
"================================     ===========================",
"================================================================",
"================================================================",
"================================================================",
"================================================================",
"================================================================"
};
