/* XPM */
static char *result[] = {
/* columns rows colors chars-per-pixel */
"64 64 54 1 ",
"  c #4D2712",
". c #4E2812",
"X c #522C14",
"o c #563119",
"O c #5A351D",
"+ c #5E3A1F",
"@ c #613B1F",
"# c #5E3B21",
"$ c #623D22",
"% c #644226",
"& c #654529",
"* c #6A4529",
"= c #67482B",
"- c #6A4A2D",
"; c #6D4E31",
": c #654F3C",
"> c #704E31",
", c #6E5234",
"< c #66523F",
"1 c #6C563F",
"2 c #715536",
"3 c #735738",
"4 c #755A3A",
"5 c #795E3E",
"6 c #7B603F",
"7 c #6A5642",
"8 c #6D5A46",
"9 c #6D5C48",
"0 c #705C46",
"q c #7A5F40",
"w c #715E48",
"e c #7D6241",
"r c #75624D",
"t c #756451",
"y c #786751",
"u c #7A6954",
"i c #7B6B58",
"p c #7F7262",
"a c #806545",
"s c #836947",
"d c #856B4B",
"f c #896F4F",
"g c #8B714F",
"h c #876E50",
"j c #8D7455",
"k c #907756",
"l c #917858",
"z c #837563",
"x c #867966",
"c c #897B67",
"v c #8C7E6C",
"b c #9B8466",
"n c #948675",
"m c None",
/* pixels */
"mmmmmmmmmmmmmmmmmmmmmmmmmmmmmmmmmmmmmmmmmmmmmmmmmmmmmmmmmmmmmmmm",
"mmmmmmmmmmmmmmmmmmmmmmmmmmmmmmmmmmmmmmmmmmmmmmmmmmmmmmmmmmmmmmmm",
"mmmmmmmmmmmmmmmmmmmmmmmmmmmmmmmmmmmmmmmmmmmmmmmmmmmmmmmmmmmmmmmm",
"mmmmmmmmmmmmmmmmmmmmmmmmmmmmmmmmmmmmmmmmmmmmmmmmmmmmmmmmmmmmmmmm",
"mmmmmmmmmmmmmmmmmmmmmmmmmmmmmmmmmmmmmmmmmmmmmmmmmmmmmmmmmmmmmmmm",
"mmmmmmmmmmmmmmmmmmmmmmmmmmmmmmmmmmmmmmmmmmmmmmmmmmmmmmmmmmmmmmmm",
"mmmmmmmmmmmmmmmmmmmmmmmmmmmmmmmmmmmmmmmmmmmmmmmmmmmmmmmmmmmmmmmm",
"mmmmmmmmmmmmmmmmmmmmmmmmmmmmmmmmmmmmmmmmmmmmmmmmmmmmmmmmmmmmmmmm",
"mmmmmmmmmmmmmmmmmmmmmmmmmmmmmmmmmmmmmmmmmmmmmmmmmmmmmmmmmmmmmmmm",
"mmmmmmmmmmmmmmmmmmmmmmmmmmmmmmmmmmmmmmmmmmmmmmmmmmmmmmmmmmmmmmmm",
"mmmmmmmmmmmmmmmmmmmmmmmmmmmmmmmmmmmmmmmmmmmmmmmmmmmmmmmmmmmmmmmm",
"mmmmmmmmmmmmmmmmmmmmmmmmmmmmmmmmmmmmmmmmmmmmmmmmmmmmmmmmmmmmmmmm",
"mmmmmmmmmmmmmmmmmmmmmmmmmmmmmmmmmmmmmmmmmmmmmmmmmmmmmmmmmmmmmmmm",
"mmmmmmmmmmmmmmmmmmmmmmmmmmmmmmmmmmmmmmmmmmmmmmmmmmmmmmmmmmmmmmmm",
"mmmmmmmmmmmmmmmmmmmmmmmmmmmmmmmmmmmmmmmmmmmmmmmmmmmmmmmmmmmmmmmm",
"mmmmmmmmmmmmmmmmmmmmmmmmmmmmmmmmmmmmmmmmmmmmmmmmmmmmmmmmmmmmmmmm",
"mmmmmmmmmmmmmmmmmmmmmmmmmmmmmmmmmmmmmmmmmmmmmmmmmmmmmmmmmmmmmmmm",
"mmmmmmmmmmmmmmmmmmmmmmmmmmmmmmmmmmmmmmmmmmmmmmmmmmmmmmmmmmmmmmmm",
"mmmmmmmmmmmmmmmmmmmmmmmmmm*>2>>>;mmmmmmmmmmmmmmmmmmmmmmmmmmmmmmm",
"mmmmmmmmmmmmmmmmmmmmmm*kk@ggddddd55$mmmmmmmmmmmmmmmmmmmmmmmmmmmm",
"mmmmmmmmmmmmmmmmmmmms+bbb@64a664ejjj$2mmmmmmmmmmmmmmmmmmmmmmmmmm",
"mmmmmmmmmmmmmmmmmmm-f+4ge@64a46aa*&5$>#mmmmmmmmmmmmmmmmmmmmmmmmm",
"mmmmmmmmmmmmmmmmmmmd4$faa%66a4ea6s6e%q2Ommmmmmmmmmmmmmmmmmmmmmmm",
"mmmmmmmmmmmmmmmmmm%j4$faa*66a6ee66e6-qd2mmmmmmmmmmmmmmmmmmmmmmmm",
"mmmmmmmmmmmmmmmmm*q45*aaa-66a6eeeeqe;65hOmmmmmmmmmmmmmmmmmmmmmmm",
"mmmmmmmmmmmmmmmmm%f44*aaa*66aaa6eeee;665ommmmmmmmmmmmmmmmmmmmmmm",
"mmmmmmmmmmmmmmmmmO444-aaa-5easeeee$5;655Xmmmmmmmmmmmmmmmmmmmmmmm",
"mmmmmmmmmmmmmmmmmOOO$$$$*-qqesaee$n$$#OOXmmmmmmmmmmmmmmmmmmmmmmm",
"mmmmmmmmmmmmmmmmmO0rruuuic5qesee%yuywrw0Xmmmmmmmmmmmmmmmmmmmmmmm",
"mmmmmmmmmmmmmmmmmoXXXXoXX2q5eseeeoyXXXXXXmmmmmmmmmmmmmmmmmmmmmmm",
"mmmmmmmmmmmmmmmmmo*%-@-->>55edeea-X--=*=Xmmmmmmmmmmmmmmmmmmmmmmm",
"mmmmmmmmmmmmmmmmmX344$5e>>55ehee6655,333ommmmmmmmmmmmmmmmmmmmmmm",
"mmmmmmmmmmmmmmmmmo243=55-,46ed666e55;333Xmmmmmmmmmmmmmmmmmmmmmmm",
"mmmmmmmmmmmmmmmmmX333=555-60eg66ee55,,3,Xmmmmmmmmmmmmmmmmmmmmmmm",
"mmmmmmmmmmmmmmmmmX333-443,44ef66ee45,2,3Xmmmmmmmmmmmmmmmmmmmmmmm",
"mmmmmmmmmmmmmmmmmX223-533-3#xbc66e55-22,Xmmmmmmmmmmmmmmmmmmmmmmm",
"mmmmmmmmmmmmmmmmm.322-333-4Orrr4qq44=,,,.mmmmmmmmmmmmmmmmmmmmmmm",
"mmmmmmmmmmmmmmmmmX323;323,4Xww834q44&,,,Xmmmmmmmmmmmmmmmmmmmmmmm",
"mmmmmmmmmmmmmmmmm.222-,23-3-.X.44q#4&,,,.mmmmmmmmmmmmmmmmmmmmmmm",
"mmmmmmmmmmmmmmmmmXooO####;33===33#c###oo.mmmmmmmmmmmmmmmmmmmmmmm",
"mmmmmmmmmmmmmmmmm.700rrytc333334#trr9901.mmmmmmmmmmmmmmmmmmmmmmm",
"mmmmmmmmmmmmmmmmm.19rrryu.333333,trr8991.mmmmmmmmmmmmmmmmmmmmmmm",
"mmmmmmmmmmmmmmmmm.$%&O--=%333322,;.&%&$$.mmmmmmmmmmmmmmmmmmmmmmm",
"mmmmmmmmmmmmmmmmm.,;,#,,,%,,12,,,4=4#;-; mmmmmmmmmmmmmmmmmmmmmmm",
"mmmmmmmmmmmmmmmmm.,,,#,,1#,,,,,,,404#;;; mmmmmmmmmmmmmmmmmmmmmmm",
"mmmmmmmmmmmmmmmmm.rrttyutiiipppuiutttttt mmmmmmmmmmmmmmmmmmmmmmm",
"mmmmmmmmmmmmmmmmm.pxxxxxvvvnnnnnvzxzzzzz mmmmmmmmmmmmmmmmmmmmmmm",
"mmmmmmmmmmmmmmmmm.<<<<797979tt9999977<<: mmmmmmmmmmmmmmmmmmmmmmm",
"mmmmmmmmmmmmmmmmm.::77797997tt99999777:: mmmmmmmmmmmmmmmmmmmmmmm",
"mmmmmmmmmmmmmmmmm  ....... ... .         mmmmmmmmmmmmmmmmmmmmmmm",
"mmmmmmmmmmmmmmmmmmmmmmmmmmmmmmmmmmmmmmmmmmmmmmmmmmmmmmmmmmmmmmmm",
"mmmmmmmmmmmmmmmmmmmmmmmmmmmmmmmmmmmmmmmmmmmmmmmmmmmmmmmmmmmmmmmm",
"mmmmmmmmmmmmmmmmmmmmmmmmmmmmmmmmmmmmmmmmmmmmmmmmmmmmmmmmmmmmmmmm",
"mmmmmmmmmmmmmmmmmmmmmmmmmmmmmmmmmmmmmmmmmmmmmmmmmmmmmmmmmmmmmmmm",
"mmmmmmmmmmmmmmmmmmmmmmmmmmmmmmmmmmmmmmmmmmmmmmmmmmmmmmmmmmmmmmmm",
"mmmmmmmmmmmmmmmmmmmmmmmmmmmmmmmmmmmmmmmmmmmmmmmmmmmmmmmmmmmmmmmm",
"mmmmmmmmmmmmmmmmmmmmmmmmmmmmmmmmmmmmmmmmmmmmmmmmmmmmmmmmmmmmmmmm",
"mmmmmmmmmmmmmmmmmmmmmmmmmmmmmmmmmmmmmmmmmmmmmmmmmmmmmmmmmmmmmmmm",
"mmmmmmmmmmmmmmmmmmmmmmmmmmmmmmmmmmmmmmmmmmmmmmmmmmmmmmmmmmmmmmmm",
"mmmmmmmmmmmmmmmmmmmmmmmmmmmmmmmmmmmmmmmmmmmmmmmmmmmmmmmmmmmmmmmm",
"mmmmmmmmmmmmmmmmmmmmmmmmmmmmmmmmmmmmmmmmmmmmmmmmmmmmmmmmmmmmmmmm",
"mmmmmmmmmmmmmmmmmmmmmmmmmmmmmmmmmmmmmmmmmmmmmmmmmmmmmmmmmmmmmmmm",
"mmmmmmmmmmmmmmmmmmmmmmmmmmmmmmmmmmmmmmmmmmmmmmmmmmmmmmmmmmmmmmmm",
"mmmmmmmmmmmmmmmmmmmmmmmmmmmmmmmmmmmmmmmmmmmmmmmmmmmmmmmmmmmmmmmm"
};
