/* XPM */
static char *result[] = {
/* columns rows colors chars-per-pixel */
"64 64 28 1 ",
"  c #56341E",
". c #56341F",
"X c #573621",
"o c #573723",
"O c #583621",
"+ c #583622",
"@ c #583724",
"# c #583824",
"$ c #654935",
"% c #6D5A4B",
"& c #6B5F51",
"* c #6B6256",
"= c #736E62",
"- c #736E63",
"; c #746F63",
": c #777165",
"> c #79766B",
", c #868579",
"< c #8E8D83",
"1 c #8E8D84",
"2 c #8F8D84",
"3 c #8F8D85",
"4 c #8F8E85",
"5 c #908E85",
"6 c #908E86",
"7 c #918F86",
"8 c #94928B",
"9 c None",
/* pixels */
"9999999999999999999999999999@,,,,9999999999999999999999999999999",
"9999999999999999999999999999@>4,,9999999999999999999999999999999",
"9999999999999999999999999999@**449999999999999999999999999999999",
"9999999999999999999999999999o.,,,9999999999999999999999999999999",
"9999999999999999999999999999@,,,,9999999999999999999999999999999",
"9999999999999999999999999999@,,,,9999999999999999999999999999999",
"9999999999999999999999999999@,,,,9999999999999999999999999999999",
"9999999999999999999999999999@,,,,9999999999999999999999999999999",
"9999999999999999999999999999@,,,,9999999999999999999999999999999",
"9999999999999999999999999999@,,,,9999999999999999999999999999999",
"9999999999999999999999999999@,,,,9999999999999999999999999999999",
"9999999999999999999999999999@,,,,9999999999999999999999999999999",
"9999999999999999999999999999@56769999999999999999999999999999999",
"9999999999999999999999999999#,,,,9999999999999999999999999999999",
"9999999999999999999999999999#,,,,9999999999999999999999999999999",
"9999999999999999999999999999.,,,,9999999999999999999999999999999",
"9999999999999999999999999999@,,,,9999999999999999999999999999999",
"9999999999999999999999999999@,,,,9999999999999999999999999999999",
"9999999999999999999999999999@,,,,9999999999999999999999999999999",
"9999999999999999999999999999@,,,,9999999999999999999999999999999",
"9999999999999999999999999999@,,,,9999999999999999999999999999999",
"9999999999999999999999999999@,,,89999999999999999999999999999999",
"9999999999999999999999999999@88%-9999999999999999999999999999999",
"9999999999999999999999999999@$$;=9999999999999999999999999999999",
"9999999999999999999999999999@,,.*9999999999999999999999999999999",
"9999999999999999999999999999@,,.*9999999999999999999999999999999",
"9999999999999999999999999999@,,,,9999999999999999999999999999999",
"9999999999999999999999999999@,,,,9999999999999999999999999999999",
"9999999999999999999999999999@,,,,9999999999999999999999999999999",
"9999999999999999999999999999@,,,,9999999999999999999999999999999",
"9999999999999999999999999999@,,,,9999999999999999999999999999999",
"9999999999999999999999999999@,,,,9999999999999999999999999999999",
"9999999999999999999999999999@,,,,9999999999999999999999999999999",
"9999999999999999999999999999@$$$ 9999999999999999999999999999999",
"9999999999999999999999999999#,,,,9999999999999999999999999999999",
"9999999999999999999999999999+,,,,9999999999999999999999999999999",
"9999999999999999999999999999@,,,,9999999999999999999999999999999",
"9999999999999999999999999999@,,,,9999999999999999999999999999999",
"9999999999999999999999999999@,,,,9999999999999999999999999999999",
"9999999999999999999999999999@,,,,9999999999999999999999999999999",
"9999999999999999999999999999@,,,,9999999999999999999999999999999",
"9999999999999999999999999999@,,,,9999999999999999999999999999999",
"9999999999999999999999999999@,,,,9999999999999999999999999999999",
"9999999999999999999999999999@<2319999999999999999999999999999999",
"9999999999999999999999999999@,,,,9999999999999999999999999999999",
"9999999999999999999999999999@,,,,9999999999999999999999999999999",
"9999999999999999999999999999@,,,,9999999999999999999999999999999",
"9999999999999999999999999999@,,,,9999999999999999999999999999999",
"9999999999999999999999999999@,,,,9999999999999999999999999999999",
"9999999999999999999999999999@8,,,9999999999999999999999999999999",
"9999999999999999999999999999@8,,,9999999999999999999999999999999",
"9999999999999999999999999999@&8*39999999999999999999999999999999",
"9999999999999999999999999999@:&,,9999999999999999999999999999999",
"9999999999999999999999999999@&&,,9999999999999999999999999999999",
"9999999999999999999999999999 XO889999999999999999999999999999999",
"9999999999999999999999999999#88,,9999999999999999999999999999999",
"9999999999999999999999999999.,,,,9999999999999999999999999999999",
"9999999999999999999999999999999999999999999999999999999999999999",
"9999999999999999999999999999999999999999999999999999999999999999",
"9999999999999999999999999999999999999999999999999999999999999999",
"9999999999999999999999999999999999999999999999999999999999999999",
"9999999999999999999999999999999999999999999999999999999999999999",
"9999999999999999999999999999999999999999999999999999999999999999",
"9999999999999999999999999999999999999999999999999999999999999999"
};
