/* XPM */
static char *result[] = {
/* columns rows colors chars-per-pixel */
"64 64 12 1 ",
"  c #040404",
". c #661904",
"X c #E1302D",
"o c #8C4608",
"O c #B2860C",
"+ c #C38846",
"@ c #FFD658",
"# c blue",
"$ c #7B96FF",
"% c #FFCC9D",
"& c #ECECEC",
"* c None",
/* pixels */
"****************************************************************",
"****************************************************************",
"****************************************************************",
"****************************************************************",
"****************************************************************",
"****************************************************************",
"****************************************************************",
"****************************************************************",
"****************************************************************",
"****************************************************************",
"****************************************************************",
"****************************************************************",
"****************************************************************",
"****************************************************************",
"****************************************************************",
"**********************          ********************************",
"**********************          ********************************",
"*******************   oO@@&@Oooo   *****************************",
"****************** .ooOo.....OOOo.. ****************************",
"***************         XXXXX...Ooo. ***************************",
"*************  ooOOOOOoo     XXX...o. **************************",
"*************  ooOOOOOoo     XXX...o. **************************",
"************ o@@@&&&@@@OOOOoo   XXX.o **************************",
"**********  O@OooooooooooooOOOOo   X..  ************************",
"********* oo@O....     ....ooooOOoo  .  ************************",
"********* oo@O....     ....ooooOOoo  .  ************************",
"********* ooO.             ....ooOOOo   ************************",
"**********  .       ooo      ....oooOo  ************************",
"*********      oo o+++++oo      ....oOoo ***********************",
"**********    o    +%%%%%%+o     ....oOO ***********************",
"**********    o    +%%%%%%+o     ....oOO ***********************",
"************   oo+%%%%%+oo         ...ooo **********************",
"************   oo  +%%%%%%%++oo     ..ooo **********************",
"************ * oo%&o%%%%   o+++o     ...o **********************",
"************ * oo%&o%%%%   o+++o     ...o **********************",
"************** ++o +%%%%&&&+o++o        o **********************",
"************** ++  +%%%%oo &+++     ..oo ***********************",
"************** ++&&%%%%%   &+++ o   .   ************************",
"************** ++%%%%%%%&&&++++ %oo  ***************************",
"************** ++%%%%%%%&&&++++ %oo  ***************************",
"************** oo+%%%%%    oo++%+oo  ***************************",
"***************  o+%%% %++o +oo+o   ****************************",
"*****************  o  +%%%%oo    *******************************",
"*****************  o  +%%%%oo    *******************************",
"*******************   +%%%%+ oo ********************************",
"********************** +%%%o %%o *******************************",
"********************    ++% %++o *******************************",
"********************  o&  +%+oo  *******************************",
"********************  o&  +%+oo  *******************************",
"******************* ooXoXX + ooo *******************************",
"*******************   o&ooX oooo *******************************",
"****************** #$$  ooooooo  *****   ***********************",
"**********    *** #&###$     $$$$  ** ooO **********************",
"**********    *** #&###$     $$$$  ** ooO **********************",
"********* ..o. ** + &&$$  #$$###$&&  +...O  ********************",
"******** .OOOo%  %%+    **  $$$#&  +%%+++.OO *******************",
"********* oooo.%%+  ********   # ++%+ %%%+oo *******************",
"********* oooo.%%+  ********   # ++%+ %%%+oo *******************",
"**********  OOo++ ************* *    *  o+  ********************",
"************ oooo **********************  **********************",
"*************    ***********************************************",
"****************************************************************",
"****************************************************************",
"****************************************************************"
};
