/* XPM */
static char *result[] = {
/* columns rows colors chars-per-pixel */
"64 64 59 1 ",
"  c #4F2913",
". c #522B14",
"X c #542F18",
"o c #573017",
"O c #553119",
"+ c #5A341B",
"@ c #5D381E",
"# c #60391D",
"$ c #5D3A21",
"% c #613E23",
"& c #5A4432",
"* c #5E4834",
"= c #634126",
"- c #684326",
"; c #644529",
": c #69462A",
"> c #664A2D",
", c #6B4A2D",
"< c #6B4E31",
"1 c #634E3C",
"2 c #714F33",
"3 c #6C5033",
"4 c #64513E",
"5 c #725334",
"6 c #725638",
"7 c #765A3B",
"8 c #795C3D",
"9 c #675340",
"0 c #695542",
"q c #6B5846",
"w c #6E5D4A",
"e c #705C47",
"r c #7B5F40",
"t c #715E49",
"y c #7D6343",
"u c #74614D",
"i c #766653",
"p c #786651",
"a c #7D6852",
"s c #7C6D5B",
"d c #7E705F",
"f c #806646",
"g c #816749",
"h c #846A4B",
"j c #886F4F",
"k c #886F50",
"l c #8C7354",
"z c #81705D",
"x c #8F7758",
"c c #8F7858",
"v c #907755",
"b c #917856",
"n c #937B5B",
"m c #857562",
"M c #8B7B66",
"N c #978164",
"B c #9D8664",
"V c #9E8768",
"C c None",
/* pixels */
"CCCCCCCCCCCCCCCCCCCCCCCCCCCCCCCCCCCCCCCCCCCCCCCCCCCCCCCCCCCCCCCC",
"CCCCCCCCCCCCCCCCCCCCCCCCCCCCCCCCCCCCCCCCCCCCCCCCCCCCCCCCCCCCCCCC",
"CCCCCCCCCCCCCCCCCCCCCCCCCCCCCCCCCCCCCCCCCCCCCCCCCCCCCCCCCCCCCCCC",
"CCCCCCCCCCCCCCCCCCCCCCCCCCCCCCCCCCCCCCCCCCCCCCCCCCCCCCCCCCCCCCCC",
"CCCCCCCCCCCCCCCCCCCCCCCCCCCCCCCCCCCCCCCCCCCCCCCCCCCCCCCCCCCCCCCC",
"CCCCCCCCCCCCCCCCCCCCCCCCCCCCCCCCCCCCCCCCCCCCCCCCCCCCCCCCCCCCCCCC",
"CCCCCCCCCCCCCCCCCCCCCCCCCCCCCCCCCCCCCCCCCCCCCCCCCCCCCCCCCCCCCCCC",
"CCCCCCCCCCCCCCCCCCCCCCCCCCCCCCCCCCCCCCCCCCCCCCCCCCCCCCCCCCCCCCCC",
"CCCCCCCCCCCCCCCCCCCCCCCCCCCCCCCCCCCCCCCCCCCCCCCCCCCCCCCCCCCCCCCC",
"CCCCCCCCCCCCCCCCCCCCCCCCCCCCCCCCCCCCCCCCCCCCCCCCCCCCCCCCCCCCCCCC",
"CCCCCCCCCCCCCCCC,>,+CCCCCCCCCCCCCCCCCCCCC2222CCCCCCCCCCCCCCCCCCC",
"CCCCCCCCCCCCCCC,lyy+CCCCCCCCCCCCCCCCCCCCC,xjj2CCCCCCCCCCCCCCCCCC",
"CCCCCCCCCCCCCCC,xyyOCCCCCCCCCCCCCCCCCCCCC,bhj2CCCCCCCCCCCCCCCCCC",
"CCCCCCCCCCCCCC<bhh3+CCCCCCCCCCCCCCCCCCCCC,ybjl2CCCCCCCCCCCCCCCCC",
"CCCCCCCCCCCCCC:bjh5oCCCCCCCCCCCCCCCCCCCCC,ybll2CCCCCCCCCCCCCCCCC",
"CCCCCCCCCCCCCC<bhj3oCCCCCCCCCCCCCCCCCCCCC:yBbb,CCCCCCCCCCCCCCCCC",
"CCCCCCCCCCCCC,xlkl3oCCCCCCCCCCCCCCCCCCCCC2fnxxv2CCCCCCCCCCCCCCCC",
"CCCCCCCCCCCCC:nll<<oCCCCCCCCCCCCCCCCCCCCC%ffnbv,CCCCCCCCCCCCCCCC",
"CCCCCCCCCCCCC:Nxx<3OCCCCCCCCCCCCCCCCCCCCC2ffVnn2CCCCCCCCCCCCCCCC",
"CCCCCCCCCCCCC:Nxx<3XCCCCCCCCCCCCCCCCCCCCC,ghVnn,CCCCCCCCCCCCCCCC",
"CCCCCCCCCCCCC:nxx<<oCCCCCCCCCCCCCCCCCCCCC,frVnn:CCCCCCCCCCCCCCCC",
"CCCCCCCCCCCC;Nxlx<<oCCCCCCCCCCCCCCCCCCCCC2ffVnnV=CCCCCCCCCCCCCCC",
"CCCCCCCCCCCC:Mlx<<<XCCCCCCCCCCCCCCCCCCCCC2rffnnn=CCCCCCCCCCCCCCC",
"CCCCCCCCCCCC=Vxx<<<XCCCCCCCCCCCCCCCCCCCCC%fffVnn%CCCCCCCCCCCCCCC",
"CCCCCCCCCCCC=Nlk3<,XCCCCCCCCCCCCCCCCCCCCC,fffBbb%CCCCCCCCCCCCCCC",
"CCCCCCCCCCCC=Nkk<X,XCCCCCCCCCCCCCCCCCCCCC:f,fBvv#CCCCCCCCCCCCCCC",
"CCCCCCCCCCCC=NkkX0X.CCCCCCCCCCCCCCCCCCCCC:,m,Bll#CCCCCCCCCCCCCCC",
"CCCCCCCCCCCC%@%+X>..CCCCCCCCCCCCCCCCCCCCC%-p-%-%#CCCCCCCCCCCCCCC",
"CCCCCCCCCCCC%mxz0.<.CCCCCCCCCCCCCCCCCCCCC%8#mMMM#CCCCCCCCCCCCCCC",
"CCCCCCCCCCCC%uuu>.,.CCCCCCCCCCCCCCCCCCCCC#f#aaaa@CCCCCCCCCCCCCCC",
"CCCCCCCCCCCC%uut.<>.CCCCCCCCCCCCCCCCCCCCC#f8$aha@CCCCCCCCCCCCCCC",
"CCCCCCCCCCCC%X.o<>>XCCCCCCCCCCCCCCCCCCCCC#ff6@+@oCCCCCCCCCCCCCCC",
"CCCCCCCCCCCC=3>><<<.CCCCCCCCCCCCCCCCCCCCC#ffrh58#CCCCCCCCCCCCCCC",
"CCCCCCCCCCCC@yyy>,;.CCCCCCCCCCCCCCCCCCCCC#frrvhhoCCCCCCCCCCCCCCC",
"CCCCCCCCCCCC$hyy>>.4.CCCCCCCCCCCCCCCCCCC#z#yrvfh+CCCCCCCCCCCCCCC",
"CCCCCCCCCCCC$hyy>;.&.CCCCCCCCCCCCCCCCCCC#p#rrvff+CCCCCCCCCCCCCCC",
"CCCCCCCCCCCC=y87;; & CCCCCCCCCCCCCCCCCCC#p+8ykyyoCCCCCCCCCCCCCCC",
"CCCCCCCCCCCC$y88>; &.CCCCCCCCCCCCCCCCCCC+u+87krroCCCCCCCCCCCCCCC",
"CCCCCCCCCCCC$py7;; &XCCCCCCCCCCCCCCCCCCC+uo87lrroCCCCCCCCCCCCCCC",
"CCCCCCCCCCCC$y78;;;OCCCCCCCCCCCCCCCCCCCCCo877krrXCCCCCCCCCCCCCCC",
"CCCCCCCCCCCC$y77;== CCCCCCCCCCCCCCCCCCCCCo585krrXCCCCCCCCCCCCCCC",
"CCCCCCCCCCCC$y87=== CCCCCCCCCCCCCCCCCCCCC#556hr7.CCCCCCCCCCCCCCC",
"CCCCCCCCCCCC$y66=== CCCCCCCCCCCCCCCCCCCCCo555j77.CCCCCCCCCCCCCCC",
"CCCCCCCCCCCC@y66&$= CCCCCCCCCCCCCCCCCCCCC.5%<h76.CCCCCCCCCCCCCCC",
"CCCCCCCCCCCCOy66=.= CCCCCCCCCCCCCCCCCCCCCo%a$g76.CCCCCCCCCCCCCCC",
"CCCCCCCCCCCCOy76 4 .CCCCCCCCCCCCCCCCCCCCC.@qoh66.CCCCCCCCCCCCCCC",
"CCCCCCCCCCCC @++ &. CCCCCCCCCCCCCCCCCCCCC.:+s....CCCCCCCCCCCCCCC",
"CCCCCCCCCCCC dzz4 $ CCCCCCCCCCCCCCCCCCCCC.,oqszs.CCCCCCCCCCCCCCC",
"CCCCCCCCCCCC.wue&  * CCCCCCCCCCCCCCCCCCC a =oett CCCCCCCCCCCCCCC",
"CCCCCCCCCCCC tte $ & CCCCCCCCCCCCCCCCCCC 4 ,+ttw CCCCCCCCCCCCCCC",
"CCCCCCCCCCCC .  $$ & CCCCCCCCCCCCCCCCCCC 4 ,-    CCCCCCCCCCCCCCC",
"CCCCCCCCCCCC.,-,+ 9& CCCCCCCCCCCCCCCCCCC 4u ,5,, CCCCCCCCCCCCCCC",
"CCCCCCCCCCCC r66$ && CCCCCCCCCCCCCCCCCCC 9q <f66 CCCCCCCCCCCCCCC",
"CCCCCCCCCCCC r66+ & CCCCCCCCCCCCCCCCCCCCC 0 <y66 CCCCCCCCCCCCCCC",
"CCCCCCCCCCCC 866 4& CCCCCCCCCCCCCCCCCCCCC qd y66 CCCCCCCCCCCCCCC",
"CCCCCCCCCCCC     && CCCCCCCCCCCCCCCCCCCCC qw     CCCCCCCCCCCCCCC",
"CCCCCCCCCCCC iii0& CCCCCCCCCCCCCCCCCCCCCCC wmuuw CCCCCCCCCCCCCCC",
"CCCCCCCCCCCC uqw&& CCCCCCCCCCCCCCCCCCCCCCC ws000 CCCCCCCCCCCCCCC",
"CCCCCCCCCCCC uqq&& CCCCCCCCCCCCCCCCCCCCCCC wd000 CCCCCCCCCCCCCCC",
"CCCCCCCCCCCC iqq& CCCCCCCCCCCCCCCCCCCCCCCCC s000 CCCCCCCCCCCCCCC",
"CCCCCCCCCCCC uqq& CCCCCCCCCCCCCCCCCCCCCCCCC s000 CCCCCCCCCCCCCCC",
"CCCCCCCCCCCC uqq& CCCCCCCCCCCCCCCCCCCCCCCCC s000 CCCCCCCCCCCCCCC",
"CCCCCCCCCCCC     CCCCCCCCCCCCCCCCCCCCCCCCCCC     CCCCCCCCCCCCCCC",
"CCCCCCCCCCCCCCCCCCCCCCCCCCCCCCCCCCCCCCCCCCCCCCCCCCCCCCCCCCCCCCCC"
};
