/* XPM */
static char *result[] = {
/* columns rows colors chars-per-pixel */
"64 64 160 2 ",
"   c #020606",
".  c #000B02",
"X  c #01060C",
"o  c #030A0D",
"O  c #090E0F",
"+  c #031207",
"@  c #05150B",
"#  c #0C120E",
"$  c #000613",
"%  c #020A14",
"&  c #0E0E10",
"*  c #00071C",
"=  c #020A1B",
"-  c #041012",
";  c #0D1212",
":  c #05111D",
">  c #0B141E",
",  c #141B1B",
"<  c #0C2013",
"1  c #010621",
"2  c #020C22",
"3  c #080F23",
"4  c #000529",
"5  c #050F2D",
"6  c #080C2A",
"7  c #041222",
"8  c #0A1423",
"9  c #071821",
"0  c #061329",
"q  c #0B142B",
"w  c #051C2B",
"e  c #0D1B2C",
"r  c #101D27",
"t  c #191B23",
"y  c #141F29",
"u  c #061534",
"i  c #0D1736",
"p  c #0C1C34",
"a  c #071F3B",
"s  c #0C1E3C",
"d  c #111B35",
"f  c #101C39",
"g  c #1B2227",
"h  c #1B3522",
"j  c #0F2131",
"k  c #0F233F",
"l  c #13293D",
"z  c #252726",
"x  c #393B3D",
"c  c #1C4425",
"v  c #224327",
"b  c #234B28",
"n  c #2A5D35",
"m  c #2F5439",
"M  c #275E3A",
"N  c #2B5D3A",
"B  c #325D3E",
"V  c #266036",
"C  c #2B6139",
"Z  c #0D1D46",
"A  c #142542",
"S  c #1B2641",
"D  c #162942",
"F  c #1A2B40",
"G  c #17274B",
"H  c #15284A",
"J  c #182F48",
"K  c #1D3355",
"L  c #202F47",
"P  c #223449",
"I  c #28374E",
"U  c #243948",
"Y  c #253454",
"T  c #2E3C52",
"R  c #233B5B",
"E  c #2B3C5A",
"W  c #313C55",
"Q  c #1E3C63",
"!  c #2A3E61",
"~  c #243E6D",
"^  c #2B405E",
"/  c #314058",
"(  c #3F475A",
")  c #306440",
"_  c #244561",
"`  c #2C4363",
"'  c #2D436D",
"]  c #2D4E6C",
"[  c #324364",
"{  c #354863",
"}  c #30446D",
"|  c #334C6C",
" . c #3B4D6B",
".. c #2E4D74",
"X. c #2E4D79",
"o. c #314D74",
"O. c #394E70",
"+. c #314D79",
"@. c #2D5173",
"#. c #2E507A",
"$. c #315074",
"%. c #33517D",
"&. c #3A517C",
"*. c #3C587E",
"=. c #585B5B",
"-. c #42557C",
";. c #455B7B",
":. c #2F4E81",
">. c #345384",
",. c #3D5785",
"<. c #36568B",
"1. c #395188",
"2. c #3E5A8A",
"3. c #375D96",
"4. c #3D6295",
"5. c #3D66A4",
"6. c #3E6BA6",
"7. c #3D66AB",
"8. c #3E6AAC",
"9. c #3D71AD",
"0. c #3F66B2",
"q. c #3E6AB1",
"w. c #445485",
"e. c #4B5D84",
"r. c #4A5F8F",
"t. c #435F93",
"y. c #4A5D9A",
"u. c #44618D",
"i. c #48658C",
"p. c #54618E",
"a. c #436194",
"s. c #45649B",
"d. c #4A669C",
"f. c #436A9C",
"g. c #4C699E",
"h. c #4666A2",
"j. c #4B66A3",
"k. c #4569A4",
"l. c #496AA4",
"z. c #4467AC",
"x. c #4A65AD",
"c. c #4269AD",
"v. c #486BAC",
"b. c #5168A0",
"n. c #4466B2",
"m. c #4865B2",
"M. c #4269B1",
"N. c #4869B0",
"B. c #4167B8",
"V. c #426DB8",
"C. c #4868BD",
"Z. c #4D72B8",
"A. c #5072B6",
"S. c #6479A5",
"D. c #5D83BF",
"F. c #6980B4",
"G. c #6285BD",
"H. c #5E86C3",
"J. c #6285C2",
"K. c None",
/* pixels */
"K.K.K.K.K.K.K.K.K.K.K.K.K.K.K.K.K.K.K.K.K.K.K.K.K.K.K.K.K.K.K.K.K.K.K.K.K.; . . K.K.K.K.K.K.K.K.K.K.K.K.K.K.K.K.K.K.K.K.K.K.K.K.",
"K.K.K.K.K.K.K.K.K.K.K.K.K.K.K.K.K.K.K.K.K.K.K.K.K.K.K.K.K.K.K.K.K.K.K.. C V N n C . K.K.K.K.K.K.K.K.K.K.K.K.K.K.K.K.K.K.K.K.K.K.",
"K.K.K.K.K.K.K.K.K.K.K.K.K.K.K.K.K.K.K.K.K.K.K.K.K.K.K.K.K.K.K.K.K.K.; n N K.K.K.m M K.K.K.K.K.K.K.K.K.K.K.K.K.K.K.K.K.K.K.K.K.K.",
"K.K.K.K.K.K.K.K.K.K.K.K.K.K.K.K.K.K.K.K.K.K.K.K.K.K.K.K.K.K.K.K.K.K.B C K.K.K.K.K.C @ K.K.K.K.K.K.K.K.K.K.K.K.K.K.K.K.K.K.K.K.K.",
"K.K.K.K.K.K.K.K.K.K.K.K.K.K.K.K.K.K.K.K.K.K.K.K.K.K.K.K.K.K.K.K.K.+ N K.K.K.K.K.K.V < K.K.K.K.K.K.K.K.K.K.K.K.K.K.K.K.K.K.K.K.K.",
"K.K.K.K.K.K.K.K.K.K.K.K.K.K.K.K.K.K.K.K.K.K.K.K.K.K.K.K.K.K.K.K.K.B B K.K.K.K.K.+ b # K.K.K.K.K.K.K.K.K.K.K.K.K.K.K.K.K.K.K.K.K.",
"K.K.K.K.K.K.K.K.K.K.K.K.K.K.K.K.K.K.K.K.K.K.K.K.K.K.K.K.K.K.K.K.K.M . K.K.K.K.. c @ K.K.K.K.K.K.K.K.K.K.K.K.K.K.K.K.K.K.K.K.K.K.",
"K.K.K.K.K.K.K.K.K.K.K.K.K.K.K.K.K.K.K.K.K.K.K.K.K.K.K.K.K.K.K.K.K.M =.K.K.K.K.K.K.K.K.K.K.K.K.K.K.K.K.K.K.K.K.K.K.K.K.K.K.K.K.K.",
"K.K.K.K.K.K.K.K.K.K.K.K.K.K.K.K.K.K.K.K.K.K.K.K.K.K.K.K.K.K.K.K.K.N K.K.K.K.K.K.K.K.K.K.K.K.K.K.K.K.K.K.K.K.K.K.K.K.K.K.K.K.K.K.",
"K.K.K.K.K.K.K.K.K.K.K.K.K.K.K.K.K.K.K.K.K.K.K.* l.q.c.z._ c.k.= K.C K.K.K.% o.k.v.k.' ; K.K.K.K.K.K.K.K.K.K.K.K.K.K.K.K.K.K.K.K.",
"K.K.K.K.K.K.K.K.K.K.K.K.K.K.K.K.K.K.K.K.K.X z.k.c.c.q.M.l.c.M.n.l.C   u l M.k.c.c.8.c.c.M.X K.K.K.K.K.K.K.K.K.K.K.K.K.K.K.K.K.K.",
"K.K.K.K.K.K.K.K.K.K.K.K.K.K.K.K.K.K.K.K.} c.M.z.c.c.c.v.M.c.c.M.v.B h B.q.q.k.z.1.z.c.c.M.k.0 D K.K.K.K.K.K.K.K.K.K.K.K.K.K.K.K.",
"K.K.K.K.K.K.K.K.K.K.K.K.K.K.K.K.K.K.K.p c.M.z.J.J.G.J.8.5.z.% c.c.$ c v.d.n.z.v.8.Y c.c.M.c.z.a.7.g.K.K.K.K.K.K.K.K.K.K.K.K.K.K.",
"K.K.K.K.K.K.K.K.K.K.K.K.K.K.K.K.K.K.K.M.c.J.G.J.J.H.J.J.1 c.8.c.c.f.v Z z.E 6.6.f.&.c.c.c.c.8.% c.v.c.K.K.K.K.K.K.K.K.K.K.K.K.K.",
"K.K.K.K.K.K.K.K.K.K.K.K.K.K.K.K.K.K., B.H.J.W H.J.J.J.J.c.z.p * { s.u.j i n.z.v.d.z.c.c.M.c.8.$ n.c.c.B.K.K.K.K.K.K.K.K.K.K.K.K.",
"K.K.K.K.K.K.K.K.K.K.K.K.K.K.K.K.K.o ,.8.J.J.;.J.D.J.J.= c.= c.0.M.8.c.c.z.c.$ z.c.8.c.c.N.M.c.a.c.v.z.z.[ K.K.K.K.K.K.K.K.K.K.K.",
"K.K.K.K.K.K.K.K.K.K.K.K.K.K.K.K.K.q.c.G.e.J.H.J.J.J.[ J.x.v.v.c.c.V.z.c.c.c.8.= c.c.c.v.z.c.H 3.8.8.c.z.1 K.K.K.K.K.K.K.K.K.K.K.",
"K.K.K.K.K.K.K.K.K.K.K.K.K.K.K.K.z y.8.G.J.J.J.G.J.= D.C.u n.c.c.H ,.l.c.c.c.z.c.e 8.8.z.M.,.M.n.c.c.c.c.c.c.; K.K.K.K.K.K.K.K.K.",
"K.K.K.K.K.K.K.K.K.K.K.K.K.K.K.% 0.v.i H.J.J.G.S.p.J.J.7.v.c.c.M.n.0.% M.c.c.8.M.j.8.c.l ` 7.c.c.c.c.c.c.c.c.n.K.K.K.K.K.K.K.K.K.",
"K.K.K.K.K.K.K.K.K.K.K.K.K.K.K.V.c.c.8.X % 7 F.J.G.D.z.c.c.2 8.M.M.c.>.c.c.M.c.M.n.z.z.R 0.c.c.c.c.c.c.c.M.c.8.h.K.K.K.K.K.K.K.K.",
"K.K.K.K.K.K.K.K.K.K.K.K.K.K.k.c.c.M.k.% G.J.J.J.D.7.c.c.c.z.N.~ ' c.M.c.c.c.c.M.z.c.8.l.c.c.c.c.M.c.c.c.c.M.M.v.$ K.K.K.K.K.K.K.",
"K.K.K.K.K.K.K.K.K.K.K.K.K.K.M.c.c.8.6.* %.2 A v.n.c.c.M.c.c.M.c.8.q.c.c.M.c.k.0.% k.x.z.c.c.c.q.z.q.v.8.M.c.c.c.l.K.K.K.K.K.K.K.",
"K.K.K.K.K.K.K.K.K.K.K.K.K.q c.c.c.c.h.d.c.8.q.z.s k.c.c.c.c.c.c.c.c.c.c.c.c.c.g.z.6.*.M.c.c.c.c.l.: * l.c.c.c.c.8.K.K.K.K.K.K.K.",
"K.K.K.K.K.K.K.K.K.K.K.K.K.g.z.c.M.c.c.c.c.c.c.c.v.  k.c.c.M.c.c.n.c.c.B.N.l.= $ % % > z.M.c.c.M.l.c.c.M.z.8.c.c.c.K.K.K.K.K.K.K.",
"K.K.K.K.K.K.K.K.K.K.K.K.K.N.z.c.z.Q c.8.c.M.c.c.n.k.c.w.k 6.8.n.c.c.l.p z.n.k.n.c.n.j.c.c.c.c.v.2.k.c.z.% c.n.c.c.K.K.K.K.K.K.K.",
"K.K.K.K.K.K.K.K.K.K.K.K.K.M.M.c.k.z.c.M.c.c.c.c.c.M.0 z.c.8.c.c.v.7.t.c.c.c.c.c.c.c.z.l.c.8.c.c.q.c.c.z.$ c.c.c.c.K.K.K.K.K.K.K.",
"K.K.K.K.K.K.K.K.K.K.K.K.K.c.8.k.2 M.c.c.z.8.c.c.c.c.2 c.c.c.8.8.z.l.q.c.c.c.c.c.c.c.c.R V.q.M.c.q.c.c.Z.} v.c.c.k.K.K.K.K.K.K.K.",
"K.K.K.K.K.K.K.K.K.K.K.K.K.k.c.q.Y c.M.c.c.q.c.M.c.c.,.c.M.c.c.N.6 c.M.c.M.c.c.M.c.c.c.8.X 8.c.c.c.c.B.^ M.c.c.c.o.K.K.K.K.K.K.K.",
"K.K.K.K.K.K.K.K.K.K.K.K.K.v.c.z.s.c.c.c.c.4 c.c.c.c.2.n.M.c.c.4.q.c.c.c.c.c.n.c.c.c.M.c.5.X 0 k.k.l.9 M.c.c.c.>.$ K.K.K.K.K.K.K.",
"K.K.K.K.K.K.K.K.K.K.K.K.K.d.k.z.h.c.c.c.8.c.c.c.c.M.7 c.c.c.c.q c.c.c.c.c.c.c.c.c.c.c.g.8.M.z.M.8.6.c.c.c.M.k.o.O.K.K.K.K.K.K.K.",
"K.K.K.K.K.K.K.K.K.K.K.K.K.7 c.z.&.c.c.c.c.c.c.M.c.c.p 6.8.v.z.k.c.c.c.c.z.M.c.8.M.M.M.l.c.c.c.c.z.z.l.j.6.N...P ] K.K.K.K.K.K.K.",
"K.K.K.K.K.K.K.K.K.K.K.K.K.K.c.n.$ c.c.n.q.R c.c.q.s.! A %.z.q.q.c.c.c.z.z.-.z.c.2 0.: M.c.c.c.c.z.f.M.c.s./ L #.o.K.K.K.K.K.K.K.",
"K.K.K.K.K.K.K.K.K.K.K.K.K.K.d.v.D q.c.M.c.n.p l.` N.M.z.c.c.> n.c.c.c.q.A N.M.c.z.* l.z.c.c.c.8.* c.c.M.<.O.X.o.E K.K.K.K.K.K.K.",
"K.K.K.K.K.K.K.K.K.K.K.K.K.K.K.v.c.k.c.c.z.z.V.N.v.6.c.M.c.B.8.z.c.M.M.k.$.c.c.c.c.z.6.c.c.c.c.c.$ c.c.4 ..] | o.% K.K.K.K.K.K.K.",
"K.K.K.K.K.K.K.K.K.K.K.K.K.K.K.$ N.z.c.c.c.c.7 k.c.M.c.M.c.n.c.f 8.M.c.6.K n.c.c.N.8.7.c.c.c.c.n.m.u.i.h.#.@.` ..K.K.K.K.K.K.K.K.",
"K.K.K.K.K.K.K.K.K.K.K.K.K.K.K.b.Z   c.q.k.M.k.z.c.c.c.c.c.c.c.h.M.k.c.c.c.c.c.c.z.M.c.8.c.M.c.M.n.N.l.+.+...o.O.K.K.K.K.K.K.K.K.",
"K.K.K.K.K.K.K.K.K.K.K.K.K.K.K., c.c.0 z.z.h.q.c.c.M.c.c.c.c.c.z.! C.c.c.c.c.c.M.M.$ ` n.c.c.c.c.c.X.o.o.o.` o.% K.K.K.K.K.K.K.K.",
"K.K.K.K.K.K.K.K.K.K.K.K.K.K.K.K.k.c.q.% c.7.z.8.c.8.N.* % n.8.n.8.u.d.8.c.n.6.8.s X.T 0.M.c.z...o.X...o.o. .$.K.K.K.K.K.K.K.K.K.",
"K.K.K.K.K.K.K.K.K.K.K.K.K.K.K.K.t q.c.N.l.~ h.n.c.c.* z.z.e c.M.M.q.8.a.= $ % | @.+.o.e +...o.+.o.o.o.&.% o.X K.K.K.K.K.K.K.K.K.",
"K.K.K.K.K.K.K.K.K.K.K.K.K.K.K.K.K.o.c.M.c.c.2 v.M.q.o.k.c.k.z.8.8.c.c.c.c.M.' ..o...X.y 2 ..+.o.X.@.| P +. .K.K.K.K.K.K.K.K.K.K.",
"K.K.K.K.K.K.K.K.K.K.K.K.K.K.K.K.K.K.l.8.c.c.8.,.c.c.c.c.c.1 8.R $ j.N.M.c.c.8.o.o.| 8 ..| | = % % T ..#.o.K.K.K.K.K.K.K.K.K.K.K.",
"K.K.K.K.K.K.K.K.K.K.K.K.K.K.K.K.K.K.K.v.q.c.k.B.0 f.z.l.w N.f c.c.B.K c.c.q.X.2 @.| o.o...+.o.o.+.o.o.+.K.K.K.K.K.K.K.K.K.K.K.K.",
"K.K.K.K.K.K.K.K.K.K.K.K.K.K.K.K.K.K.K.K.l.M.k.0.c.8.n.c.8.z.n.c.M.c.D c.M.X.| % $ o.o...% [ / J ..o.o.g K.K.K.K.K.K.K.K.K.K.K.K.",
"K.K.K.K.K.K.K.K.K.K.K.K.K.K.K.K.K.K.K.K.K.p M.8.c.c.c.c.c.a.c.c.c.6.q z.X...o.U | o.o.- #.$.$...O...K.K.K.K.K.K.K.K.K.K.K.K.K.K.",
"K.K.K.K.K.K.K.K.K.K.K.K.K.K.K.K.K.K.K.K.K.K.K.  c.8.c.c.c.v.N.z.c.l.X.o.o.#.#.o.o...] X.X.X.#.#.( K.K.K.K.K.K.K.K.K.K.K.K.K.K.K.",
"K.K.K.K.K.K.K.K.K.K.K.K.K.K.K.K.K.K.K.K.K.K.K.K.o @.X.:.<.>.% ..o.o...o.+.X.= | ..+.X.| X.% #.I K.K.K.K.K.K.K.K.K.K.K.K.K.K.K.K.",
"K.K.K.K.K.K.K.K.K.K.K.K.K.K.K.K.K.K.K.K.K.K.K.K.K.x | #.......: | ..+.o.o.: o...l o.o.+.| +. .K.K.K.K.K.K.K.K.K.K.K.K.K.K.K.K.K.",
"K.K.K.K.K.K.K.K.K.K.K.K.K.K.K.K.K.K.K.K.K.K.K.K.K.K.K.K.= | X.+...X. .@.+.o.o...o.$ | ] E % K.K.K.K.K.K.K.K.K.K.K.K.K.K.K.K.K.K.",
"K.K.K.K.K.K.K.K.K.K.K.K.K.K.K.K.K.K.K.K.K.K.K.K.K.K.K.K.K.K.K.K.% > e j e 8 % & K.K.K.K.K.K.K.K.K.K.K.K.K.K.K.K.K.K.K.K.K.K.K.K.",
"K.K.K.K.K.K.K.K.K.K.K.K.K.K.K.K.K.K.K.K.K.K.K.K.K.K.K.K.K.K.K.K.K.K.K.K.K.K.K.K.K.K.K.K.K.K.K.K.K.K.K.K.K.K.K.K.K.K.K.K.K.K.K.K.",
"K.K.K.K.K.K.K.K.K.K.K.K.K.K.K.K.K.K.K.K.K.K.K.K.K.K.K.K.K.K.K.K.K.K.K.K.K.K.K.K.K.K.K.K.K.K.K.K.K.K.K.K.K.K.K.K.K.K.K.K.K.K.K.K.",
"K.K.K.K.K.K.K.K.K.K.K.K.K.K.K.K.K.K.K.K.K.K.K.K.K.K.K.K.K.K.K.K.K.K.K.K.K.K.K.K.K.K.K.K.K.K.K.K.K.K.K.K.K.K.K.K.K.K.K.K.K.K.K.K.",
"K.K.K.K.K.K.K.K.K.K.K.K.K.K.K.K.K.K.K.K.K.K.K.K.K.K.K.K.K.K.K.K.K.K.K.K.K.K.K.K.K.K.K.K.K.K.K.K.K.K.K.K.K.K.K.K.K.K.K.K.K.K.K.K.",
"K.K.K.K.K.K.K.K.K.K.K.K.K.K.K.K.K.K.K.K.K.K.K.K.K.K.K.K.K.K.K.K.K.K.K.K.K.K.K.K.K.K.K.K.K.K.K.K.K.K.K.K.K.K.K.K.K.K.K.K.K.K.K.K.",
"K.K.K.K.K.K.K.K.K.K.K.K.K.K.K.K.K.K.K.K.K.K.K.K.K.K.K.K.K.K.K.K.K.K.K.K.K.K.K.K.K.K.K.K.K.K.K.K.K.K.K.K.K.K.K.K.K.K.K.K.K.K.K.K.",
"K.K.K.K.K.K.K.K.K.K.K.K.K.K.K.K.K.K.K.K.K.K.K.K.K.K.K.K.K.K.K.K.K.K.K.K.K.K.K.K.K.K.K.K.K.K.K.K.K.K.K.K.K.K.K.K.K.K.K.K.K.K.K.K.",
"K.K.K.K.K.K.K.K.K.K.K.K.K.K.K.K.K.K.K.K.K.K.K.K.K.K.K.K.K.K.K.K.K.K.K.K.K.K.K.K.K.K.K.K.K.K.K.K.K.K.K.K.K.K.K.K.K.K.K.K.K.K.K.K.",
"K.K.K.K.K.K.K.K.K.K.K.K.K.K.K.K.K.K.K.K.K.K.K.K.K.K.K.K.K.K.K.K.K.K.K.K.K.K.K.K.K.K.K.K.K.K.K.K.K.K.K.K.K.K.K.K.K.K.K.K.K.K.K.K.",
"K.K.K.K.K.K.K.K.K.K.K.K.K.K.K.K.K.K.K.K.K.K.K.K.K.K.K.K.K.K.K.K.K.K.K.K.K.K.K.K.K.K.K.K.K.K.K.K.K.K.K.K.K.K.K.K.K.K.K.K.K.K.K.K.",
"K.K.K.K.K.K.K.K.K.K.K.K.K.K.K.K.K.K.K.K.K.K.K.K.K.K.K.K.K.K.K.K.K.K.K.K.K.K.K.K.K.K.K.K.K.K.K.K.K.K.K.K.K.K.K.K.K.K.K.K.K.K.K.K.",
"K.K.K.K.K.K.K.K.K.K.K.K.K.K.K.K.K.K.K.K.K.K.K.K.K.K.K.K.K.K.K.K.K.K.K.K.K.K.K.K.K.K.K.K.K.K.K.K.K.K.K.K.K.K.K.K.K.K.K.K.K.K.K.K.",
"K.K.K.K.K.K.K.K.K.K.K.K.K.K.K.K.K.K.K.K.K.K.K.K.K.K.K.K.K.K.K.K.K.K.K.K.K.K.K.K.K.K.K.K.K.K.K.K.K.K.K.K.K.K.K.K.K.K.K.K.K.K.K.K.",
"K.K.K.K.K.K.K.K.K.K.K.K.K.K.K.K.K.K.K.K.K.K.K.K.K.K.K.K.K.K.K.K.K.K.K.K.K.K.K.K.K.K.K.K.K.K.K.K.K.K.K.K.K.K.K.K.K.K.K.K.K.K.K.K.",
"K.K.K.K.K.K.K.K.K.K.K.K.K.K.K.K.K.K.K.K.K.K.K.K.K.K.K.K.K.K.K.K.K.K.K.K.K.K.K.K.K.K.K.K.K.K.K.K.K.K.K.K.K.K.K.K.K.K.K.K.K.K.K.K."
};
