/* XPM */
static char *_a406994c3f84b6de1ffa7560a7125e0TVLEOdf2zko9WyZP[] = {
/* columns rows colors chars-per-pixel */
"64 64 22 1 ",
"  c None",
". c #331414",
"X c #7B0A0A",
"o c #7F1111",
"O c #7A3603",
"+ c #4C2828",
"@ c #624F7F",
"# c #981313",
"$ c #B52121",
"% c #C00000",
"& c #EA2D00",
"* c #BF851A",
"= c #A49736",
"- c #FFFC2A",
"; c #E3A656",
": c #D5A970",
"> c #E3D25D",
", c #82709B",
"< c #FAC887",
"1 c #FAEC85",
"2 c #A197D2",
"3 c #C4CCDC",
/* pixels */
"                                                                ",
"                                                                ",
"                                                                ",
"                                                                ",
"                                                                ",
"                                                                ",
"                                                                ",
"                                                                ",
"                                                                ",
"                                                                ",
"                                                                ",
"                                                                ",
"                                                                ",
"                                                                ",
"                                                                ",
"                                                                ",
"                 %&                                             ",
"                 %%&&                                           ",
"             &    %&                                            ",
"                  &%                                            ",
"                 %&%   <<    *                                  ",
"                %%-   <<<<   O                                  ",
"                %-->o :<<< > OO* *O                             ",
"                &--&>o<<<: >  OO*OO                             ",
"                %<<-% >o:o$ O *O%O**O                           ",
"                %:;&%+.>o$> O*OO%OOOO                           ",
"                 %%%...++++$   OOO                              ",
"                 >X>##$.+++$    O                               ",
"                 =X$$##$>.#$   <<<                              ",
"                 #=$####>#$$$X:<:<                              ",
"                   #  ##>$$$#XX O                               ",
"                      ##>$$$#XX O                               ",
"                       #$333    O                               ",
"                       #$2@@    O                               ",
"                      1.++221   O                               ",
"                      >1..2,=   O                               ",
"                    1>>1#...#>  O                               ",
"                     1>1#>.>#1  O                               ",
"                    1>>1#>$>$=>OO                               ",
"                    >1>1#>$>$=1O                                ",
"                    11$$#>$>$= O                                ",
"                      $$#>$>$# O                                ",
"                      $$#>$>## O                                ",
"                     $$$#>$>## O                                ",
"                     $$$#>$$>#OO                                ",
"                    $#$$#>$$>#OO                                ",
"                    ##$$#>$$>#OO                                ",
"                     ####>$$>#OO                                ",
"                     ## #>$$> OO                                ",
"                        #$  # OO                                ",
"                                                                ",
"                                                                ",
"                                                                ",
"                                                                ",
"                                                                ",
"                                                                ",
"                                                                ",
"                                                                ",
"                                                                ",
"                                                                ",
"                                                                ",
"                                                                ",
"                                                                ",
"                                                                "
};
