/* XPM */
static char *edb69e2142a44acddbc26f441d6740ecrudd5RKyJnW2wERJ[] = {
/* columns rows colors chars-per-pixel */
"64 64 24 1 ",
"  c None",
". c #331414",
"X c #7B0A0A",
"o c #7F1111",
"O c #7A3603",
"+ c #4C2828",
"@ c #624F7F",
"# c #981313",
"$ c #B52121",
"% c #C00000",
"& c #FF0101",
"* c #EA2D00",
"= c #BF851A",
"- c #A49736",
"; c #FFD900",
": c #FFFC2A",
"> c #E3A656",
", c #D5A970",
"< c #E3D25D",
"1 c #82709B",
"2 c #FAC887",
"3 c #FAEC85",
"4 c #A197D2",
"5 c #C4CCDC",
/* pixels */
"                                                                ",
"                                                                ",
"                                                                ",
"                                                                ",
"                                                                ",
"                                                                ",
"                                                                ",
"                                                                ",
"                                                                ",
"                                                                ",
"                                                                ",
"                                                                ",
"                                                                ",
"                                                                ",
"                                                                ",
"                                                                ",
"                                                                ",
"                                                                ",
"                         **                                     ",
"                          *%*                                   ",
"                         *%*%                                   ",
"                   %    *%*                                     ",
"                        %%**%%  222     =     =                 ",
"                      *%%*::: * 2&2&    O=   =O                 ",
"                       %%%::<o  2222    OO= =OO                 ",
"                      % *>2:2*<o,2,,o<=   O;O   =               ",
"                        %*>2*%+.<oo$<.OO=OO%OO=OO               ",
"                         *%,%...++++++    OOO                   ",
"                          XX<$##$....<     O                    ",
"                          -#$####$<#$<$<X,222                   ",
"                           ##   #$<$$<#-XX O                    ",
"                                ##<$$<     O                    ",
"                                ##$<$<     O                    ",
"                                +++4@5     O                    ",
"                               <3..+41-<   O                    ",
"                             3<<3##...#-<  O                    ",
"                             <<33##<$$$--  O                    ",
"                             <333##<$$$#-3OO                    ",
"                             33 $##<$$$$- OO                    ",
"                               $$##<$$<$# OO                    ",
"                               $$##<$$<$# OO                    ",
"                              $$$##<$$<## OO                    ",
"                             ###$###<$$<#OOO                    ",
"                            #######$<$$<#OO                     ",
"                               ####$<$$<#OO                     ",
"                                   $<$   OO                     ",
"                                                                ",
"                                                                ",
"                                                                ",
"                                                                ",
"                                                                ",
"                                                                ",
"                                                                ",
"                                                                ",
"                                                                ",
"                                                                ",
"                                                                ",
"                                                                ",
"                                                                ",
"                                                                ",
"                                                                ",
"                                                                ",
"                                                                ",
"                                                                "
};
